<svg id="Calque_1" data-name="Calque 1" xmlns="http://www.w3.org/2000/svg" viewBox="0 0 512 512"><defs><style>.cls-1{fill:#333;}</style></defs><title>logo_kaisen-linux-picto-black_no-background</title><path class="cls-1" d="M421.22,309c17.53,24.95-.08,64.51-3.6,70,1.39-8-2.81-26.59-25.2-31.45s-36.95,35.93-17.76,65.06H219.93c30.15-16.63,75.44-25.79,78.86-57.66,2-19-24.14-35-44.88-21.75,7.39-21.42,14.86-41.24,96.9-22.1-74.19-53.49-83.4-77.46,13.95-107.7-33.39-11.8-89.52-21.48-108.48-3.36.61-10.59,5.11-32.76,21-47-15.6-3.41-39-7.53-57.76,7.68-.89-56.14,60.88-53.86,102.88-61.26-42.33,28-34,54.47,1.35,58.13C385.8,164,435,169,441.11,236.64c-52.61-36.95-87-6.42-71.79,21.78C381.16,280.35,403.68,284,421.22,309Z"/><path class="cls-1" d="M307.91,209.9c-28.41-4-37.76,5.08-51.23,11.7-20.59,10.13-29.82-27.6-9-54.23-28.65,5.78-38.87,25.2-44.12,35.68-5.37-27-10.68-40.8,13.93-85.92-31.51,22.58-40.74,42.08-52.81,82.25-8.46-11.22-13.26-36.48.45-60-49.2,33.79-14.4,73.92-47.23,134.23-8.93,16.42-36.09,26-44,.13-9.84,36.63,5.56,70.8,35.07,83.76-.45-11.35,1.32-22,9.6-31.56,1.35,7.65,2.6,14.53,8.82,19.8-.29-9.49,5.13-19.64,10.8-27.25.8,7.39,2.86,13.51,8.77,15.68,18.09-53.47,47.93-47.49,50.13-44s2.4,26.22-9,37.86c-16.44,16.8-40.62,20.32-48.34,22.61,1.58,7.2,7.7,9.6,14.4,12.11-9.44,7.76-19.8,7-30.57,6.13,8.86,20,45.16,37.37,63.35,30.89-3-5.7-6.58-11.22-8.94-17.22-5.16-13.07.47-22.36,13.44-24.83,10.8-2.05,25.9,3.6,32.4,5.23-11.4-27.67,17.75-85.3,76.48-74.5C244.28,243.11,291.34,217.34,307.91,209.9ZM161.07,254.47c0-12.3,6-31.2,8.66-34.31s10.42-2,23.14,4.29C176.18,233.7,170.37,241,161.07,254.47Z"/></svg>