<?xml version="1.0" encoding="UTF-8"?><svg id="Calque_1" xmlns="http://www.w3.org/2000/svg" viewBox="0 0 750 750"><defs><style>.cls-1{fill:#91130b;stroke-width:0px;}</style></defs><polygon class="cls-1" points="511.42 168.13 526.25 165.71 559.28 173.78 579.56 163.74 551.63 147.79 553.35 131.36 540.02 119.72 523.72 121.28 511.91 99.46 494.48 106.49 492.92 121.04 478.72 125.49 506.89 136.62 511.42 168.13"/><polygon class="cls-1" points="340.06 315.92 343.96 292.63 336.16 290.81 324.32 303.36 328.37 315.92 340.06 315.92"/><polygon class="cls-1" points="291.74 280.4 300.82 283.79 306.06 275.45 309.28 270.87 307.07 266.09 293.56 272.09 291.74 280.4"/><polygon class="cls-1" points="355.18 291.01 384.15 286.33 451.88 217.66 450.49 175.9 425.15 157.21 398.97 161.71 321.75 214.14 313.14 251.46 315.93 272.26 300.36 297.36 279.52 316.11 253.35 327.37 254.46 327.97 280.41 319.89 295.92 309.35 297.11 309.25 290.13 328.98 291.98 357.17 293.33 357.6 294.09 329.55 304.39 308.54 339.48 278.28 355.18 291.01"/><polygon class="cls-1" points="430.95 148.74 461.66 170.66 463.19 208.93 480.83 191.28 480.83 157.16 446.16 139.97 433.22 141.99 408.49 151.99 430.95 148.74"/><polygon class="cls-1" points="487.75 149.63 491.14 180.97 500.91 171.19 498.48 143.58 468.54 129.56 459.33 130.32 447.57 134.27 457.93 134.27 487.75 149.63"/><path class="cls-1" d="M295.15,249.12c-7.07-.36-7.56-.33-13.59-.54h0c33.7-42.3,66.86-85.01,99.31-128.27,10.94-14.55,21.79-29.18,32.45-43.95-23.14,28.14-45.63,56.78-67.97,85.54-22.74,29.19-45.05,58.71-67.2,88.35,8.25-.31,8.75-.72,17-1.13"/><polygon class="cls-1" points="328.1 201.94 351.58 187.52 336.91 187.52 325.58 202.1 328.1 201.94"/><path class="cls-1" d="M420.38,284.16c7.81-4.26,15.49-8.41,23.08-12.52l-2.03-25.55-21.76,23.39.71,14.68Z"/><path class="cls-1" d="M355.32,327.3h0c.55-8.33.19-9,.75-18.22-1.37,10.14-1.29,10.8-2.57,20.95l1.31-.69c43.17-22.5,86.19-45.26,128.99-68.45,42.81-23.17,46.4-25.81,88.72-49.88-43.41,22.03-47.28,24.16-90.21,47.1-42.53,22.7-84.83,45.82-127,69.19"/><polygon class="cls-1" points="391.04 382.86 382.18 380.47 360.14 403.47 379.97 422.47 402 399.47 399.24 390.72 413.47 375.86 405.28 368.01 391.04 382.86"/><polygon class="cls-1" points="456.61 360.64 446.62 288.67 418.02 303.88 404.16 337.13 356.5 371.37 372.61 386.81 380.36 378.73 381.39 377.65 382.83 378.04 390.26 380.04 403.46 366.27 405.2 364.45 407.02 366.19 415.22 374.05 417.04 375.79 415.29 377.61 402.09 391.38 404.4 398.72 404.85 400.14 403.82 401.22 396.08 409.3 413.38 425.88 456.61 361.92 456.11 361.2 456.61 360.64"/><polygon class="cls-1" points="325.58 414.25 332.6 420.98 344.24 408.84 348.12 412.57 336.49 424.71 339.69 427.77 351.32 415.63 355.21 419.36 343.57 431.5 346.77 434.56 358.41 422.42 362.29 426.15 350.66 438.29 353.86 441.35 365.49 429.21 369.38 432.94 357.74 445.08 360.94 448.14 372.58 436.01 376.47 439.73 364.83 451.87 371.85 458.6 406.21 422.75 394.94 411.94 394.21 411.24 381.78 424.21 380.04 426.03 378.22 424.29 358.39 405.29 356.58 403.54 358.32 401.72 370.74 388.76 359.92 378.43 325.58 414.25"/><polygon class="cls-1" points="170.44 265.58 175.43 270.34 183.65 261.72 186.41 264.35 178.19 272.97 180.46 275.14 188.68 266.52 191.44 269.15 183.22 277.77 185.49 279.94 193.71 271.31 196.47 273.95 188.25 282.57 190.52 284.73 198.74 276.11 201.51 278.75 193.28 287.36 195.56 289.53 203.78 280.91 206.53 283.55 198.31 292.17 203.3 296.92 227.58 271.46 220.02 264.24 210.27 274.47 208.53 276.29 206.71 274.55 192.62 261.12 190.8 259.38 192.54 257.56 202.29 247.34 194.72 240.12 170.44 265.58"/><polygon class="cls-1" points="293.76 185.29 242.49 198.58 242.49 198.59 242.49 198.59 242.54 198.83 193.05 234.59 204.25 245.28 208.11 241.23 209.14 240.15 210.58 240.54 215.43 241.83 224.46 232.36 226.2 230.54 228.02 232.28 233.84 237.83 235.66 239.56 233.93 241.39 224.89 250.86 226.42 255.63 226.87 257.05 225.84 258.14 221.97 262.19 233.18 272.88 252.9 242.65 297.92 201.55 308.29 200.69 320.05 185.29 293.76 185.29"/><polygon class="cls-1" points="216.22 244.65 209.93 242.97 194.36 259.3 208.44 272.73 224.02 256.4 222.04 250.2 232.1 239.65 226.28 234.1 216.22 244.65"/><rect class="cls-1" x="134.46" y="651.37" width="3.72" height="21.92"/><polygon class="cls-1" points="150.37 657.85 150.37 673.3 146.65 673.3 146.65 651.38 150.37 651.38 161.25 666.88 161.25 651.38 165 651.38 165 673.3 161.25 673.3 150.37 657.85"/><polygon class="cls-1" points="173.46 673.3 173.46 651.38 187.82 651.38 187.82 654.75 177.19 654.75 177.19 660.41 187.1 660.41 187.1 663.82 177.19 663.82 177.19 673.3 173.46 673.3"/><path class="cls-1" d="M198.41,654.75v7.66h4.16c3.12,0,5.1-1.03,5.1-3.85,0-2.66-1.94-3.81-5.1-3.81h-4.16ZM202.94,665.82h-4.53v7.47h-3.72v-21.92h8.35c5.1,0,8.35,2.59,8.35,7.16,0,3.25-1.66,5.6-4.47,6.66l5.03,8.1h-4.41l-4.6-7.47Z"/><path class="cls-1" d="M223.57,665.2h6.66l-3.34-8.75-3.32,8.75ZM237.33,673.3h-3.91l-1.84-4.66h-9.35l-1.81,4.66h-3.94l8.57-21.92h3.75l8.54,21.92Z"/><path class="cls-1" d="M249.17,663.79c-4.1-.72-6.57-2.91-6.57-6.5,0-3.88,3.57-6.25,7.72-6.25,3.88,0,6.35,1.66,8.1,3.5l-2.59,2.75c-1.22-1.47-2.97-2.88-5.66-2.88s-3.81,1.47-3.81,2.78c0,1.5.97,2.56,3.63,2.97l2.19.38c4.81.78,7,3.25,7,6.75s-3.1,6.35-8.38,6.35c-4.06,0-6.91-1.91-8.72-4.19l2.53-2.57c1.34,1.75,3.16,3.38,6.66,3.38,2.78,0,4.16-1.28,4.16-2.91,0-1.44-.9-2.66-3.59-3.13l-2.66-.43Z"/><polygon class="cls-1" points="282.05 651.38 282.05 654.75 275.36 654.75 275.36 673.29 271.64 673.29 271.64 654.75 265.13 654.75 265.13 651.38 282.05 651.38"/><path class="cls-1" d="M292.45,654.75v7.66h4.16c3.12,0,5.1-1.03,5.1-3.85,0-2.66-1.94-3.81-5.1-3.81h-4.16ZM296.99,665.82h-4.53v7.47h-3.72v-21.92h8.35c5.1,0,8.35,2.59,8.35,7.16,0,3.25-1.66,5.6-4.47,6.66l5.03,8.1h-4.41l-4.6-7.47Z"/><path class="cls-1" d="M325.9,651.38h3.75v12.19c0,6.69-3.56,10.07-8.85,10.07s-8.85-3.38-8.85-10.07v-12.19h3.75v12.23c0,4.03,1.41,6.66,5.1,6.66s5.1-2.63,5.1-6.69v-12.19Z"/><path class="cls-1" d="M355.88,669.51c-1.94,2.44-4.6,4.13-8.72,4.13-6.56,0-11.44-4.57-11.44-11.26s4.88-11.35,11.32-11.35c3.88,0,6.69,1.63,8.54,4.13l-2.41,2.5c-1.28-1.85-3.22-3.22-6.06-3.22-4.32,0-7.57,3.34-7.57,7.94s3.25,7.85,7.69,7.85c2.81,0,4.81-1.28,6.32-3.28l2.34,2.57Z"/><polygon class="cls-1" points="377.35 651.38 377.35 654.75 370.65 654.75 370.65 673.29 366.94 673.29 366.94 654.75 360.43 654.75 360.43 651.38 377.35 651.38"/><path class="cls-1" d="M397.6,651.38h3.75v12.19c0,6.69-3.56,10.07-8.85,10.07s-8.85-3.38-8.85-10.07v-12.19h3.75v12.23c0,4.03,1.41,6.66,5.1,6.66s5.1-2.63,5.1-6.69v-12.19Z"/><path class="cls-1" d="M412.82,654.75v7.66h4.16c3.13,0,5.1-1.03,5.1-3.85,0-2.66-1.94-3.81-5.1-3.81h-4.16ZM417.35,665.82h-4.53v7.47h-3.72v-21.92h8.35c5.1,0,8.35,2.59,8.35,7.16,0,3.25-1.66,5.6-4.47,6.66l5.03,8.1h-4.41l-4.6-7.47Z"/><polygon class="cls-1" points="433.03 651.38 448.45 651.38 448.45 654.75 436.76 654.75 436.76 660.41 447.92 660.41 447.92 663.82 436.76 663.82 436.76 669.92 448.45 669.92 448.45 673.29 433.03 673.29 433.03 651.38"/><polygon class="cls-1" points="489.18 651.38 493.18 651.38 487.49 673.29 483.36 673.29 479.27 657.44 475.17 673.29 471.07 673.29 465.35 651.38 469.32 651.38 473.14 667.38 477.14 651.38 481.42 651.38 485.46 667.38 489.18 651.38"/><path class="cls-1" d="M508.77,670.23c4.22,0,7.29-3.41,7.29-7.91s-3.06-7.85-7.29-7.85-7.38,3.44-7.38,7.85,3.07,7.91,7.38,7.91M508.65,651.03c6.28,0,11.16,4.91,11.16,11.29s-4.88,11.32-11.16,11.32-11.07-4.88-11.07-11.32,4.79-11.29,11.07-11.29"/><path class="cls-1" d="M530.59,654.75v7.66h4.16c3.12,0,5.1-1.03,5.1-3.85,0-2.66-1.94-3.81-5.1-3.81h-4.16ZM535.12,665.82h-4.53v7.47h-3.72v-21.92h8.35c5.1,0,8.35,2.59,8.35,7.16,0,3.25-1.65,5.6-4.47,6.66l5.04,8.1h-4.41l-4.6-7.47Z"/><polygon class="cls-1" points="550.8 651.38 554.53 651.38 554.53 661.57 562.72 651.38 567.35 651.38 559.93 660.63 568.06 673.29 563.6 673.29 557.37 663.79 554.53 667.26 554.53 673.29 550.8 673.29 550.8 651.38"/><polygon class="cls-1" points="574.74 651.38 590.16 651.38 590.16 654.75 578.47 654.75 578.47 660.41 589.63 660.41 589.63 663.82 578.47 663.82 578.47 669.92 590.16 669.92 590.16 673.29 574.74 673.29 574.74 651.38"/><path class="cls-1" d="M602,654.75v7.66h4.16c3.12,0,5.1-1.03,5.1-3.85,0-2.66-1.94-3.81-5.1-3.81h-4.16ZM606.53,665.82h-4.54v7.47h-3.72v-21.92h8.35c5.1,0,8.35,2.59,8.35,7.16,0,3.25-1.66,5.6-4.47,6.66l5.03,8.1h-4.41l-4.6-7.47Z"/><polygon class="cls-1" points="33.69 610.1 14.63 610.1 14.63 515.97 33.69 515.97 33.69 565.1 51.96 544.3 76 544.3 51.69 571.43 77.07 610.1 53.84 610.1 38.13 585.12 33.69 589.96 33.69 610.1"/><path class="cls-1" d="M102.32,589.56c0,1.7.76,3.11,2.28,4.23,1.52,1.12,3.49,1.68,5.91,1.68,4.3,0,8.24-1.35,11.82-4.04v-7.51c-3.41-.8-6.36-1.21-8.86-1.21-3.49,0-6.23.59-8.19,1.8-1.97,1.22-2.95,2.9-2.95,5.05M105.95,611.59c-6.9,0-12.43-1.94-16.58-5.78-4.17-3.84-6.25-8.86-6.25-15.04,0-6.81,2.51-12.04,7.52-15.72,5.01-3.67,11.19-5.5,18.54-5.5,4.3,0,8.68.63,13.16,1.89v-1.08c0-3.21-.99-5.81-2.96-7.79-1.96-1.96-4.66-2.95-8.05-2.95-6.09,0-10.8,2.55-14.1,7.65l-12.09-11.55c7.26-8.68,16.43-13.01,27.54-13.01,8.24,0,15.13,2.36,20.68,7.11,5.46,4.67,8.19,11.06,8.19,19.2v41.1h-18.94v-4.3c-4.38,3.84-9.93,5.78-16.65,5.78"/><path class="cls-1" d="M163.16,608.09c-2.15-2.24-3.22-4.98-3.22-8.19s1.07-5.95,3.22-8.19c2.24-2.24,4.97-3.35,8.19-3.35s5.96,1.12,8.19,3.35c2.33,2.24,3.49,4.96,3.49,8.19s-1.16,5.96-3.49,8.19c-2.24,2.24-4.97,3.35-8.19,3.35s-5.96-1.12-8.19-3.35M163.16,563.09c-2.15-2.24-3.22-4.96-3.22-8.19s1.07-5.95,3.22-8.19c2.24-2.24,4.97-3.35,8.19-3.35s5.96,1.12,8.19,3.35c2.33,2.24,3.49,4.98,3.49,8.19s-1.16,5.96-3.49,8.19c-2.24,2.24-4.97,3.35-8.19,3.35s-5.96-1.12-8.19-3.35"/><path class="cls-1" d="M230.29,587.13l-8.73-2.15c-14.32-3.58-21.49-10.74-21.49-21.49,0-6.27,2.46-11.28,7.38-15.04,4.93-3.84,10.97-5.77,18.13-5.77,9.94,0,18.76,3.44,26.45,10.34l-11.68,12.35c-5.28-4.3-10.48-6.45-15.58-6.45-1.88,0-3.38.38-4.5,1.14-1.12.77-1.68,1.68-1.68,2.76,0,1.61,1.57,2.78,4.7,3.49l9.8,2.27c14.42,3.41,21.63,10.66,21.63,21.76,0,6.27-2.51,11.37-7.52,15.3-5.01,3.95-11.69,5.92-20.01,5.92-5.91,0-11.48-1.22-16.72-3.63-5.23-2.41-9.28-5.47-12.15-9.14l11.69-11.95c5.99,5.82,12.26,8.73,18.79,8.73,1.97,0,3.7-.4,5.17-1.22,1.48-.8,2.22-1.83,2.22-3.07,0-1.8-1.97-3.18-5.91-4.17"/><path class="cls-1" d="M295.97,559.48c-3.31,0-6.07.89-8.26,2.67-2.19,1.8-3.6,4.17-4.23,7.13h23.63c-.18-2.78-1.29-5.1-3.35-6.99-2.06-1.89-4.66-2.81-7.79-2.81M327.26,576.39l-.14,5.64h-44.59c.54,3.58,2.13,6.5,4.77,8.73,2.64,2.24,5.97,3.35,10.01,3.35,6.72,0,12.09-2.55,16.11-7.65l12.62,11.81c-7.07,8.87-16.47,13.31-28.2,13.31-9.94,0-18.22-3.09-24.84-9.27-6.54-6.27-9.81-14.5-9.81-24.72s3-18.43,8.99-24.98c6.09-6.62,13.88-9.92,23.37-9.92,10.03,0,17.82,3.35,23.36,10.06,5.56,6.81,8.33,14.69,8.33,23.63"/><path class="cls-1" d="M359.49,577.19v32.91h-19.07v-65.8h18.79v4.56c4.21-4.12,9.41-6.17,15.58-6.17,8.24,0,14.77,2.57,19.61,7.72,4.84,5.13,7.25,12.28,7.25,21.42v38.27h-19.2v-36.8c0-3.93-.93-7.06-2.76-9.4-1.83-2.32-4.54-3.49-8.12-3.49-8.06,0-12.09,5.61-12.09,16.79"/><rect class="cls-1" x="460.61" y="515.97" width="9.94" height="94.13"/><path class="cls-1" d="M504.39,610.1h-9.94v-65.8h9.94v65.8ZM494.05,527.23c-1.43-1.52-2.15-3.3-2.15-5.36s.72-3.81,2.15-5.24c1.52-1.43,3.31-2.15,5.37-2.15s3.8.71,5.23,2.15c1.53,1.43,2.29,3.18,2.29,5.24s-.76,3.84-2.29,5.36c-1.43,1.43-3.18,2.15-5.23,2.15s-3.85-.72-5.37-2.15"/><path class="cls-1" d="M528.42,544.3h9.67v8.05c2.24-2.86,5.26-5.19,9.07-6.99,3.81-1.78,7.72-2.67,11.76-2.67,8.41,0,14.88,2.52,19.4,7.58,4.52,5.07,6.78,12.25,6.78,21.56v38.27h-10.07v-39.07c0-6.1-1.48-10.8-4.44-14.11-2.95-3.3-7.08-4.96-12.35-4.96-6.36,0-11.26,2.27-14.71,6.78-3.45,4.53-5.17,10.78-5.17,18.74v32.63h-9.94v-65.8Z"/><path class="cls-1" d="M660.3,610.1h-9.54v-8.33c-5.1,6.55-12.04,9.82-20.81,9.82-16.48,0-24.72-9.68-24.72-29.02v-38.27h9.94v38.67c0,12.8,5.37,19.2,16.11,19.2,6.27,0,11.01-2.17,14.23-6.5,3.22-4.35,4.84-10.6,4.84-18.74v-32.63h9.94v65.8Z"/><polygon class="cls-1" points="721.81 544.3 705.42 568.88 689.18 544.3 677.22 544.3 699.25 576.27 675.61 610.1 687.56 610.1 705.42 583.51 723.42 610.1 735.37 610.1 711.74 576.27 733.76 544.3 721.81 544.3"/></svg>