<svg id="Calque_1" data-name="Calque 1" xmlns="http://www.w3.org/2000/svg" viewBox="0 0 512 512"><defs><style>.cls-1{fill:#333;}</style></defs><title>logo_kaisen-linux-picto-line-black</title><path class="cls-1" d="M160.78,275.17c6.35,9,0,23.4-1.3,25.38.51-2.92-1-9.64-9.13-11.4s-13.38,13-6.44,23.57h-56c10.92-6,27.32-9.35,28.57-20.89.73-6.9-8.75-12.69-16.27-7.88,2.7-7.76,5.4-14.94,35.1-8-26.88-19.38-30.21-28.07,5.05-39-12.09-4.27-32.4-7.77-39.3-1.21.22-3.82,1.85-11.87,7.59-17-5.63-1.23-14.11-2.7-20.92,2.79C87.4,201.13,109.78,202,125,199.28c-15.3,10.13-12.32,19.73.49,21.05C148,222.68,165.79,224.48,168,249c-19-13.38-31.5-2.32-26,7.9C146.27,264.82,154.43,266.14,160.78,275.17Z"/><path class="cls-1" d="M119.74,239.3c-10.3-1.43-13.68,1.8-18.56,4.24-7.46,3.66-10.8-10-3.27-19.65-10.37,2.09-14.07,9.15-16,12.93C80,227,78.07,222,87,205.69c-11.41,8.19-14.75,15.25-19.13,29.79-3.06-4-4.8-13.21.17-21.74-17.83,12.24-5.23,26.78-17.1,48.6-3.24,6-13.08,9.41-16,.05-3.6,13.27,2,25.63,12.71,30.34-.16-4.11.47-8,3.47-11.44.49,2.78.9,5.27,3.2,7.2-.11-3.43,1.85-7.11,3.88-9.9.3,2.7,1.05,4.9,3.18,5.69C68,265,78.75,267.1,79.55,268.35s.9,9.5-3.25,13.72c-6,6.1-14.72,7.35-17.52,8.19.58,2.62,2.79,3.47,5.21,4.38-3.42,2.82-7.2,2.54-11.08,2.22,3.22,7.26,16.37,13.5,23,11.19a65.82,65.82,0,0,1-3.24-6.24c-1.86-4.73.18-8.1,4.87-9,3.91-.74,9.39,1.3,11.76,1.89-4.13-10,6.42-30.89,27.7-27C96.69,251.32,113.74,242,119.74,239.3ZM66.55,255.45c0-4.46,2.16-11.31,3.13-12.43s3.77-.71,8.39,1.55C72,247.92,69.88,250.58,66.55,255.45Z"/><polygon class="cls-1" points="223.21 246.19 214.16 246.19 207.77 253.55 207.77 235.97 200.46 235.97 200.46 271.33 207.77 271.33 207.77 262.99 209.3 261.37 215.77 271.33 224.46 271.33 214.44 256.04 223.21 246.19"/><path class="cls-1" d="M261.73,245.11a4.84,4.84,0,0,0-4.85,4.83v0a4.85,4.85,0,1,0,8.28-3.44A4.7,4.7,0,0,0,261.73,245.11Z"/><path class="cls-1" d="M261.73,262.7a4.85,4.85,0,0,0-4.85,4.83v0a4.86,4.86,0,1,0,4.87-4.85Z"/><path class="cls-1" d="M287.16,256a17.81,17.81,0,0,1-3.76-1.8c-.57-.43-.57-.76-.57-.9,0-.5,0-1.33,1.91-1.33a6.56,6.56,0,0,1,4.33,1.33l1,.9,2.32-6.3-.74-.38a15.78,15.78,0,0,0-7.25-1.74,10.7,10.7,0,0,0-6.44,1.87,6.39,6.39,0,0,0-2.7,5.46c0,3.4,2.21,6,6.58,7.86a13.56,13.56,0,0,1,3.46,1.8,1.87,1.87,0,0,1,.64,1.48c0,.46,0,1.32-2.23,1.32a7.62,7.62,0,0,1-4.92-1.73l-.94-.75-2.8,6.24.76.41a19.64,19.64,0,0,0,3.8,1.64,15.61,15.61,0,0,0,4,.4,11.31,11.31,0,0,0,7.1-2.05,7,7,0,0,0,2.77-5.83,7.53,7.53,0,0,0-1.55-4.73A11.08,11.08,0,0,0,287.16,256Z"/><path class="cls-1" d="M311.4,245.75a12.11,12.11,0,0,0-8.82,3.69,13.05,13.05,0,0,0-3.67,9.57c0,4,1.14,7.11,3.37,9.36a12.27,12.27,0,0,0,9.08,3.39c8.61,0,11.39-4.93,11.39-4.93l-4.69-4.05-.9.9a6.73,6.73,0,0,1-5,1.67,6,6,0,0,1-4.13-1.27,4.56,4.56,0,0,1-1.47-2.7h16C324.63,247.76,315,245.75,311.4,245.75ZM307,255.4a4.39,4.39,0,0,1,4.5-3.23c2.52,0,4,1,4.5,3.23Z"/><path class="cls-1" d="M394.27,239.27a2.52,2.52,0,0,0-2.54,2.51v0a2.56,2.56,0,0,0,2.55,2.55,2.55,2.55,0,0,0,2.56-2.53v0a2.54,2.54,0,0,0-2.56-2.53h0Z"/><path class="cls-1" d="M444.83,264.4a5.65,5.65,0,0,1-2.24,2.7,6.4,6.4,0,0,1-3.74,1.17q-4.67,0-4.67-5.4v-14.8h-4.12v15.3a8.88,8.88,0,0,0,2,6.23,7.62,7.62,0,0,0,5.9,2.16,8.38,8.38,0,0,0,4.09-1.13,6.52,6.52,0,0,0,2.79-2.51v3.21H449V248.07h-4.14Z"/><polygon class="cls-1" points="468.87 259.43 477.32 248.07 472.75 248.07 466.91 256.06 461.7 248.07 457.05 248.07 464.81 259.43 456.36 271.33 461.18 271.33 466.85 262.86 473.2 271.33 478.13 271.33 468.87 259.43"/><rect class="cls-1" x="392" y="248.07" width="4.13" height="23.26"/><path class="cls-1" d="M350.06,248.53c-4.5-4.38-9.77-2.27-12.3-.71v-1.63h-7.31v25.14h7.31V254.85a5.21,5.21,0,0,1,1.59-1.16,4.84,4.84,0,0,1,2.13-.57,3.71,3.71,0,0,1,3,1.06,6,6,0,0,1,.9,3.74v13.41h7.31V257.06C352.72,253.85,351.88,250.31,350.06,248.53Z"/><rect class="cls-1" x="378.4" y="238.54" width="4.13" height="32.81"/><path class="cls-1" d="M408.46,249.85v-1.8h-4.13v23.28h4.13V256.19c0-1.72.9-4.79,5.32-4.79s4.87,3.92,4.87,6.4v13.5h4.13V256.9C422.78,245,408.7,247.18,408.46,249.85Z"/><path class="cls-1" d="M201.64,286.49v1.89h2.85v1.23h-2.85v3.72h-1.45v-8.1h5.4v1.26Z"/><path class="cls-1" d="M208.48,289.2a4.64,4.64,0,0,1,1-2.94,3.13,3.13,0,0,1,2.55-1.2,3.33,3.33,0,0,1,2.7,1.09,4.6,4.6,0,0,1,.9,3.05,4.68,4.68,0,0,1-1,3.12,3.42,3.42,0,0,1-2.7,1.15,2.93,2.93,0,0,1-2.51-1.14A5,5,0,0,1,208.48,289.2Zm1.5,0a4.24,4.24,0,0,0,.49,2.21,1.52,1.52,0,0,0,1.4.78,1.91,1.91,0,0,0,1.65-.77,3.7,3.7,0,0,0,.57-2.22c0-1.9-.71-2.86-2.11-2.86a1.64,1.64,0,0,0-1.48.78A3.61,3.61,0,0,0,210,289.2Z"/><path class="cls-1" d="M223.49,293.34,221.32,290h-.9v3.4h-1.49v-8.1h.9c.54,0,1,0,1.31,0,2.06,0,3.09.79,3.1,2.39a2.28,2.28,0,0,1-.42,1.32,2.35,2.35,0,0,1-1.08.84l2.4,3.66Zm-3.09-6.88v2.26H221a2.62,2.62,0,0,0,1.32-.25,1.06,1.06,0,0,0,.42-1,.89.89,0,0,0-.45-.85,3.27,3.27,0,0,0-1.42-.23A4.1,4.1,0,0,0,220.4,286.46Z"/><path class="cls-1" d="M234.8,290.34v3h-1.44v-8.1c1,0,1.53-.07,1.7-.07a5.15,5.15,0,0,1,2.8.6,2,2,0,0,1,.9,1.84c0,1.86-1.09,2.8-3.29,2.8C235.3,290.38,235.08,290.37,234.8,290.34Zm0-3.88v2.6h.59a2.51,2.51,0,0,0,1.44-.32,1.24,1.24,0,0,0,.45-1.08c0-.85-.68-1.26-2-1.26Z"/><path class="cls-1" d="M246.67,293.34,244.48,290h-.9v3.4h-1.49v-8.1h.9c.54,0,1,0,1.31,0,2.06,0,3.09.79,3.1,2.39a2.39,2.39,0,0,1-1.51,2.16l2.41,3.66Zm-3.09-6.88v2.26h.61a2.6,2.6,0,0,0,1.32-.25,1.06,1.06,0,0,0,.42-1,.91.91,0,0,0-.45-.85,3.25,3.25,0,0,0-1.41-.23A3.86,3.86,0,0,0,243.58,286.46Z"/><path class="cls-1" d="M250.68,289.2a4.54,4.54,0,0,1,1-2.94,3,3,0,0,1,2.54-1.2,3.33,3.33,0,0,1,2.7,1.09,4.6,4.6,0,0,1,.9,3.05,4.68,4.68,0,0,1-1,3.12,3.38,3.38,0,0,1-2.75,1.15,3,3,0,0,1-2.51-1.14A5.08,5.08,0,0,1,250.68,289.2Zm1.49,0a4.24,4.24,0,0,0,.49,2.21,1.56,1.56,0,0,0,1.4.78,1.92,1.92,0,0,0,1.66-.77,3.7,3.7,0,0,0,.57-2.22c0-1.9-.7-2.86-2.12-2.86a1.65,1.65,0,0,0-1.47.78A3.7,3.7,0,0,0,252.17,289.2Z"/><path class="cls-1" d="M262.55,286.49v1.89h2.85v1.23h-2.85v3.72H261.1v-8.1h5.4v1.26Z"/><path class="cls-1" d="M271.23,286.49v1.89h2.7v1.23h-2.7V292h3.68v1.29h-5.12v-8.1H275v1.26Z"/><path class="cls-1" d="M277.91,292.88l.53-1.3a2.91,2.91,0,0,0,1.68.6c.85,0,1.27-.3,1.27-.9a1.27,1.27,0,0,0-.3-.79,3.85,3.85,0,0,0-1.23-.84,6,6,0,0,1-1.26-.78,2.05,2.05,0,0,1-.51-.72,2.48,2.48,0,0,1-.17-.9,2,2,0,0,1,.69-1.56,2.53,2.53,0,0,1,1.8-.62,3.17,3.17,0,0,1,2.07.53l-.43,1.24a2.77,2.77,0,0,0-1.61-.55,1,1,0,0,0-.77.27.89.89,0,0,0-.28.68c0,.46.51.95,1.55,1.45a5.57,5.57,0,0,1,1.18.74,2.51,2.51,0,0,1,.55.78,2.6,2.6,0,0,1,.19,1,2,2,0,0,1-.79,1.63,3.2,3.2,0,0,1-2.09.64A3.8,3.8,0,0,1,277.91,292.88Z"/><path class="cls-1" d="M285.76,292.88l.53-1.3a3,3,0,0,0,1.69.6c.84,0,1.27-.3,1.27-.9a1.27,1.27,0,0,0-.3-.79,4,4,0,0,0-1.24-.84,6.3,6.3,0,0,1-1.26-.78,1.91,1.91,0,0,1-.5-.72,2.48,2.48,0,0,1-.17-.9,2,2,0,0,1,.68-1.56,2.54,2.54,0,0,1,1.8-.62,3.17,3.17,0,0,1,2.07.53l-.43,1.24a2.68,2.68,0,0,0-1.61-.55,1,1,0,0,0-.77.27.88.88,0,0,0-.27.68c0,.46.51.95,1.55,1.45a5.26,5.26,0,0,1,1.17.74,2.22,2.22,0,0,1,.55.78,2.42,2.42,0,0,1,.19,1,2,2,0,0,1-.78,1.63,3.2,3.2,0,0,1-2.09.64A3.83,3.83,0,0,1,285.76,292.88Z"/><path class="cls-1" d="M294,293.34v-8.1h1.44v8.1Z"/><path class="cls-1" d="M298.82,289.2a4.6,4.6,0,0,1,1-2.94,3.09,3.09,0,0,1,2.54-1.2,3.32,3.32,0,0,1,2.7,1.09,4.55,4.55,0,0,1,.9,3.05,4.68,4.68,0,0,1-1,3.12,3.39,3.39,0,0,1-2.75,1.15,2.93,2.93,0,0,1-2.51-1.14A5,5,0,0,1,298.82,289.2Zm1.5,0a4.36,4.36,0,0,0,.48,2.21,1.57,1.57,0,0,0,1.41.78,1.92,1.92,0,0,0,1.65-.77,3.7,3.7,0,0,0,.57-2.22c0-1.9-.7-2.86-2.11-2.86a1.65,1.65,0,0,0-1.48.78,3.77,3.77,0,0,0-.52,2.08Z"/><path class="cls-1" d="M314.58,293.44l-3.94-5.14v5h-1.36v-8.1H310l3.84,4.9V285.2h1.39v8.24Z"/><path class="cls-1" d="M323.63,293.34l-.6-1.66h-2.78l-.57,1.66h-1.61l3.25-8.25H322l3.27,8.25Zm-2-5.76-1,3h1.95Z"/><path class="cls-1" d="M328.13,293.34v-8.1h1.44v6.85h3.67v1.28Z"/><path class="cls-1" d="M341.53,293.34v-8.1H343v8.1Z"/><path class="cls-1" d="M350,286.49v6.85h-1.44v-6.85H346V285.2h6.73v1.29Z"/><path class="cls-1" d="M244.84,248.44c-1.8-1.8-4.67-2.7-8.45-2.7a16.42,16.42,0,0,0-7.08,1.44l-.71.35,1.7,6.06,1-.5a10.66,10.66,0,0,1,4.72-.9c2.78,0,3.77.9,4.1,2a7.49,7.49,0,0,0-1.17-.09c-3.91,0-7,.82-9.18,2.46a8.43,8.43,0,0,0-3.4,7.08,7.64,7.64,0,0,0,2.47,6,9.56,9.56,0,0,0,6.52,2.1,10.69,10.69,0,0,0,4.21-.84,7.54,7.54,0,0,0,2-1.2v2h7.32v-13.5A13.53,13.53,0,0,0,244.84,248.44Zm-3.27,15.26c-4.71,3.66-7.61,1.21-7.59-1,0-2.41,3-3.93,7.59-1.85Z"/></svg>