<svg width="512" height="512" viewBox="0 0 1024 1024" fill="none" xmlns="http://www.w3.org/2000/svg">
<path d="M377.226 230.685C380.996 229.407 383.59 227.279 385.006 224.301C401.307 190.141 420.931 157.924 443.878 127.652C474.533 87.1882 525.156 45.4925 578.294 44.4151C594.893 44.0985 627.24 48.2909 641.398 56.9798C670.137 74.6475 683.922 116.157 685.302 147.881C685.454 151.581 686.665 154.253 688.934 155.898C689.348 156.201 689.83 156.399 690.339 156.478C690.849 156.557 691.372 156.515 691.866 156.353C696.923 154.703 702.379 153.748 707.142 151.678C725.681 143.706 743.873 133.932 762.655 127.317C774.757 123.065 787.228 117.932 799.609 115.717C815.677 112.857 830.772 111.782 846.872 110.113C856.456 109.122 865.174 108.948 873.027 109.593C891.248 111.097 902.483 115.904 918.916 119.847C946.093 126.436 962.558 146.211 982.249 164.498C1001.62 182.514 1010.57 201.113 1015.06 225.01C1019.46 248.462 1018.15 271.207 1011.12 293.245C1006.83 306.634 998.894 321.107 987.31 336.664C966.145 365.009 946.963 383.25 915.836 409.721C894.291 428.028 873.692 450.19 850.362 465.829C835.551 475.773 823.664 489.513 807.937 497.133C794.411 503.711 784.505 514.732 771.479 522.449C760.422 528.981 751.175 537.69 740.418 543.875C727.416 551.359 712.874 562.127 703.094 568.463C681.439 582.496 659.713 596.416 637.917 610.224C630.728 614.787 622.246 618.801 614.353 623.527C613.485 624.055 612.454 624.23 611.476 624.015C610.498 623.799 609.649 623.21 609.107 622.371C601.405 610.325 596.376 596.588 588.949 584.686C583.221 575.453 579.064 566.701 572.036 557.812C567.505 552.068 562.089 544.432 555.79 534.905C543.317 516.076 522.03 495.393 500.185 482.616C492.5 478.145 485.404 472.152 478.183 468.225C461.976 459.426 450.983 454.543 445.204 453.575C423.024 449.87 402.352 443.965 378.84 444.052C361.754 444.101 343.059 448.096 325.005 449.292C320.648 449.588 311.973 452.08 298.981 456.768C257.7 471.728 223.556 492.808 188.975 520.111C188.553 520.443 188.062 520.675 187.54 520.787C187.019 520.898 186.482 520.887 185.973 520.754C185.463 520.621 184.995 520.37 184.606 520.021C184.217 519.671 183.918 519.234 183.732 518.742C183.288 517.559 183.192 516.32 183.445 515.024C183.616 514.062 183.428 513.08 182.916 512.267C177.901 504.298 172.188 498.299 168.629 489.281C164.986 480.093 159.359 471.476 155.986 463.071C146.033 438.363 133.801 411.485 129.696 384.75C127.119 368.031 124.379 351.349 121.476 334.707C120.565 329.426 121.403 321.196 121.529 314.15C121.909 295.146 126.78 278.299 136.144 263.607C146.125 247.981 153.349 238.658 157.816 235.636C175.902 223.438 189.482 210.815 212.878 206.879C236.275 202.943 259.604 197.05 283.114 202.071C314.396 208.773 344.319 220.013 374.333 230.655C375.28 230.992 376.245 231.002 377.226 230.685Z" fill="white"/>
<path d="M273.237 623.609C248.335 629.362 226.267 641.87 203.089 652.335C197.763 654.735 192.408 657.965 187.025 662.026C176.894 669.646 165.824 675.092 156.795 683.201C149.246 689.985 141.986 696.912 135.016 703.982C133.141 705.876 132.244 705.517 132.324 702.905C132.57 691.814 141.244 680.476 144.434 673.414C149.381 662.51 153.535 654.755 156.894 650.152C164.648 639.491 173.312 622.047 184.936 609.163C201.009 591.293 217.833 574.168 235.41 557.788C247.424 546.578 261.097 540.274 275.087 531.708C297.164 518.178 320.233 508.807 344.294 503.596C361.753 499.837 386.713 504.404 404.04 508.415C434.001 515.355 462.175 531.948 486.806 549.758C493.657 554.692 500.343 561.396 507.079 567.247C526.52 584.056 541.659 602.934 552.497 623.88C560.803 639.915 562.74 659.137 565.691 676.871C567.993 690.829 563.897 701.803 562.416 715.408C562.366 715.871 562.187 716.313 561.9 716.686C561.613 717.058 561.229 717.345 560.792 717.513C560.355 717.681 559.884 717.724 559.431 717.637C558.978 717.55 558.562 717.336 558.231 717.02C546.216 705.73 533.107 695.602 518.901 686.637C506.862 679.015 498.061 668.415 486.16 661.96C465.704 650.858 445.052 637.803 423.945 630.566C413.126 626.871 402.14 623.726 390.985 621.13C371.598 616.626 349.751 616.128 328.913 614.652C310.541 613.343 291.188 619.479 273.237 623.609Z" fill="white"/>
<path d="M4.09 961.438C7.55099 940.475 16.3196 918.411 24.8109 898.863C32.4697 881.224 45.0454 859.335 62.5381 833.196C75.56 813.795 92.8716 795.335 108.168 776.167C110.979 772.68 114.328 769.339 118.214 766.144C131.373 755.381 142.965 743.754 155.617 732.532C165.395 723.876 177.068 717.609 188.07 710.122C193.293 706.589 199.217 703.121 205.843 699.717C214.093 695.517 221.99 690.238 230.212 686.825C251.802 677.837 269.612 675.327 290.165 670.551C303.483 667.474 323.346 666.237 349.752 666.84C365.92 667.213 382.875 669.982 400.617 675.148C413.711 678.963 426.541 686.294 439.403 692.326C467.734 705.554 494.583 725.216 516.99 749.154C521.684 754.172 529.25 764.036 539.688 778.747C545.755 787.271 551.831 797.221 557.915 808.596C565.284 822.415 573.921 837.019 580 849.905C597.238 886.519 609.067 925.449 615.484 966.695C615.629 967.626 615.533 968.581 615.205 969.467C614.246 972.067 612.673 972.601 610.488 971.068C595.474 960.53 580.819 949.531 566.522 938.071C550.253 925.017 535.233 915.174 518.537 904.746C511.787 900.513 503.785 898.261 497.457 894.487C469.686 878.049 440.752 864.024 410.654 852.412C383.83 842.092 353.185 837.824 324.068 831.719C316.231 830.06 305.92 829.171 297.726 829.434C265.993 830.401 237.366 829.117 203.981 838.883C170.788 848.624 140.815 857.558 111.88 876.709C101.886 883.305 91.6938 888.16 82.5198 895.825C55.9842 917.952 25.9474 936.571 6.79754 965.664C6.64789 965.885 6.44076 966.062 6.19933 966.174C5.95791 966.286 5.69183 966.329 5.43112 966.298C5.17041 966.268 4.92539 966.165 4.72369 966.001C4.52198 965.838 4.3715 965.619 4.28937 965.372C3.91667 964.201 3.85028 962.89 4.09 961.438Z" fill="white"/>
</svg>
