<?xml version="1.0" encoding="UTF-8"?><svg id="Calque_1" xmlns="http://www.w3.org/2000/svg" viewBox="0 0 512 512"><defs><style>.cls-1{fill:#00fcfb;stroke-width:0px;}</style></defs><polygon class="cls-1" points="281.72 174.74 291.95 160.21 284.93 145.02 242.04 164.07 236.28 190.47 265.08 201.23 281.72 174.74"/><path class="cls-1" d="M511.98,94.71C511.26,42.28,468.53,0,415.93,0H96.07C43.01,0,0,43.01,0,96.07v319.86C0,468.99,43.01,512,96.07,512h319.86c53.06,0,96.07-43.01,96.07-96.07V94.75l-.02-.03ZM494.87,307.99c-16.59,9.16-41.43,22.88-56.73,31.36h0c1.75-26.46.6-28.56,2.4-57.85-4.34,32.2-4.1,34.28-8.14,66.51l4.16-2.18c15.76-8.22,41.38-21.62,58.33-30.49v100.59c0,43.53-35.41,78.94-78.94,78.94H96.07c-43.53,0-78.94-35.41-78.94-78.94V96.07c0-43.53,35.41-78.94,78.94-78.94h155.28c-19.46,25.84-38.88,51.7-58.24,77.61,26.19-.97,27.78-2.28,53.97-3.6-22.44-1.13-24.02-1.05-43.15-1.71h0c19.17-24.06,38.26-48.17,57.31-72.31h61.76l-18.8,81.45,8.88,66.04-49.44,79.69-66.17,59.51-83.09,35.75,3.53,1.93,82.37-25.66,49.26-33.47,3.78-.33-22.16,62.63,5.85,89.5,4.29,1.39,2.41-89.07,32.72-66.7,111.4-96.07,49.84,40.41,57.19-9.23v93.08Z"/><polygon class="cls-1" points="339.69 263.37 352.56 303.23 389.68 303.23 402.05 229.28 377.31 223.5 339.69 263.37"/></svg>