<?xml version="1.0" encoding="UTF-8"?><svg id="Calque_1" xmlns="http://www.w3.org/2000/svg" viewBox="0 0 512 512"><defs><style>.cls-1{fill:#e6e6e6;stroke-width:0px;}</style></defs><polygon class="cls-1" points="281.72 174.74 291.95 160.21 284.93 145.02 242.04 164.07 236.28 190.47 265.08 201.23 281.72 174.74"/><polygon class="cls-1" points="339.69 263.37 352.56 303.23 389.68 303.23 402.05 229.28 377.31 223.5 339.69 263.37"/><path class="cls-1" d="M256,0h0C114.61,0,0,114.62,0,256h0c0,141.39,114.61,256,256,256h0c141.38,0,256-114.61,256-256h0C512,114.62,397.39,0,256,0ZM424.9,424.9c-21.94,21.94-47.49,39.17-75.93,51.2-29.44,12.45-60.72,18.76-92.97,18.76s-63.53-6.31-92.97-18.76c-28.44-12.03-53.99-29.26-75.93-51.2-21.94-21.94-39.17-47.49-51.2-75.93-12.45-29.44-18.76-60.72-18.76-92.97s6.31-63.53,18.76-92.97c12.03-28.44,29.26-53.99,51.2-75.93,21.94-21.94,47.49-39.17,75.93-51.2,28-11.84,57.68-18.12,88.27-18.71-19.44,25.82-38.84,51.67-58.18,77.55,26.19-.97,27.78-2.28,53.97-3.6-22.44-1.13-24.02-1.05-43.15-1.71h0c19.15-24.05,38.24-48.13,57.27-72.25,20.4.43,40.38,3.39,59.74,8.86l-16.74,72.53,8.88,66.04-49.44,79.69-66.17,59.51-83.09,35.75,3.53,1.93,82.37-25.66,49.26-33.47,3.78-.33-22.16,62.63,5.85,89.5,4.29,1.39,2.41-89.07,32.72-66.7,111.4-96.07,49.84,40.41,53.77-8.68c2.27,13.29,3.42,26.83,3.42,40.54,0,18.92-2.19,37.5-6.5,55.58-16.09,8.89-36.82,20.34-50.23,27.77h0c1.75-26.46.6-28.56,2.4-57.85-4.34,32.2-4.1,34.28-8.14,66.51l4.16-2.18c13.27-6.92,33.52-17.51,49.7-25.98-2.74,9.88-6.11,19.6-10.14,29.12-12.03,28.44-29.26,53.99-51.2,75.93Z"/></svg>