<?xml version="1.0" encoding="UTF-8"?><svg id="Calque_1" xmlns="http://www.w3.org/2000/svg" viewBox="0 0 512 512"><defs><style>.cls-1{fill:#fff;stroke-width:0px;}</style></defs><polygon class="cls-1" points="371.86 243.55 376.87 195.91 338.22 162.18 290.95 166.7 256.71 103.44 206.19 123.83 201.68 166.01 160.49 178.9 242.17 211.17 255.31 302.53 298.29 295.52 394.05 318.89 452.85 289.79 371.86 243.55"/><polygon class="cls-1" points="130.98 190.69 104.3 192.9 70.18 204.34 100.24 204.34 186.7 248.88 196.5 339.74 224.83 311.38 217.8 231.34 130.98 190.69"/><path class="cls-1" d="M256,1.14h0C115.25,1.14,1.14,115.25,1.14,256c0,32.57,6.34,63.59,17.47,92.22l.08.88.5.7c37.39,94.28,129.21,161.06,236.8,161.06h0c140.75,0,254.86-114.1,254.86-254.86S396.75,1.14,256,1.14ZM256,491.6c-69.15,0-131.24-30.13-174.38-77.73l-2.95-88.83-56.55-41.7c-1.04-8.99-1.72-18.08-1.72-27.34,0-3.21.35-6.34.48-9.52l1.14-.17,89.01,63.55,4.46,110.93,51.12-51.16v-98.91l-100.51-49.86-37.51,5.88-6.58,2.66C35.27,111.99,135.09,20.4,256,20.4c129.91,0,235.6,105.69,235.6,235.6s-105.69,235.6-235.6,235.6Z"/></svg>