<?xml version="1.0" encoding="UTF-8"?><svg id="Calque_1" xmlns="http://www.w3.org/2000/svg" viewBox="0 0 512 512"><defs><style>.cls-1{fill:#fff;stroke-width:0px;}</style></defs><path class="cls-1" d="M0,255.15l19.75-7.98,40.43-6.34,108.33,53.73v106.61l-55.1,55.14-4.8-119.56L12.68,268.26,0,270.09v28.65l73.73,54.37,4.34,130.5-28.01,28.4H0V255.15ZM200.72,368.95l-10.56-97.93-93.18-48h-32.4l36.77-12.33,28.76-2.38,93.57,43.81,7.59,86.27-30.54,30.57ZM413.65,346.47l-103.21-25.19-46.32,7.55-14.17-98.47-88.03-34.78,44.4-13.89,4.86-45.46,54.45-21.97,36.9,68.17,50.95-4.87,41.65,36.36-5.39,51.34,87.28,49.84-63.37,31.37Z"/></svg>