<?xml version="1.0" encoding="UTF-8"?><svg id="Calque_1" xmlns="http://www.w3.org/2000/svg" viewBox="0 0 512 512"><defs><style>.cls-1{fill:#00fcfb;stroke-width:0px;}</style></defs><polygon class="cls-1" points="376.87 195.91 338.22 162.18 290.95 166.7 256.71 103.44 206.19 123.83 201.68 166.01 160.49 178.9 242.17 211.17 255.31 302.53 298.29 295.52 394.05 318.89 452.85 289.79 371.86 243.55 376.87 195.91"/><polygon class="cls-1" points="130.98 190.69 104.3 192.9 70.18 204.34 100.24 204.34 186.7 248.88 196.5 339.74 224.83 311.38 217.8 231.34 130.98 190.69"/><path class="cls-1" d="M416.29,1.14H95.71C43.56,1.14,1.14,43.56,1.14,95.71v320.59c0,52.15,42.42,94.57,94.57,94.57h320.59c52.15,0,94.57-42.42,94.57-94.57V95.71c0-52.15-42.42-94.57-94.57-94.57ZM494.35,416.29c0,43.04-35.01,78.06-78.06,78.06H95.71c-17.12,0-32.83-5.7-45.71-15.08l32.7-33.15-4.02-121.08-61.02-45v-33.09l4.38-.63,89.01,63.55,4.46,110.93,51.12-51.16v-98.91l-100.51-49.86-37.51,5.88-10.94,4.42V95.71c0-43.04,35.01-78.06,78.06-78.06h320.59c43.04,0,78.06,35.01,78.06,78.06v320.59Z"/></svg>