<?xml version="1.0" encoding="UTF-8"?><svg id="Calque_1" xmlns="http://www.w3.org/2000/svg" viewBox="0 0 512 512"><defs><style>.cls-1{fill:#91130b;}.cls-1,.cls-2{stroke-width:0px;}.cls-2{fill:#000;}</style></defs><rect class="cls-1" x="0" y="0" width="512" height="512" rx="256" ry="256"/><polygon class="cls-2" points="189.46 342.81 240.8 334.44 355.2 362.36 425.44 327.59 328.69 272.35 334.67 215.45 288.51 175.15 232.03 180.55 191.13 104.99 130.78 129.34 125.4 179.73 76.19 195.13 173.75 233.67 189.46 342.81"/><path class="cls-2" d="M72.2,434.29l11.3-11.31v-118.16L0,263.41c1.89,66.39,29.04,126.44,72.2,170.89Z"/><path class="cls-2" d="M3.37,213.76c-.65,3.89-1.21,7.81-1.68,11.76h2.51l103.28,53.21,11.71,108.55,33.85-33.88-8.41-95.62-103.71-48.55-31.88,2.64-5.69,1.91Z"/></svg>