<?xml version="1.0" encoding="UTF-8"?><svg id="Calque_1" xmlns="http://www.w3.org/2000/svg" viewBox="0 0 512 512"><defs><style>.cls-1{fill:#000;stroke-width:0px;}</style></defs><path class="cls-1" d="M436.22,345.7l-4.16,2.18c4.04-32.23,3.8-34.31,8.14-66.51-1.79,29.29-.65,31.4-2.4,57.85h0c7.86-4.35,21.8-12.07,37.15-20.57,5.78-20.25,8.71-41.23,8.71-62.66,0-13.5-1.16-26.82-3.46-39.89l-42.86,7.9-49.84-40.41-111.4,96.07-32.72,66.7-2.41,89.07-4.29-1.39-5.85-89.5,22.16-62.63-3.78.33-49.26,33.47-82.37,25.66-3.53-1.93,83.09-35.75,66.17-59.51,49.44-79.69-8.88-66.04,16.76-61.06c-20.96-6.23-42.72-9.39-64.97-9.39-1.15,0-2.3.03-3.44.04-18.67,23.58-37.14,46.86-48.62,61.26h0c19.13.67,20.71.59,43.15,1.72-26.19,1.31-27.78,2.63-53.97,3.6,11.2-14.98,30.09-40.33,49.4-66.22-26.03,1.5-51.29,7.36-75.26,17.5-27.15,11.48-51.53,27.93-72.48,48.87s-37.39,45.33-48.87,72.48c-11.88,28.09-17.91,57.95-17.91,88.74s6.02,60.65,17.91,88.74c11.48,27.15,27.93,51.53,48.87,72.48,20.95,20.95,45.33,37.39,72.48,48.87,28.09,11.88,57.95,17.91,88.74,17.91s60.65-6.02,88.74-17.91c27.15-11.48,51.53-27.93,72.48-48.87,20.95-20.95,37.39-45.33,48.87-72.48,2.46-5.82,4.66-11.72,6.61-17.68-15,7.7-28.48,14.64-36.16,18.64ZM241.72,163.95l42.89-19.05,7.02,15.18-10.23,14.53-16.64,26.49-28.81-10.76,5.76-26.4ZM389.36,303.11h-37.12l-12.87-39.87,37.61-39.87,24.74,5.78-12.37,73.96Z"/><path class="cls-1" d="M252.24,28.04c1.15-.02,2.29-.04,3.44-.04,22.25,0,44.01,3.16,64.97,9.39l7.41-27c-17.36-5.11-35.47-8.43-54.15-9.74-6.98,8.83-14.34,18.13-21.67,27.39Z"/><path class="cls-1" d="M507.74,211.04l-27.52,5.07c2.3,13.07,3.46,26.39,3.46,39.89,0,21.43-2.93,42.41-8.71,62.66,10.79-5.97,22.28-12.32,32.83-18.16-.55,3.14-1.17,6.25-1.84,9.35-10.91,5.58-22.65,11.6-33.57,17.2-1.96,5.96-4.15,11.86-6.61,17.68-11.48,27.15-27.93,51.53-48.87,72.48-20.95,20.95-45.33,37.39-72.48,48.87-28.09,11.88-57.95,17.91-88.74,17.91s-60.65-6.02-88.74-17.91c-27.15-11.48-51.53-27.93-72.48-48.87-20.95-20.95-37.39-45.33-48.87-72.48-11.88-28.09-17.91-57.95-17.91-88.74s6.02-60.65,17.91-88.74c11.48-27.15,27.93-51.53,48.87-72.48s45.33-37.39,72.48-48.87c23.97-10.14,49.23-16,75.26-17.5,7.1-9.52,14.26-19.11,21.12-28.28-2.54-.07-5.08-.12-7.64-.12h0C114.29,0-.32,114.61-.32,256H-.32c0,141.39,114.61,256,256,256h0c141.38,0,256-114.61,256-256h0c0-15.34-1.35-30.36-3.94-44.96Z"/></svg>