<?xml version="1.0" encoding="UTF-8"?><svg id="Calque_1" xmlns="http://www.w3.org/2000/svg" viewBox="0 0 512 512"><defs><style>.cls-1{fill:#7f7f7f;stroke-width:0px;}</style></defs><path class="cls-1" d="M511.95,212.15l-74.28,11.98-49.84-40.41-111.4,96.07-32.72,66.7-2.41,89.07-4.29-1.39-5.85-89.5,22.16-62.63-3.78.33-49.26,33.47-82.37,25.66-3.53-1.93,83.09-35.75,66.17-59.51,49.44-79.69-8.88-66.04L326.96,0h-52.18c-23.53,29.88-47.14,59.69-70.84,89.43h0c19.13.67,20.71.59,43.15,1.72-26.19,1.31-27.78,2.63-53.97,3.6,23.64-31.64,47.34-63.22,71.13-94.75H96.07C43.01,0,0,43.01,0,96.07v319.86c0,53.06,43.01,96.07,96.07,96.07h319.86c53.06,0,96.07-43.01,96.07-96.07v-109.56s-50.29,26.34-75.46,39.46l-4.16,2.18c4.04-32.23,3.8-34.31,8.14-66.51-1.79,29.29-.65,31.4-2.4,57.85h0c24.61-13.64,73.87-40.82,73.87-40.82M242.04,164.07l42.89-19.05,7.02,15.18-10.23,14.53-16.64,26.49-28.81-10.76,5.76-26.4ZM389.68,303.23h-37.12l-12.87-39.87,37.61-39.87,24.74,5.78-12.37,73.96Z"/></svg>