<?xml version="1.0" encoding="UTF-8"?><svg id="Calque_1" xmlns="http://www.w3.org/2000/svg" viewBox="0 0 512 512"><defs><style>.cls-1{fill:#91130b;}.cls-1,.cls-2{stroke-width:0px;}.cls-2{fill:#fff;}</style></defs><path class="cls-1" d="M96.07,12.5h319.86c46.12,0,83.57,37.45,83.57,83.57v319.86c0,46.12-37.45,83.57-83.57,83.57H96.07c-46.12,0-83.57-37.45-83.57-83.57V96.07C12.5,49.95,49.95,12.5,96.07,12.5Z"/><path class="cls-2" d="M415.93,25c39.19,0,71.07,31.88,71.07,71.07v319.86c0,39.19-31.88,71.07-71.07,71.07H96.07c-39.19,0-71.07-31.88-71.07-71.07V96.07c0-39.19,31.88-71.07,71.07-71.07h319.86M415.93,0H96.07C43.01,0,0,43.01,0,96.07v319.86c0,53.06,43.01,96.07,96.07,96.07h319.86c53.06,0,96.07-43.01,96.07-96.07V96.07c0-53.06-43.01-96.07-96.07-96.07h0Z"/><path class="cls-2" d="M415.93,25c39.19,0,71.07,31.88,71.07,71.07v319.86c0,39.19-31.88,71.07-71.07,71.07H96.07c-39.19,0-71.07-31.88-71.07-71.07V96.07c0-39.19,31.88-71.07,71.07-71.07h319.86M415.93,0H96.07C43.01,0,0,43.01,0,96.07v319.86c0,53.06,43.01,96.07,96.07,96.07h319.86c53.06,0,96.07-43.01,96.07-96.07V96.07c0-53.06-43.01-96.07-96.07-96.07h0Z"/><polygon class="cls-2" points="324.29 280.17 330.55 220.61 282.23 178.43 223.11 184.08 180.3 104.99 117.13 130.48 111.49 183.22 59.99 199.34 162.11 239.68 178.55 353.92 232.29 345.16 352.04 374.38 425.56 337.99 324.29 280.17"/><path class="cls-2" d="M0,409.3l.75,18.68c2.52,20.12,11.25,38.3,24.22,52.56l42.67-42.7v-123.68L0,280.61v128.69Z"/><polygon class="cls-2" points="23.09 214.09 0 216 0 239.06 92.75 286.84 105.01 400.46 140.44 364.99 131.64 264.91 23.09 214.09"/></svg>