<?xml version="1.0" encoding="UTF-8"?><svg id="Calque_1" xmlns="http://www.w3.org/2000/svg" viewBox="0 0 512 512"><defs><style>.cls-1{fill:#000;}.cls-1,.cls-2{stroke-width:0px;}.cls-2{fill:#7f7f7f;}</style></defs><rect class="cls-2" width="512" height="512" rx="96.07" ry="96.07"/><polygon class="cls-1" points="236.28 190.47 265.08 201.23 281.72 174.74 291.95 160.21 284.93 145.02 242.04 164.07 236.28 190.47"/><polygon class="cls-1" points="339.69 263.37 352.56 303.23 389.68 303.23 402.05 229.28 377.31 223.5 339.69 263.37"/><path class="cls-1" d="M438.13,339.35h0c1.75-26.46.6-28.56,2.4-57.85-4.34,32.2-4.1,34.28-8.14,66.51l4.16-2.18c25.17-13.12,75.46-39.46,75.46-39.46v-7.83s-49.26,27.18-73.87,40.82Z"/><path class="cls-1" d="M203.94,89.44h0c23.7-29.76,47.32-59.57,70.84-89.44h-10.53c-23.79,31.52-47.49,63.11-71.13,94.75,26.19-.97,27.78-2.28,53.97-3.6-22.44-1.13-24.02-1.05-43.15-1.71Z"/><path class="cls-1" d="M437.67,224.14l74.28-11.98v-116.09c0-53.06-43.01-96.07-96.07-96.07h-88.92l-22.76,98.58,8.88,66.04-49.44,79.69-66.17,59.51-83.09,35.75,3.53,1.93,82.37-25.66,49.26-33.47,3.78-.33-22.16,62.63,5.85,89.5,4.29,1.39,2.41-89.07,32.72-66.7,111.4-96.07,49.84,40.41Z"/></svg>