<?xml version="1.0" encoding="UTF-8"?><svg id="Calque_1" xmlns="http://www.w3.org/2000/svg" viewBox="0 0 512 512"><defs><style>.cls-1{fill:#118ece;stroke-width:0px;}</style></defs><path class="cls-1" d="M256,0h0C129.02,0,23.65,92.46,3.5,213.72l5.56-1.86,31.88-2.64,103.71,48.55,8.41,95.62-33.85,33.88-11.71-108.55L4.21,225.52H1.81c-1.19,10-1.81,20.16-1.81,30.48h0c0,2.5.05,4.98.12,7.46l83.38,41.36v118.16l-11.24,11.25c46.53,47.96,111.65,77.77,183.74,77.77h0c141.38,0,256-114.61,256-256h0C512,114.61,397.39,0,256,0ZM355.2,362.36l-114.4-27.92-51.34,8.37-15.7-109.14-97.57-38.54,49.21-15.4,5.39-50.39,60.35-24.35,40.9,75.56,56.47-5.4,46.17,40.3-5.98,56.9,96.74,55.24-70.24,34.77Z"/></svg>