<?xml version="1.0" encoding="UTF-8"?><svg id="Calque_1" xmlns="http://www.w3.org/2000/svg" viewBox="0 0 512 512"><defs><style>.cls-1{fill:#91130b;}.cls-1,.cls-2{stroke-width:0px;}.cls-2{fill:#000;}</style></defs><path class="cls-2" d="M484,256c0-30.79-6.02-60.65-17.91-88.74-11.48-27.15-27.93-51.53-48.87-72.48s-45.33-37.39-72.48-48.87c-28.09-11.88-57.95-17.91-88.74-17.91s-60.65,6.02-88.74,17.91c-27.15,11.48-51.53,27.93-72.48,48.87s-37.39,45.33-48.87,72.48c-11.88,28.09-17.91,57.95-17.91,88.74s6.02,60.65,17.91,88.74c11.48,27.15,27.93,51.53,48.87,72.48s45.33,37.39,72.48,48.87c28.09,11.88,57.95,17.91,88.74,17.91s60.65-6.02,88.74-17.91c27.15-11.48,51.53-27.93,72.48-48.87s37.39-45.33,48.87-72.48c11.88-28.09,17.91-57.95,17.91-88.74Z"/><path class="cls-2" d="M256,28c30.79,0,60.65,6.02,88.74,17.91,27.15,11.48,51.53,27.93,72.48,48.87s37.39,45.33,48.87,72.48c11.88,28.09,17.91,57.95,17.91,88.74s-6.02,60.65-17.91,88.74c-11.48,27.15-27.93,51.53-48.87,72.48-20.95,20.95-45.33,37.39-72.48,48.87-28.09,11.88-57.95,17.91-88.74,17.91s-60.65-6.02-88.74-17.91c-27.15-11.48-51.53-27.93-72.48-48.87-20.95-20.95-37.39-45.33-48.87-72.48-11.88-28.09-17.91-57.95-17.91-88.74s6.02-60.65,17.91-88.74c11.48-27.15,27.93-51.53,48.87-72.48,20.95-20.95,45.33-37.39,72.48-48.87,28.09-11.88,57.95-17.91,88.74-17.91M256,0h0C114.61,0,0,114.61,0,256h0c0,141.39,114.61,256,256,256h0c141.38,0,256-114.61,256-256h0C512,114.61,397.39,0,256,0h0Z"/><path class="cls-1" d="M263.75.26c3.55.11,7.08.28,10.6.53-24.78,31.34-54.38,68.68-70.39,88.77h0c19.13.67,20.71.59,43.15,1.72-26.19,1.31-27.78,2.63-53.97,3.6,15.33-20.51,45.09-60.47,70.61-94.62ZM328.43,10.54c92.15,27.13,162.7,104.69,179.67,200.76l-70.41,12.97-49.84-40.41-111.4,96.07-32.72,66.7-2.41,89.07-4.29-1.39-5.85-89.5,22.16-62.63-3.78.33-49.26,33.47-82.37,25.66-3.53-1.93,83.09-35.75,66.17-59.51,49.44-79.69-8.88-66.04,24.21-88.18ZM508.14,300.77c-.55,3.14-1.17,6.25-1.84,9.35-25.89,13.25-56.45,28.92-69.74,35.85l-4.16,2.18c4.04-32.23,3.8-34.31,8.14-66.51-1.79,29.29-.65,31.4-2.4,57.85h0c13.38-7.42,44.43-24.59,69.98-38.72ZM242.06,164.21l42.89-19.05,7.02,15.18-10.23,14.53-16.64,26.49-28.81-10.76,5.76-26.4ZM389.7,303.37h-37.12l-12.87-39.87,37.61-39.87,24.74,5.78-12.37,73.96Z"/></svg>