<?xml version="1.0" encoding="UTF-8"?><svg id="Calque_1" xmlns="http://www.w3.org/2000/svg" viewBox="0 0 512 512"><defs><style>.cls-1{fill:#91130b;stroke-width:0px;}</style></defs><path class="cls-1" d="M508.02,210.81l-70.35,12.96-49.84-40.41-111.4,96.07-32.72,66.7-2.41,89.07-4.29-1.39-5.85-89.5,22.16-62.63-3.78.33-49.26,33.47-82.37,25.66-3.53-1.93,83.09-35.75,66.17-59.51,49.44-79.69-8.88-66.04,24.11-87.84c-17.39-5.11-35.55-8.43-54.27-9.73-24.73,31.27-54.16,68.41-70.11,88.42h0c19.13.67,20.71.59,43.15,1.72-26.19,1.31-27.78,2.63-53.97,3.6,15.28-20.44,44.89-60.19,70.35-94.26-2.48-.07-4.97-.12-7.46-.12h0C114.61,0,0,114.61,0,256h0c0,141.39,114.61,256,256,256h0c141.38,0,256-114.61,256-256h0c0-15.42-1.36-30.52-3.98-45.19ZM242.04,163.71l42.89-19.05,7.02,15.18-10.23,14.53-16.64,26.49-28.81-10.76,5.76-26.4ZM389.68,302.87h-37.12l-12.87-39.87,37.61-39.87,24.74,5.78-12.37,73.96ZM506.28,309.62c-25.89,13.25-56.45,28.92-69.74,35.85l-4.16,2.18c4.04-32.23,3.8-34.31,8.14-66.51-1.79,29.29-.65,31.4-2.4,57.85h0c13.38-7.42,44.43-24.59,69.98-38.72-.55,3.14-1.17,6.25-1.84,9.35Z"/></svg>