<?xml version="1.0" encoding="UTF-8"?><svg id="Calque_1" xmlns="http://www.w3.org/2000/svg" viewBox="0 0 512 512"><defs><style>.cls-1{fill:#00fcfb;stroke-width:0px;}</style></defs><path class="cls-1" d="M7.41,452.99c-.42-.99-.81-2-1.19-3.01.38,1.01.78,2.01,1.19,3.01Z"/><path class="cls-1" d="M6.03,449.5c-.39-1.05-.76-2.1-1.12-3.16.35,1.06.73,2.12,1.12,3.16Z"/><path class="cls-1" d="M3.75,442.58c-.31-1.09-.61-2.19-.88-3.29.28,1.1.57,2.2.88,3.29Z"/><path class="cls-1" d="M4.79,445.95c-.33-1.01-.65-2.04-.95-3.06.3,1.03.62,2.05.95,3.06Z"/><path class="cls-1" d="M.75,427.98l-.75-18.68v6.63c0,5.29.43,10.47,1.26,15.53-.19-1.15-.36-2.31-.51-3.48Z"/><path class="cls-1" d="M415.93,0H96.07C43.01,0,0,43.01,0,96.07v119.93l23.09-1.91,108.55,50.82,8.8,100.09-35.43,35.47-12.25-113.62L0,239.06v41.55l67.64,33.55v123.68l-42.67,42.7c-.73-.8-1.44-1.62-2.14-2.44,17.62,20.74,43.89,33.9,73.24,33.9h319.86c53.06,0,96.07-43.01,96.07-96.07V96.07c0-53.06-43.01-96.07-96.07-96.07ZM352.04,374.38l-119.74-29.23-53.74,8.77-16.44-114.24-102.13-40.35,51.51-16.12,5.64-52.74,63.17-25.49,42.81,79.09,59.11-5.65,48.32,42.18-6.26,59.56,101.26,57.82-73.52,36.39Z"/><path class="cls-1" d="M2.74,438.79c-.54-2.23-1.01-4.49-1.4-6.78.39,2.29.85,4.55,1.4,6.78Z"/><path class="cls-1" d="M18.01,471.93c-.62-.87-1.23-1.74-1.83-2.63.59.89,1.2,1.77,1.83,2.63Z"/><path class="cls-1" d="M20.15,474.8c-.61-.78-1.21-1.58-1.79-2.38.59.8,1.18,1.6,1.79,2.38Z"/><path class="cls-1" d="M22.39,477.58c-.69-.82-1.36-1.65-2.02-2.49.66.84,1.34,1.67,2.02,2.49Z"/><path class="cls-1" d="M15.88,468.84c-.55-.83-1.08-1.66-1.6-2.51.52.85,1.06,1.68,1.6,2.51Z"/><path class="cls-1" d="M8.82,456.19c-.47-1.01-.92-2.02-1.35-3.05.43,1.03.88,2.04,1.35,3.05Z"/><path class="cls-1" d="M14.05,465.98c-.56-.92-1.11-1.86-1.64-2.8.53.94,1.08,1.88,1.64,2.8Z"/><path class="cls-1" d="M12.11,462.64c-1.07-1.93-2.08-3.89-3.02-5.9.94,2,1.95,3.97,3.02,5.9Z"/></svg>