<?xml version="1.0" encoding="UTF-8"?><svg id="Calque_1" xmlns="http://www.w3.org/2000/svg" viewBox="0 0 512 512"><defs><style>.cls-1{fill:#000;stroke-width:0px;}</style></defs><path class="cls-1" d="M415.93,0H96.07C43.01,0,0,43.01,0,96.07v119.93l23.09-1.91,108.55,50.82,8.8,100.09-35.43,35.47-12.25-113.62L0,239.06v41.55l67.64,33.55v123.68l-42.67,42.7c-.73-.8-1.44-1.62-2.14-2.44,17.62,20.74,43.89,33.9,73.24,33.9h319.86c53.06,0,96.07-43.01,96.07-96.07V96.07c0-53.06-43.01-96.07-96.07-96.07ZM352.04,374.38l-119.74-29.23-53.74,8.77-16.44-114.24-102.13-40.35,51.51-16.12,5.64-52.74,63.17-25.49,42.81,79.09,59.11-5.65,48.32,42.18-6.26,59.56,101.26,57.82-73.52,36.39Z"/></svg>