<svg width="512" height="512" viewBox="0 0 1024 1024" fill="none" xmlns="http://www.w3.org/2000/svg">
<path d="M377.226 230.684C380.996 229.406 383.59 227.278 385.006 224.3C401.307 190.14 420.931 157.923 443.878 127.651C474.533 87.1872 525.156 45.4915 578.294 44.4141C594.893 44.0975 627.24 48.2899 641.398 56.9788C670.137 74.6465 683.921 116.156 685.302 147.88C685.454 151.58 686.664 154.252 688.934 155.897C689.348 156.2 689.83 156.398 690.339 156.477C690.848 156.556 691.371 156.514 691.866 156.352C696.923 154.702 702.379 153.747 707.142 151.677C725.68 143.705 743.873 133.931 762.655 127.316C774.757 123.064 787.227 117.931 799.609 115.716C815.677 112.856 830.772 111.781 846.872 110.112C856.455 109.121 865.174 108.947 873.026 109.592C891.248 111.096 902.482 115.903 918.916 119.846C946.093 126.435 962.558 146.21 982.248 164.497C1001.62 182.513 1010.57 201.112 1015.06 225.009C1019.46 248.461 1018.15 271.206 1011.12 293.244C1006.83 306.633 998.893 321.106 987.309 336.663C966.145 365.008 946.962 383.249 915.835 409.72C894.291 428.027 873.691 450.189 850.362 465.828C835.551 475.772 823.664 489.512 807.937 497.132C794.41 503.71 784.505 514.731 771.479 522.449C760.421 528.98 751.174 537.689 740.418 543.874C727.415 551.358 712.874 562.126 703.094 568.462C681.438 582.495 659.713 596.415 637.917 610.223C630.728 614.786 622.245 618.8 614.353 623.526C613.485 624.054 612.454 624.229 611.476 624.014C610.498 623.798 609.649 623.209 609.107 622.37C601.404 610.324 596.376 596.587 588.949 584.685C583.221 575.452 579.064 566.7 572.035 557.811C567.504 552.067 562.089 544.431 555.79 534.904C543.317 516.075 522.03 495.392 500.184 482.615C492.5 478.144 485.404 472.151 478.183 468.224C461.976 459.425 450.983 454.542 445.204 453.574C423.023 449.869 402.352 443.964 378.84 444.051C361.754 444.1 343.058 448.095 325.005 449.291C320.648 449.587 311.973 452.079 298.981 456.767C257.7 471.727 223.556 492.807 188.975 520.11C188.553 520.442 188.061 520.674 187.54 520.786C187.019 520.897 186.482 520.886 185.972 520.753C185.463 520.62 184.995 520.369 184.606 520.02C184.217 519.671 183.917 519.233 183.731 518.741C183.288 517.558 183.192 516.319 183.445 515.023C183.616 514.061 183.428 513.079 182.916 512.266C177.901 504.297 172.187 498.298 168.628 489.28C164.986 480.092 159.359 471.475 155.986 463.07C146.033 438.362 133.801 411.484 129.695 384.749C127.119 368.03 124.379 351.348 121.476 334.706C120.564 329.425 121.403 321.195 121.528 314.149C121.908 295.145 126.78 278.298 136.143 263.606C146.125 247.98 153.349 238.657 157.815 235.635C175.902 223.437 189.481 210.814 212.878 206.878C236.275 202.942 259.604 197.049 283.114 202.07C314.396 208.772 344.319 220.012 374.333 230.654C375.28 230.991 376.244 231.001 377.226 230.684Z" fill="#333333"/>
<path d="M273.237 623.608C248.334 629.361 226.266 641.869 203.089 652.334C197.763 654.734 192.408 657.964 187.024 662.025C176.893 669.645 165.824 675.091 156.795 683.201C149.246 689.984 141.986 696.911 135.016 703.981C133.141 705.875 132.244 705.516 132.323 702.904C132.57 691.813 141.244 680.475 144.434 673.413C149.381 662.509 153.534 654.754 156.894 650.151C164.647 639.49 173.312 622.046 184.936 609.162C201.008 591.292 217.833 574.167 235.41 557.787C247.424 546.577 261.097 540.273 275.087 531.707C297.164 518.177 320.233 508.806 344.293 503.595C361.752 499.836 386.713 504.403 404.04 508.414C434.001 515.354 462.175 531.947 486.806 549.757C493.657 554.691 500.342 561.395 507.078 567.246C526.52 584.055 541.659 602.933 552.496 623.879C560.802 639.914 562.74 659.136 565.69 676.87C567.993 690.828 563.897 701.802 562.415 715.407C562.366 715.87 562.187 716.312 561.9 716.685C561.613 717.057 561.229 717.344 560.792 717.512C560.355 717.68 559.883 717.723 559.43 717.636C558.977 717.549 558.561 717.335 558.231 717.019C546.216 705.729 533.106 695.601 518.901 686.636C506.862 679.014 498.061 668.414 486.16 661.959C465.704 650.857 445.052 637.802 423.945 630.565C413.126 626.87 402.139 623.725 390.985 621.129C371.598 616.625 349.751 616.127 328.913 614.651C310.541 613.342 291.188 619.478 273.237 623.608Z" fill="#333333"/>
<path d="M4.08976 961.437C7.55075 940.474 16.3194 918.41 24.8106 898.862C32.4694 881.223 45.0451 859.334 62.5378 833.195C75.5598 813.794 92.8714 795.334 108.168 776.166C110.979 772.68 114.327 769.338 118.214 766.143C131.373 755.38 142.965 743.753 155.617 732.531C165.395 723.875 177.067 717.609 188.07 710.121C193.292 706.588 199.217 703.12 205.843 699.716C214.092 695.516 221.99 690.237 230.212 686.824C251.802 677.836 269.612 675.326 290.165 670.55C303.483 667.473 323.345 666.236 349.752 666.839C365.919 667.212 382.874 669.981 400.617 675.147C413.711 678.962 426.541 686.293 439.403 692.325C467.734 705.553 494.583 725.215 516.99 749.153C521.683 754.171 529.25 764.035 539.688 778.746C545.755 787.27 551.831 797.22 557.915 808.595C565.283 822.414 573.921 837.018 579.999 849.904C597.238 886.518 609.066 925.448 615.484 966.694C615.629 967.625 615.533 968.58 615.204 969.466C614.245 972.066 612.673 972.6 610.488 971.067C595.474 960.529 580.818 949.53 566.522 938.07C550.253 925.016 535.233 915.173 518.537 904.745C511.787 900.512 503.785 898.26 497.456 894.486C469.685 878.048 440.751 864.023 410.654 852.411C383.829 842.091 353.185 837.823 324.068 831.718C316.231 830.059 305.919 829.17 297.725 829.433C265.993 830.4 237.365 829.116 203.981 838.882C170.788 848.622 140.815 857.557 111.88 876.708C101.885 883.304 91.6936 888.159 82.5196 895.824C55.984 917.951 25.9472 936.57 6.7973 965.663C6.64765 965.884 6.44052 966.061 6.19909 966.173C5.95766 966.285 5.69158 966.328 5.43087 966.297C5.17016 966.267 4.92515 966.164 4.72344 966C4.52174 965.837 4.37126 965.619 4.28913 965.371C3.91643 964.2 3.85004 962.889 4.08976 961.437Z" fill="#333333"/>
</svg>
