<svg width="512" height="512" viewBox="0 0 2171 2171" fill="none" xmlns="http://www.w3.org/2000/svg">
<path d="M799.588 488.971C807.579 486.263 813.076 481.753 816.078 475.441C850.63 403.032 892.226 334.745 940.867 270.578C1005.84 184.809 1113.15 96.4283 1225.78 94.1447C1260.97 93.4737 1329.53 102.36 1359.54 120.777C1420.46 158.227 1449.67 246.213 1452.6 313.456C1452.92 321.299 1455.49 326.963 1460.3 330.45C1461.18 331.091 1462.2 331.512 1463.28 331.68C1464.36 331.847 1465.47 331.757 1466.51 331.414C1477.23 327.917 1488.8 325.892 1498.89 321.504C1538.19 304.607 1576.75 283.889 1616.56 269.869C1642.21 260.854 1668.65 249.976 1694.89 245.28C1728.95 239.218 1760.95 236.939 1795.07 233.401C1815.39 231.3 1833.87 230.932 1850.51 232.299C1889.13 235.486 1912.95 245.677 1947.78 254.034C2005.39 268.001 2040.29 309.916 2082.02 348.678C2123.09 386.867 2142.05 426.289 2151.57 476.943C2160.9 526.653 2158.12 574.864 2143.22 621.578C2134.13 649.958 2117.3 680.635 2092.75 713.61C2047.89 773.691 2007.23 812.356 1941.25 868.464C1895.58 907.27 1851.92 954.246 1802.47 987.395C1771.08 1008.47 1745.88 1037.6 1712.54 1053.75C1683.87 1067.69 1662.88 1091.05 1635.27 1107.41C1611.83 1121.25 1592.23 1139.72 1569.43 1152.83C1541.87 1168.69 1511.04 1191.51 1490.31 1204.94C1444.41 1234.69 1398.36 1264.19 1352.16 1293.46C1336.92 1303.13 1318.94 1311.64 1302.21 1321.66C1300.37 1322.78 1298.19 1323.15 1296.11 1322.69C1294.04 1322.24 1292.24 1320.99 1291.09 1319.21C1274.77 1293.68 1264.11 1264.56 1248.37 1239.33C1236.23 1219.76 1227.41 1201.21 1212.52 1182.37C1202.91 1170.19 1191.43 1154.01 1178.08 1133.81C1151.64 1093.9 1106.52 1050.06 1060.22 1022.98C1043.93 1013.5 1028.89 1000.8 1013.58 992.473C979.228 973.823 955.927 963.472 943.678 961.42C896.662 953.566 852.845 941.05 803.008 941.234C766.792 941.338 727.164 949.808 688.897 952.342C679.661 952.969 661.274 958.251 633.736 968.189C546.234 999.898 473.861 1044.58 400.561 1102.45C399.666 1103.16 398.625 1103.65 397.52 1103.89C396.415 1104.12 395.277 1104.1 394.197 1103.82C393.117 1103.54 392.125 1103 391.3 1102.26C390.476 1101.52 389.841 1100.59 389.447 1099.55C388.507 1097.04 388.304 1094.42 388.839 1091.67C389.203 1089.63 388.804 1087.55 387.718 1085.83C377.088 1068.94 364.978 1056.22 357.434 1037.1C349.712 1017.63 337.786 999.364 330.636 981.548C309.539 929.176 283.611 872.204 274.909 815.536C269.448 780.096 263.64 744.738 257.486 709.462C255.555 698.267 257.332 680.823 257.598 665.887C258.404 625.607 268.73 589.896 288.577 558.755C309.735 525.634 325.047 505.871 334.514 499.466C372.851 473.61 401.635 446.854 451.228 438.511C500.821 430.167 550.27 417.677 600.102 428.319C666.41 442.526 729.836 466.35 793.455 488.908C795.463 489.622 797.507 489.643 799.588 488.971Z" fill="#00EBEA"/>
<path d="M579.167 1321.83C526.382 1334.03 479.606 1360.54 430.478 1382.72C419.188 1387.81 407.838 1394.66 396.427 1403.26C374.953 1419.41 351.489 1430.96 332.351 1448.15C316.349 1462.53 300.962 1477.21 286.187 1492.2C282.213 1496.21 280.311 1495.45 280.48 1489.91C281.002 1466.4 299.388 1442.37 306.15 1427.4C316.636 1404.29 325.44 1387.85 332.561 1378.09C348.996 1355.5 367.361 1318.52 392 1291.21C426.068 1253.34 461.73 1217.04 498.988 1182.32C524.453 1158.55 553.434 1145.19 583.089 1127.03C629.884 1098.36 678.782 1078.49 729.782 1067.45C766.789 1059.48 819.697 1069.16 856.424 1077.66C919.93 1092.37 979.65 1127.54 1031.86 1165.3C1046.38 1175.75 1060.55 1189.96 1074.83 1202.37C1116.04 1238 1148.13 1278.01 1171.1 1322.41C1188.71 1356.4 1192.81 1397.14 1199.07 1434.73C1203.95 1464.32 1195.26 1487.58 1192.12 1516.41C1192.02 1517.4 1191.64 1518.33 1191.03 1519.12C1190.42 1519.91 1189.61 1520.52 1188.68 1520.88C1187.76 1521.23 1186.76 1521.32 1185.8 1521.14C1184.84 1520.95 1183.96 1520.5 1183.25 1519.83C1157.79 1495.9 1130 1474.43 1099.89 1455.43C1074.37 1439.27 1055.72 1416.81 1030.49 1403.12C987.13 1379.59 943.355 1351.92 898.616 1336.58C875.684 1328.75 852.395 1322.08 828.751 1316.58C787.659 1307.03 741.351 1305.98 697.18 1302.85C658.238 1300.07 617.218 1313.08 579.167 1321.83Z" fill="#00EBEA"/>
<path d="M8.66951 2037.91C16.0056 1993.48 34.592 1946.71 52.5905 1905.27C68.8245 1867.89 95.4806 1821.49 132.559 1766.08C160.161 1724.96 196.856 1685.83 229.279 1645.2C235.237 1637.81 242.335 1630.73 250.573 1623.96C278.465 1601.14 303.035 1576.5 329.854 1552.71C350.58 1534.36 375.322 1521.08 398.643 1505.21C409.713 1497.72 422.27 1490.37 436.315 1483.16C453.802 1474.25 470.542 1463.06 487.969 1455.83C533.733 1436.78 571.483 1431.46 615.048 1421.33C643.278 1414.81 685.38 1412.19 741.353 1413.47C775.622 1414.26 811.56 1420.13 849.167 1431.08C876.923 1439.16 904.117 1454.7 931.381 1467.49C991.433 1495.53 1048.34 1537.2 1095.84 1587.94C1105.79 1598.58 1121.82 1619.49 1143.95 1650.67C1156.81 1668.74 1169.69 1689.83 1182.59 1713.94C1198.2 1743.23 1216.51 1774.19 1229.4 1801.5C1265.94 1879.11 1291.01 1961.63 1304.61 2049.06C1304.92 2051.03 1304.72 2053.05 1304.02 2054.93C1301.99 2060.44 1298.65 2061.57 1294.02 2058.32C1262.2 2035.99 1231.13 2012.67 1200.83 1988.38C1166.34 1960.71 1134.51 1939.85 1099.12 1917.75C1084.81 1908.77 1067.85 1904 1054.43 1896C995.569 1861.16 934.239 1831.43 870.444 1806.81C813.584 1784.94 748.629 1775.89 686.911 1762.95C670.3 1759.44 648.443 1757.55 631.074 1758.11C563.812 1760.16 503.132 1757.44 432.368 1778.14C362.011 1798.78 298.479 1817.72 237.147 1858.32C215.962 1872.3 194.359 1882.59 174.913 1898.84C118.667 1945.74 54.9996 1985.2 14.4085 2046.87C14.0913 2047.34 13.6523 2047.71 13.1406 2047.95C12.6288 2048.19 12.0648 2048.28 11.5122 2048.21C10.9596 2048.15 10.4402 2047.93 10.0127 2047.58C9.58515 2047.24 9.26619 2046.78 9.0921 2046.25C8.30211 2043.77 8.16139 2040.99 8.66951 2037.91Z" fill="#00EBEA"/>
</svg>
