<svg width="512" height="512" viewBox="0 0 6621 6621" fill="none" xmlns="http://www.w3.org/2000/svg">
<path d="M2690.59 3068.97L2422.88 3357.33L2426.44 3330.99L2427.87 3400.05V3465.55H2301.13V3229.88V2888.12H2427.87V3106.71L2422.17 3252.67L2407.22 3234.87L2543.92 3068.97H2690.59ZM2458.48 3299.66L2542.5 3210.66L2699.85 3465.55H2556.74L2458.48 3299.66ZM2844.8 3471.25C2818.7 3471.25 2795.91 3465.91 2776.45 3455.23C2757.23 3444.31 2742.27 3429.36 2731.59 3410.37C2721.15 3391.15 2715.93 3369.2 2715.93 3344.51C2715.93 3321.26 2722.22 3301.08 2734.8 3283.99C2747.61 3266.67 2765.06 3253.38 2787.13 3244.12C2803.03 3237.24 2820.36 3232.14 2839.11 3228.81C2857.86 3225.25 2876.6 3222.88 2895.35 3221.69C2914.34 3220.51 2932.14 3219.91 2948.75 3219.91L2967.27 3242.7L2948.75 3281.86C2940.45 3282.1 2931.78 3282.81 2922.77 3283.99C2913.98 3284.94 2905.68 3286.37 2897.85 3288.27C2890.01 3289.93 2883.72 3291.83 2878.98 3293.96C2871.62 3297.05 2864.62 3301.68 2857.97 3307.85C2851.57 3313.78 2848.36 3323.87 2848.36 3338.11C2848.36 3356.86 2853.46 3370.5 2863.67 3379.05C2874.11 3387.35 2885.86 3391.51 2898.91 3391.51C2905.8 3391.51 2912.56 3390.68 2919.21 3389.01C2926.09 3387.35 2932.14 3385.34 2937.36 3382.96C2942.58 3380.35 2946.38 3377.74 2948.75 3375.13L2969.4 3401.47L2955.16 3432.09C2944.24 3441.58 2929.77 3450.48 2911.73 3458.79C2893.93 3467.1 2871.62 3471.25 2844.8 3471.25ZM3076.91 3465.55H2955.16V3406.46H2948.75V3196.42C2948.75 3178.86 2943.89 3167.35 2934.16 3161.89C2924.66 3156.43 2911.02 3153.7 2893.22 3153.7C2878.03 3153.7 2862.13 3154.89 2845.51 3157.26C2829.14 3159.63 2813.24 3162.95 2797.81 3167.23C2782.38 3171.26 2768.86 3176.01 2757.23 3181.47L2730.88 3105.99C2740.61 3100.06 2754.62 3093.77 2772.89 3087.13C2791.4 3080.24 2812.17 3074.43 2835.19 3069.68C2858.21 3064.94 2881.59 3062.56 2905.32 3062.56C2946.86 3062.56 2980.2 3067.43 3005.36 3077.16C3030.52 3086.89 3048.67 3102.67 3059.83 3124.51C3071.22 3146.34 3076.91 3175.53 3076.91 3212.08V3465.55ZM3246.5 3473.39C3225.14 3473.39 3207.82 3466.39 3194.53 3452.38C3181.24 3438.14 3174.59 3420.7 3174.59 3400.05C3174.59 3386.05 3177.91 3373.11 3184.56 3361.25C3191.44 3349.14 3200.7 3339.41 3212.33 3332.05C3224.19 3324.7 3237.49 3321.02 3252.2 3321.02C3274.03 3321.02 3291.36 3328.02 3304.18 3342.02C3316.99 3355.79 3323.4 3372.99 3323.4 3393.64C3323.4 3407.65 3319.96 3420.7 3313.08 3432.8C3306.43 3444.91 3297.29 3454.76 3285.66 3462.35C3274.03 3469.71 3260.98 3473.39 3246.5 3473.39ZM3246.5 3217.78C3225.14 3217.78 3207.82 3210.78 3194.53 3196.77C3181.24 3182.53 3174.59 3165.09 3174.59 3144.44C3174.59 3130.44 3177.91 3117.51 3184.56 3105.64C3191.44 3093.53 3200.7 3083.8 3212.33 3076.45C3224.19 3069.09 3237.49 3065.41 3252.2 3065.41C3274.03 3065.41 3291.36 3072.41 3304.18 3086.41C3316.99 3100.18 3323.4 3117.39 3323.4 3138.03C3323.4 3152.04 3319.96 3165.09 3313.08 3177.19C3306.43 3189.3 3297.29 3199.15 3285.66 3206.74C3274.03 3214.1 3260.98 3217.78 3246.5 3217.78ZM3403.25 3439.21L3416.07 3350.21C3419.86 3353.53 3427.69 3358.04 3439.56 3363.74C3451.67 3369.2 3465.91 3374.18 3482.28 3378.69C3498.66 3382.96 3515.51 3385.1 3532.83 3385.1C3553.48 3385.34 3568.2 3383.2 3576.98 3378.69C3586 3373.94 3590.51 3366.59 3590.51 3356.62C3590.51 3349.74 3587.3 3343.8 3580.89 3338.82C3574.49 3333.6 3565.82 3328.73 3554.91 3324.22C3543.99 3319.71 3531.88 3315.09 3518.59 3310.34C3489.64 3299.9 3466.62 3288.39 3449.53 3275.81C3432.68 3263.23 3420.57 3249.11 3413.22 3233.44C3405.86 3217.54 3402.3 3199.5 3402.54 3179.33C3402.54 3153.7 3409.89 3132.34 3424.61 3115.25C3439.56 3098.16 3459.5 3085.35 3484.42 3076.8C3509.34 3068.26 3536.87 3063.99 3567.01 3063.99C3599.52 3063.99 3626.7 3066.83 3648.53 3072.53C3670.37 3077.99 3685.68 3083.21 3694.46 3088.19L3683.07 3178.62C3678.32 3174.35 3670.84 3169.84 3660.64 3165.09C3650.43 3160.34 3638.92 3156.31 3626.11 3152.99C3613.29 3149.66 3600.47 3148 3587.66 3148C3565.59 3148 3549.92 3150.26 3540.67 3154.77C3531.65 3159.28 3527.14 3166.04 3527.14 3175.06C3527.14 3185.74 3532 3193.57 3541.73 3198.55C3551.46 3203.54 3566.77 3209.95 3587.66 3217.78C3618.99 3229.17 3644.14 3240.68 3663.13 3252.31C3682.35 3263.94 3696.24 3277.11 3704.78 3291.83C3713.56 3306.54 3717.95 3324.34 3717.95 3345.23C3717.95 3386.52 3702.65 3417.85 3672.03 3439.21C3641.65 3460.57 3601.19 3471.25 3550.63 3471.25C3528.8 3471.25 3508.03 3469.47 3488.33 3465.91C3468.63 3462.59 3451.31 3458.43 3436.36 3453.45C3421.64 3448.47 3410.61 3443.72 3403.25 3439.21ZM3973.31 3471.25C3909.23 3471.25 3860.34 3453.09 3826.64 3416.78C3792.94 3380.23 3776.09 3329.8 3776.09 3265.48C3776.09 3227.03 3783.92 3192.62 3799.58 3162.24C3815.25 3131.86 3837.79 3107.89 3867.22 3090.33C3896.89 3072.77 3932.73 3063.99 3974.74 3063.99C3995.86 3063.99 4016.27 3066.48 4035.97 3071.46C4055.67 3076.21 4073.35 3084.63 4089.01 3096.74C4104.68 3108.61 4117.25 3124.98 4126.75 3145.87C4136.24 3166.75 4141.11 3193.1 4141.34 3224.9C4141.34 3239.14 4140.87 3252.67 4139.92 3265.48C4139.21 3278.3 4138.26 3288.98 4137.07 3297.52H3842.3L3849.42 3233.44H4021.73C4022.91 3214.22 4021.96 3198.2 4018.88 3185.38C4016.03 3172.33 4010.69 3162.6 4002.86 3156.19C3995.26 3149.78 3984.94 3146.58 3971.89 3146.58C3956.94 3146.58 3944.24 3150.73 3933.8 3159.04C3923.59 3167.11 3915.88 3181.11 3910.66 3201.05C3905.43 3220.98 3903.06 3248.63 3903.54 3283.99C3904.01 3307.02 3908.16 3325.65 3916 3339.89C3924.06 3353.89 3935.46 3364.09 3950.17 3370.5C3964.89 3376.91 3982.57 3380.11 4003.22 3380.11C4016.03 3380.11 4029.44 3379.17 4043.44 3377.27C4057.45 3375.37 4070.38 3372.88 4082.25 3369.79C4094.35 3366.71 4103.61 3363.5 4110.02 3360.18L4129.95 3428.53C4121.17 3435.65 4108.95 3442.53 4093.28 3449.18C4077.86 3455.59 4059.82 3460.93 4039.17 3465.2C4018.76 3469.23 3996.81 3471.25 3973.31 3471.25ZM4228.71 3465.55V3068.97H4346.19L4349.04 3115.25C4357.34 3106.94 4368.26 3098.87 4381.79 3091.04C4395.32 3083.21 4410.39 3076.68 4427 3071.46C4443.61 3066.24 4460.82 3063.51 4478.62 3063.27C4518.97 3062.56 4549.23 3073.6 4569.4 3096.38C4589.57 3118.93 4599.66 3158.68 4599.66 3215.64V3465.55H4470.79V3239.14C4470.79 3210.18 4467.11 3190.37 4459.75 3179.69C4452.39 3168.77 4439.22 3163.67 4420.24 3164.38C4414.07 3164.38 4407.18 3165.33 4399.59 3167.23C4391.99 3169.13 4384.4 3171.97 4376.8 3175.77C4369.45 3179.57 4362.8 3184.31 4356.87 3190.01V3465.55H4228.71ZM4990.26 3465.55V2886.7H5048.65V3465.55H4990.26ZM5193.51 3465.55V3069.68H5251.18V3465.55H5193.51ZM5219.14 2982.82C5208.94 2982.82 5200.04 2979.38 5192.44 2972.49C5185.09 2965.61 5181.41 2956 5181.41 2943.66C5181.41 2934.88 5183.54 2927.16 5187.82 2920.52C5192.09 2913.64 5197.43 2908.3 5203.84 2904.5C5210.48 2900.7 5217.25 2898.8 5224.13 2898.8C5236.94 2898.8 5246.44 2902.6 5252.61 2910.19C5258.78 2917.55 5261.86 2926.81 5261.86 2937.96C5261.86 2951.49 5257.47 2962.41 5248.69 2970.71C5240.15 2978.78 5230.3 2982.82 5219.14 2982.82ZM5396.68 3465.55V3069.68H5448.65V3120.23C5458.15 3113.11 5470.61 3105.28 5486.03 3096.74C5501.7 3087.96 5518.9 3080.36 5537.65 3073.95C5556.4 3067.31 5575.39 3063.75 5594.61 3063.27C5637.81 3062.56 5668.42 3074.07 5686.46 3097.81C5704.5 3121.3 5713.52 3162.24 5713.52 3220.63V3465.55H5655.13V3219.91C5655.13 3180.75 5649.56 3152.63 5638.4 3135.54C5627.25 3118.22 5604.58 3110.27 5570.4 3111.69C5558.06 3111.93 5544.89 3114.42 5530.89 3119.17C5516.89 3123.91 5503.24 3129.97 5489.95 3137.32C5476.66 3144.68 5465.03 3152.27 5455.06 3160.11V3465.55H5396.68ZM5956.89 3471.25C5931.49 3471.25 5911.08 3467.22 5895.66 3459.15C5880.23 3450.84 5868.6 3439.21 5860.77 3424.26C5852.94 3409.07 5847.6 3391.15 5844.75 3370.5C5842.14 3349.85 5840.83 3326.95 5840.83 3301.79V3068.97H5898.5V3303.93C5898.5 3337.16 5901 3362.31 5905.98 3379.4C5911.2 3396.49 5919.74 3408 5931.61 3413.93C5943.48 3419.87 5959.74 3422.83 5980.38 3422.83C5993.67 3422.83 6007.32 3420.94 6021.32 3417.14C6035.33 3413.34 6048.26 3408.59 6060.13 3402.9C6072.23 3397.2 6081.96 3391.51 6089.32 3385.81V3068.97H6147.7V3469.83H6124.92C6115.66 3469.83 6108.42 3468.4 6103.2 3465.55C6098.22 3462.94 6095.73 3456.54 6095.73 3446.33V3414.29L6096.44 3424.26C6084.1 3433.04 6070.1 3440.99 6054.43 3448.11C6038.77 3455.23 6022.51 3460.93 6005.66 3465.2C5988.81 3469.23 5972.55 3471.25 5956.89 3471.25ZM6232.9 3465.55L6380.28 3256.23L6380.99 3274.74L6232.9 3068.97H6298.4L6393.1 3207.81L6417.31 3246.97H6397.37L6418.73 3205.67L6513.43 3068.97H6578.22L6429.41 3274.03V3254.09L6579.64 3465.55H6512.71L6416.59 3323.87L6390.25 3281.86L6413.75 3282.57L6390.25 3326.71L6299.11 3465.55H6232.9ZM2323.14 3779.55V3654.73H2395.55V3669.85H2342.96V3709.33H2382.28V3724.45H2342.96V3779.55H2323.14ZM2486.07 3780.9C2474.47 3781.12 2464.45 3778.49 2455.99 3773C2447.54 3767.46 2441.07 3759.79 2436.59 3749.99C2432.11 3740.13 2430.01 3728.87 2430.29 3716.22C2430.57 3702.27 2433.31 3690.65 2438.52 3681.36C2443.79 3672.06 2450.76 3665.09 2459.44 3660.44C2468.17 3655.79 2477.89 3653.44 2488.59 3653.39C2499.67 3653.33 2509.33 3655.93 2517.57 3661.2C2525.8 3666.41 2532.13 3673.8 2536.55 3683.37C2541.03 3692.95 2543.13 3704.18 2542.85 3717.06C2542.57 3731 2539.94 3742.68 2534.95 3752.09C2529.97 3761.44 2523.25 3768.52 2514.79 3773.34C2506.34 3778.15 2496.76 3780.67 2486.07 3780.9ZM2486.57 3765.78C2497.66 3765.78 2506.48 3761.61 2513.03 3753.26C2519.58 3744.86 2522.86 3732.51 2522.86 3716.22C2522.86 3707.59 2521.54 3699.67 2518.91 3692.45C2516.33 3685.17 2512.44 3679.34 2507.23 3674.97C2502.08 3670.55 2495.64 3668.34 2487.91 3668.34C2481.14 3668.34 2474.89 3670.07 2469.18 3673.55C2463.47 3677.02 2458.88 3682.37 2455.41 3689.59C2451.99 3696.81 2450.28 3706.08 2450.28 3717.39C2450.28 3725.96 2451.63 3733.94 2454.31 3741.33C2457.06 3748.67 2461.12 3754.58 2466.49 3759.06C2471.87 3763.54 2478.56 3765.78 2486.57 3765.78ZM2613.86 3779.55H2594.03V3654.73C2595.04 3654.73 2596.02 3654.73 2596.97 3654.73C2597.93 3654.73 2598.88 3654.73 2599.83 3654.73C2600.78 3654.73 2601.76 3654.73 2602.77 3654.73C2606.75 3654.73 2611.45 3654.51 2616.88 3654.06C2622.31 3653.61 2628.31 3653.39 2634.86 3653.39C2641.13 3653.39 2646.87 3654.06 2652.08 3655.4C2657.29 3656.69 2661.79 3658.76 2665.6 3661.62C2669.47 3664.42 2672.43 3668.09 2674.51 3672.62C2676.63 3677.1 2677.7 3682.56 2677.7 3689C2677.7 3696.51 2676.44 3702.83 2673.92 3707.99C2671.4 3713.14 2667.79 3717.2 2663.08 3720.17C2658.43 3723.13 2652.89 3725.12 2646.45 3726.13C2644.15 3726.47 2641.77 3726.75 2639.31 3726.97C2636.9 3727.14 2633.74 3727.28 2629.82 3727.39C2625.9 3727.45 2620.58 3727.47 2613.86 3727.47V3779.55ZM2613.86 3713.36C2615.03 3713.53 2616.83 3713.67 2619.23 3713.78C2621.7 3713.84 2624.19 3713.87 2626.71 3713.87C2629.23 3713.87 2631.22 3713.87 2632.67 3713.87C2640.74 3713.87 2646.95 3711.91 2651.32 3707.99C2655.69 3704.01 2657.87 3697.96 2657.87 3689.84C2657.87 3685.03 2657.06 3680.99 2655.44 3677.75C2653.81 3674.44 2651.1 3671.98 2647.29 3670.35C2643.54 3668.67 2638.44 3667.83 2632 3667.83C2628.75 3667.83 2625.53 3667.97 2622.34 3668.25C2619.21 3668.48 2616.38 3668.84 2613.86 3669.35V3713.36ZM2664.26 3779.55C2663.53 3778.43 2662.91 3777.29 2662.41 3776.11C2661.91 3774.93 2661.01 3773 2659.72 3770.31C2657.99 3766.56 2656.28 3762.33 2654.6 3757.63C2652.92 3752.87 2651.07 3748.25 2649.05 3743.77C2647.09 3739.29 2644.83 3735.51 2642.25 3732.43C2639.67 3729.29 2636.65 3727.47 2633.18 3726.97L2640.74 3721.09L2652.5 3722.1C2655.8 3723.5 2658.74 3726.02 2661.32 3729.66C2663.95 3733.3 2666.36 3737.53 2668.54 3742.34C2670.78 3747.1 2672.91 3751.95 2674.93 3756.87C2677 3761.8 2679.15 3766.28 2681.39 3770.31C2682.23 3771.88 2683.07 3773.45 2683.91 3775.02C2684.75 3776.53 2685.59 3778.04 2686.43 3779.55H2664.26ZM2793.4 3779.55V3654.73H2801.96C2807.12 3654.73 2812.21 3654.51 2817.25 3654.06C2822.29 3653.61 2827.61 3653.39 2833.21 3653.39C2842.28 3653.39 2850.1 3654.81 2856.65 3657.67C2863.2 3660.47 2868.24 3664.89 2871.77 3670.94C2875.3 3676.93 2877.06 3684.75 2877.06 3694.38C2877.06 3707.99 2872.94 3718.6 2864.71 3726.21C2856.54 3733.77 2844.64 3737.55 2829.01 3737.55C2825.09 3737.55 2821.84 3737.53 2819.27 3737.47C2816.75 3737.41 2814.73 3737.39 2813.22 3737.39V3779.55H2793.4ZM2813.22 3722.27C2815.74 3722.6 2818.23 3722.83 2820.7 3722.94C2823.22 3723.05 2825.6 3723.11 2827.84 3723.11C2833.04 3723.11 2837.92 3722.38 2842.45 3720.92C2846.99 3719.41 2850.63 3716.61 2853.37 3712.52C2856.17 3708.38 2857.57 3702.33 2857.57 3694.38C2857.57 3684.8 2855 3677.86 2849.84 3673.55C2844.75 3669.18 2837.36 3667.16 2827.67 3667.5C2825.26 3667.55 2822.8 3667.69 2820.28 3667.92C2817.76 3668.14 2815.4 3668.51 2813.22 3669.01V3722.27ZM2946.29 3779.55H2926.46V3654.73C2927.47 3654.73 2928.45 3654.73 2929.4 3654.73C2930.36 3654.73 2931.31 3654.73 2932.26 3654.73C2933.21 3654.73 2934.19 3654.73 2935.2 3654.73C2939.18 3654.73 2943.88 3654.51 2949.31 3654.06C2954.74 3653.61 2960.74 3653.39 2967.29 3653.39C2973.56 3653.39 2979.3 3654.06 2984.51 3655.4C2989.72 3656.69 2994.22 3658.76 2998.03 3661.62C3001.9 3664.42 3004.86 3668.09 3006.94 3672.62C3009.06 3677.1 3010.13 3682.56 3010.13 3689C3010.13 3696.51 3008.87 3702.83 3006.35 3707.99C3003.83 3713.14 3000.22 3717.2 2995.51 3720.17C2990.86 3723.13 2985.32 3725.12 2978.88 3726.13C2976.58 3726.47 2974.2 3726.75 2971.74 3726.97C2969.33 3727.14 2966.17 3727.28 2962.25 3727.39C2958.33 3727.45 2953.01 3727.47 2946.29 3727.47V3779.55ZM2946.29 3713.36C2947.46 3713.53 2949.26 3713.67 2951.66 3713.78C2954.13 3713.84 2956.62 3713.87 2959.14 3713.87C2961.66 3713.87 2963.65 3713.87 2965.1 3713.87C2973.17 3713.87 2979.38 3711.91 2983.75 3707.99C2988.12 3704.01 2990.3 3697.96 2990.3 3689.84C2990.3 3685.03 2989.49 3680.99 2987.87 3677.75C2986.24 3674.44 2983.53 3671.98 2979.72 3670.35C2975.97 3668.67 2970.87 3667.83 2964.43 3667.83C2961.18 3667.83 2957.96 3667.97 2954.77 3668.25C2951.64 3668.48 2948.81 3668.84 2946.29 3669.35V3713.36ZM2996.69 3779.55C2995.96 3778.43 2995.34 3777.29 2994.84 3776.11C2994.34 3774.93 2993.44 3773 2992.15 3770.31C2990.42 3766.56 2988.71 3762.33 2987.03 3757.63C2985.35 3752.87 2983.5 3748.25 2981.48 3743.77C2979.52 3739.29 2977.26 3735.51 2974.68 3732.43C2972.1 3729.29 2969.08 3727.47 2965.61 3726.97L2973.17 3721.09L2984.93 3722.1C2988.23 3723.5 2991.17 3726.02 2993.75 3729.66C2996.38 3733.3 2998.79 3737.53 3000.97 3742.34C3003.21 3747.1 3005.34 3751.95 3007.36 3756.87C3009.43 3761.8 3011.58 3766.28 3013.82 3770.31C3014.66 3771.88 3015.5 3773.45 3016.34 3775.02C3017.18 3776.53 3018.02 3778.04 3018.86 3779.55H2996.69ZM3113.51 3780.9C3101.91 3781.12 3091.89 3778.49 3083.43 3773C3074.98 3767.46 3068.51 3759.79 3064.03 3749.99C3059.55 3740.13 3057.45 3728.87 3057.73 3716.22C3058.01 3702.27 3060.75 3690.65 3065.96 3681.36C3071.23 3672.06 3078.2 3665.09 3086.88 3660.44C3095.61 3655.79 3105.33 3653.44 3116.03 3653.39C3127.11 3653.33 3136.77 3655.93 3145.01 3661.2C3153.24 3666.41 3159.57 3673.8 3163.99 3683.37C3168.47 3692.95 3170.57 3704.18 3170.29 3717.06C3170.01 3731 3167.38 3742.68 3162.39 3752.09C3157.41 3761.44 3150.69 3768.52 3142.23 3773.34C3133.78 3778.15 3124.2 3780.67 3113.51 3780.9ZM3114.01 3765.78C3125.1 3765.78 3133.92 3761.61 3140.47 3753.26C3147.02 3744.86 3150.3 3732.51 3150.3 3716.22C3150.3 3707.59 3148.98 3699.67 3146.35 3692.45C3143.77 3685.17 3139.88 3679.34 3134.67 3674.97C3129.52 3670.55 3123.08 3668.34 3115.35 3668.34C3108.58 3668.34 3102.33 3670.07 3096.62 3673.55C3090.91 3677.02 3086.32 3682.37 3082.85 3689.59C3079.43 3696.81 3077.72 3706.08 3077.72 3717.39C3077.72 3725.96 3079.07 3733.94 3081.75 3741.33C3084.5 3748.67 3088.56 3754.58 3093.93 3759.06C3099.31 3763.54 3106 3765.78 3114.01 3765.78ZM3221.47 3779.55V3654.73H3293.88V3669.85H3241.3V3709.33H3280.61V3724.45H3241.3V3779.55H3221.47ZM3338.79 3779.55V3654.73H3411.37V3669.85H3358.62V3707.82H3397.76V3722.77H3358.62V3764.1H3417.25V3779.55H3338.79ZM3498.11 3780.9C3492.68 3780.9 3487.53 3780.48 3482.65 3779.64C3477.84 3778.85 3473.69 3777.9 3470.22 3776.78C3466.75 3775.66 3464.26 3774.63 3462.75 3773.67L3466.86 3757.63C3468.99 3758.86 3471.65 3760.07 3474.84 3761.24C3478.03 3762.42 3481.53 3763.4 3485.34 3764.18C3489.15 3764.91 3493.01 3765.27 3496.93 3765.27C3504.61 3765.27 3510.46 3763.99 3514.49 3761.41C3518.52 3758.83 3520.54 3754.63 3520.54 3748.81C3520.54 3744.89 3519.53 3741.61 3517.51 3738.98C3515.5 3736.29 3512.47 3733.77 3508.44 3731.42C3504.47 3729.07 3499.48 3726.47 3493.49 3723.61C3488.39 3721.09 3483.44 3718.07 3478.62 3714.54C3473.86 3711.01 3469.94 3706.87 3466.86 3702.11C3463.78 3697.35 3462.24 3691.89 3462.24 3685.73C3462.24 3679.68 3463.42 3674.61 3465.77 3670.52C3468.18 3666.38 3471.4 3663.05 3475.43 3660.53C3479.46 3658.01 3483.94 3656.19 3488.87 3655.07C3493.85 3653.95 3498.95 3653.39 3504.16 3653.39C3511.77 3653.39 3518.07 3654.14 3523.06 3655.65C3528.04 3657.11 3531.63 3658.57 3533.81 3660.02L3529.95 3675.56C3527.09 3673.77 3523.73 3672.17 3519.87 3670.77C3516.06 3669.32 3510.82 3668.59 3504.16 3668.59C3500.07 3668.59 3496.29 3669.12 3492.82 3670.19C3489.35 3671.25 3486.55 3672.87 3484.42 3675.06C3482.29 3677.24 3481.23 3680.04 3481.23 3683.46C3481.23 3687.32 3482.01 3690.57 3483.58 3693.2C3485.2 3695.78 3487.81 3698.21 3491.39 3700.51C3494.97 3702.75 3499.68 3705.38 3505.5 3708.41C3509.7 3710.59 3513.85 3712.91 3517.93 3715.38C3522.02 3717.79 3525.72 3720.47 3529.02 3723.44C3532.38 3726.41 3535.04 3729.83 3537 3733.69C3539.02 3737.5 3540.03 3741.87 3540.03 3746.79C3540.03 3754.41 3538.23 3760.77 3534.65 3765.86C3531.12 3770.9 3526.19 3774.68 3519.87 3777.2C3513.59 3779.67 3506.34 3780.9 3498.11 3780.9ZM3621.66 3780.9C3616.23 3780.9 3611.08 3780.48 3606.21 3779.64C3601.39 3778.85 3597.25 3777.9 3593.77 3776.78C3590.3 3775.66 3587.81 3774.63 3586.3 3773.67L3590.41 3757.63C3592.54 3758.86 3595.2 3760.07 3598.39 3761.24C3601.59 3762.42 3605.09 3763.4 3608.89 3764.18C3612.7 3764.91 3616.57 3765.27 3620.49 3765.27C3628.16 3765.27 3634.01 3763.99 3638.04 3761.41C3642.07 3758.83 3644.09 3754.63 3644.09 3748.81C3644.09 3744.89 3643.08 3741.61 3641.07 3738.98C3639.05 3736.29 3636.03 3733.77 3631.99 3731.42C3628.02 3729.07 3623.03 3726.47 3617.04 3723.61C3611.95 3721.09 3606.99 3718.07 3602.17 3714.54C3597.41 3711.01 3593.49 3706.87 3590.41 3702.11C3587.33 3697.35 3585.79 3691.89 3585.79 3685.73C3585.79 3679.68 3586.97 3674.61 3589.32 3670.52C3591.73 3666.38 3594.95 3663.05 3598.98 3660.53C3603.01 3658.01 3607.49 3656.19 3612.42 3655.07C3617.41 3653.95 3622.5 3653.39 3627.71 3653.39C3635.33 3653.39 3641.63 3654.14 3646.61 3655.65C3651.59 3657.11 3655.18 3658.57 3657.36 3660.02L3653.5 3675.56C3650.64 3673.77 3647.28 3672.17 3643.42 3670.77C3639.61 3669.32 3634.37 3668.59 3627.71 3668.59C3623.62 3668.59 3619.84 3669.12 3616.37 3670.19C3612.9 3671.25 3610.1 3672.87 3607.97 3675.06C3605.84 3677.24 3604.78 3680.04 3604.78 3683.46C3604.78 3687.32 3605.56 3690.57 3607.13 3693.2C3608.75 3695.78 3611.36 3698.21 3614.94 3700.51C3618.53 3702.75 3623.23 3705.38 3629.05 3708.41C3633.25 3710.59 3637.4 3712.91 3641.49 3715.38C3645.57 3717.79 3649.27 3720.47 3652.57 3723.44C3655.93 3726.41 3658.59 3729.83 3660.55 3733.69C3662.57 3737.5 3663.58 3741.87 3663.58 3746.79C3663.58 3754.41 3661.79 3760.77 3658.2 3765.86C3654.67 3770.9 3649.75 3774.68 3643.42 3777.2C3637.15 3779.67 3629.89 3780.9 3621.66 3780.9ZM3715.81 3779.55V3654.73H3735.64V3779.55H3715.81ZM3844.98 3780.9C3833.38 3781.12 3823.36 3778.49 3814.9 3773C3806.45 3767.46 3799.98 3759.79 3795.5 3749.99C3791.02 3740.13 3788.92 3728.87 3789.2 3716.22C3789.48 3702.27 3792.22 3690.65 3797.43 3681.36C3802.7 3672.06 3809.67 3665.09 3818.35 3660.44C3827.08 3655.79 3836.8 3653.44 3847.5 3653.39C3858.58 3653.33 3868.24 3655.93 3876.48 3661.2C3884.71 3666.41 3891.04 3673.8 3895.46 3683.37C3899.94 3692.95 3902.04 3704.18 3901.76 3717.06C3901.48 3731 3898.85 3742.68 3893.86 3752.09C3888.88 3761.44 3882.16 3768.52 3873.7 3773.34C3865.25 3778.15 3855.67 3780.67 3844.98 3780.9ZM3845.48 3765.78C3856.57 3765.78 3865.39 3761.61 3871.94 3753.26C3878.49 3744.86 3881.77 3732.51 3881.77 3716.22C3881.77 3707.59 3880.45 3699.67 3877.82 3692.45C3875.24 3685.17 3871.35 3679.34 3866.14 3674.97C3860.99 3670.55 3854.55 3668.34 3846.82 3668.34C3840.05 3668.34 3833.8 3670.07 3828.09 3673.55C3822.38 3677.02 3817.79 3682.37 3814.32 3689.59C3810.9 3696.81 3809.19 3706.08 3809.19 3717.39C3809.19 3725.96 3810.54 3733.94 3813.22 3741.33C3815.97 3748.67 3820.03 3754.58 3825.4 3759.06C3830.78 3763.54 3837.47 3765.78 3845.48 3765.78ZM3952.94 3779.55V3654.73H3970.92L4023.17 3735.54L4039.8 3766.62H4033.92L4031.74 3731.67V3654.73H4050.05V3779.55H4031.23L3981 3701.77L3961.68 3666.66H3968.9L3970.92 3704.46V3779.55H3952.94ZM4115.38 3779.55H4094.55L4141.93 3653.39H4161.16L4207.87 3779.55H4186.45L4155.28 3685.73L4151.76 3673.71L4148.06 3685.73L4115.38 3779.55ZM4118.07 3748.89L4121.43 3734.36H4178.72L4182.25 3748.89H4118.07ZM4252.38 3779.55V3654.73H4272.04V3763.93H4321.1V3779.55H4252.38ZM4426.78 3779.55V3654.73H4446.6V3779.55H4426.78ZM4535.44 3779.55V3669.85H4496.97V3654.73H4593.65V3669.85H4555.26V3779.55H4535.44Z" fill="white"/>
<path d="M1764.38 2360.52C1766.16 2361.41 1767.83 2361.59 1769.39 2361.04C1787.29 2354.81 1805.67 2350.44 1824.53 2347.95C1849.73 2344.6 1882.4 2347.93 1901.51 2366.47C1907.47 2372.26 1917.37 2385.25 1919.27 2393.36C1923.1 2409.81 1913.18 2429.34 1902.38 2441.01C1901.12 2442.37 1900.59 2443.74 1900.8 2445.13C1900.84 2445.38 1900.94 2445.62 1901.09 2445.83C1901.24 2446.04 1901.44 2446.21 1901.68 2446.33C1904.04 2447.55 1906.31 2449.15 1908.72 2450.12C1918.09 2453.91 1927.98 2456.94 1936.95 2461.3C1942.73 2464.11 1948.95 2466.74 1954.1 2470.36C1960.77 2475.08 1966.47 2480.07 1972.74 2485.21C1976.47 2488.27 1979.6 2491.32 1982.14 2494.34C1988.02 2501.35 1990.27 2507.05 1994.66 2514.29C2001.88 2526.28 2000.65 2539.11 2001.07 2552.56C2001.49 2565.8 1998.02 2575.54 1991.09 2585.56C1984.3 2595.39 1975.74 2602.93 1965.42 2608.19C1959.14 2611.39 1951.2 2613.66 1941.58 2615.02C1924.03 2617.47 1910.78 2617.07 1890.4 2615.31C1876.29 2614.1 1861.15 2614.57 1847.36 2611.78C1838.6 2610.01 1829.53 2610.62 1821.27 2607.7C1814.17 2605.21 1806.76 2605.56 1799.42 2603.65C1793.2 2602.01 1786.84 2601.79 1780.85 2600.14C1773.61 2598.15 1764.65 2596.76 1758.95 2595.52C1746.33 2592.75 1733.72 2589.92 1721.13 2587.03C1716.97 2586.08 1712.55 2584.47 1708.09 2583.33C1707.6 2583.21 1707.17 2582.9 1706.9 2582.48C1706.64 2582.05 1706.55 2581.54 1706.65 2581.05C1708.23 2574.07 1711.35 2567.44 1712.97 2560.6C1714.23 2555.31 1715.88 2550.75 1716.57 2545.11C1717.02 2541.48 1717.83 2536.86 1719 2531.26C1721.31 2520.19 1721.17 2505.32 1718.02 2493.05C1716.91 2488.74 1716.54 2484.1 1715.4 2480.14C1712.82 2471.28 1710.68 2465.64 1708.99 2463.24C1702.5 2454.04 1697.32 2444.61 1689 2436.27C1682.97 2430.2 1674.96 2424.96 1668.17 2418.95C1666.53 2417.5 1662.59 2415.29 1656.34 2412.32C1636.48 2402.9 1616.94 2398.17 1595.04 2395.48C1594.78 2395.45 1594.52 2395.35 1594.3 2395.21C1594.07 2395.06 1593.89 2394.87 1593.76 2394.64C1593.63 2394.41 1593.55 2394.16 1593.54 2393.89C1593.52 2393.63 1593.57 2393.37 1593.68 2393.13C1593.95 2392.56 1594.36 2392.09 1594.91 2391.72C1595.31 2391.44 1595.59 2391.03 1595.7 2390.56C1596.77 2385.97 1596.89 2381.82 1598.85 2377.38C1600.84 2372.84 1601.92 2367.8 1603.72 2363.64C1609.01 2351.4 1614.27 2337.57 1622.34 2326.69C1627.38 2319.88 1632.35 2313.03 1637.26 2306.14C1638.81 2303.95 1642.04 2301.35 1644.59 2298.91C1651.49 2292.35 1659.2 2288.15 1667.73 2286.31C1676.81 2284.36 1682.67 2283.64 1685.32 2284.17C1696.03 2286.31 1705.31 2286.69 1714.95 2293.64C1724.6 2300.58 1734.91 2306.8 1741.41 2316.94C1750.04 2330.44 1756.58 2345.05 1763.37 2359.48C1763.58 2359.94 1763.92 2360.28 1764.38 2360.52Z" fill="white"/>
<path d="M1587.9 2461.94C1577.07 2455.1 1564.85 2451.65 1552.96 2447.09C1550.23 2446.04 1547.19 2445.27 1543.85 2444.79C1537.57 2443.87 1531.73 2441.84 1525.66 2441.49C1520.59 2441.19 1515.57 2441.05 1510.6 2441.06C1509.26 2441.06 1509.07 2440.61 1510.03 2439.72C1514.06 2435.9 1521.16 2434.99 1524.79 2433.64C1530.42 2431.56 1534.64 2430.31 1537.46 2429.88C1543.99 2428.88 1553.25 2425.82 1561.93 2425.42C1573.95 2424.85 1585.97 2424.8 1598 2425.29C1606.22 2425.61 1613.28 2428.26 1621.26 2430.22C1633.85 2433.31 1645.31 2438.22 1655.64 2444.95C1663.13 2449.84 1670.3 2460.34 1674.98 2467.92C1683.06 2481.03 1687.08 2496.9 1689.42 2511.94C1690.08 2516.12 1690.04 2520.86 1690.33 2525.32C1691.2 2538.16 1689.82 2550.2 1686.18 2561.44C1683.4 2570.04 1677.24 2577.51 1671.97 2584.8C1667.81 2590.54 1662.46 2592.95 1657.1 2597.21C1656.91 2597.36 1656.69 2597.45 1656.46 2597.48C1656.22 2597.51 1655.99 2597.47 1655.77 2597.38C1655.56 2597.28 1655.38 2597.13 1655.25 2596.94C1655.12 2596.75 1655.05 2596.52 1655.05 2596.29C1654.83 2588.04 1653.82 2579.8 1652.01 2571.59C1650.48 2564.62 1651.15 2557.75 1649.25 2551.24C1646 2540.05 1643.37 2528.1 1638.51 2518.04C1636.02 2512.88 1633.26 2507.86 1630.26 2502.98C1625.03 2494.49 1617.51 2486.54 1610.7 2478.6C1604.69 2471.6 1595.69 2466.88 1587.9 2461.94Z" fill="white"/>
<path d="M1372.83 2485.15C1381.51 2479 1392.46 2474.35 1402.41 2470.48C1411.38 2466.99 1423.6 2463.76 1439.07 2460.78C1450.56 2458.58 1463.23 2458.23 1475.44 2456.93C1477.67 2456.7 1480.04 2456.71 1482.55 2456.97C1491.01 2457.86 1499.24 2457.89 1507.69 2458.44C1514.21 2458.87 1520.56 2460.82 1527.1 2462.1C1530.19 2462.71 1533.52 2463.6 1537.06 2464.76C1541.46 2466.22 1546.12 2467.17 1550.24 2468.89C1561.04 2473.41 1568.21 2478.86 1577.15 2484.5C1582.93 2488.15 1590.37 2494.79 1599.46 2504.4C1605.02 2510.29 1610.01 2517.3 1614.42 2525.43C1617.68 2531.44 1619.59 2538.59 1621.97 2545.29C1627.24 2560.04 1629.7 2576.52 1629.08 2592.93C1628.95 2596.37 1628.1 2602.54 1626.54 2611.43C1625.64 2616.6 1624.24 2622.26 1622.34 2628.44C1620.02 2635.93 1617.86 2644.15 1615.42 2650.85C1608.46 2669.89 1598.77 2687.81 1586.35 2704.63C1586.07 2705.01 1585.69 2705.31 1585.26 2705.51C1584 2706.08 1583.26 2705.71 1583.03 2704.39C1581.49 2695.33 1580.25 2686.24 1579.29 2677.12C1578.2 2666.73 1576.41 2657.91 1574.24 2648.3C1573.37 2644.4 1571.36 2640.76 1570.47 2637.18C1566.54 2621.5 1561.34 2606.26 1554.87 2591.46C1549.09 2578.27 1539.81 2565.86 1531.73 2553.35C1529.56 2549.97 1526.24 2545.99 1523.26 2543.17C1511.74 2532.21 1502.11 2521.57 1486.87 2513.13C1471.71 2504.74 1457.97 2497.22 1440.96 2493.67C1435.1 2492.44 1429.78 2490.52 1423.82 2489.95C1406.59 2488.3 1389.38 2484.17 1372.28 2487.6C1372.15 2487.63 1372.02 2487.62 1371.89 2487.57C1371.77 2487.52 1371.66 2487.45 1371.58 2487.34C1371.5 2487.24 1371.45 2487.11 1371.43 2486.99C1371.42 2486.86 1371.44 2486.73 1371.5 2486.61C1371.79 2486.06 1372.23 2485.58 1372.83 2485.15Z" fill="white"/>
<path d="M1529.03 2800.49C1524.38 2809.73 1519.09 2818.74 1513.16 2827.51C1512.49 2828.5 1511.78 2828.52 1511.02 2827.58C1510.7 2827.18 1510.55 2826.37 1510.57 2825.18C1510.76 2816.48 1508.82 2807.73 1508.73 2799.6C1508.62 2790.28 1508.56 2782.28 1506.52 2772.78C1503.28 2757.81 1500.85 2742.76 1494.64 2728.89C1485.85 2709.27 1478.44 2690.06 1465.56 2671.57C1459.67 2663.15 1453.87 2653.25 1447.43 2645.58C1442.45 2639.63 1437.43 2633.72 1432.38 2627.85C1421.85 2615.63 1410.57 2604.12 1398.53 2593.33C1394.95 2590.14 1390.34 2587.1 1386.38 2583.79C1371.65 2571.39 1354.06 2564.3 1335.7 2560.13C1321.38 2556.87 1308.39 2552.49 1292.6 2552.75C1286.09 2552.86 1278.61 2551.25 1271.35 2552.06C1261.86 2553.1 1253.19 2552.8 1244.08 2553.84C1240.35 2554.27 1237.16 2556.19 1233.4 2556.53C1227.26 2557.09 1221.01 2557.59 1214.65 2558.02C1212.97 2558.12 1212.68 2557.54 1213.79 2556.25C1216.97 2552.56 1224.37 2548.96 1228.71 2546.53C1247.38 2536.06 1261.03 2529.15 1269.63 2525.78C1278.39 2522.35 1290.77 2519.01 1306.77 2515.77C1312.59 2514.6 1318.57 2514.51 1324.5 2513.45C1341.74 2510.38 1362.37 2511.05 1378.92 2511.31C1384.29 2511.39 1390.1 2511.97 1396.34 2513.05C1404.08 2514.39 1412.04 2515.49 1419.34 2517.48C1428.3 2519.93 1437.11 2522.78 1445.77 2526.04C1451.82 2528.33 1456.8 2532.3 1462.35 2535.47C1481.54 2546.44 1497.44 2560.78 1509.88 2578.68C1515.87 2587.29 1519.33 2592.28 1520.26 2593.66C1532.59 2611.93 1538.49 2636.08 1545.91 2657.87C1547.44 2662.31 1548.93 2669.27 1550.99 2674.81C1553.46 2681.49 1553.36 2689.53 1554.7 2696.59C1555.21 2699.27 1555.33 2704.96 1555.05 2713.67C1554.84 2720.39 1553.08 2728.41 1552.44 2735.98C1552.18 2739.25 1551.64 2742.19 1550.84 2744.79C1547.28 2756.32 1544.79 2763.69 1543.36 2766.92C1538.49 2777.97 1534.42 2789.74 1529.03 2800.49Z" fill="white"/>
<path d="M1422.2 2950.49C1419.44 2956.34 1416.94 2961.15 1414.69 2964.93C1406.4 2978.96 1398.36 2992.94 1389.28 3006.54C1387.98 3008.49 1385.78 3010.84 1384.36 3013.14C1379.2 3021.62 1373.49 3029.69 1367.21 3037.36C1362.65 3042.94 1358.18 3048.56 1353.81 3054.24C1349.43 3059.95 1344.77 3065.43 1339.83 3070.7C1334 3076.88 1326.77 3085.62 1319.25 3092.29C1305.51 3104.49 1296.06 3112.27 1290.91 3115.64C1278.51 3123.76 1266.33 3133.18 1254.03 3139.95C1235.62 3150.07 1216.64 3159.05 1197.1 3166.86C1179.57 3173.88 1155.3 3181.25 1138.9 3187C1129.28 3190.36 1119.98 3192.06 1110.42 3195.03C1106 3196.4 1101.61 3196.84 1097.14 3198.26C1094.54 3199.07 1091.88 3199.67 1089.17 3200.05C1078.66 3201.54 1068.31 3203.89 1057.89 3205.87C1054.12 3206.59 1045.79 3207.53 1039.86 3209.14C1036.81 3209.96 1034.1 3210.53 1031.71 3210.85C1022.66 3212.06 1014.07 3214.14 1004.89 3215.53C997.187 3216.69 960.265 3224.36 974.707 3203.09C976.082 3201.06 976.928 3199.46 977.244 3198.3C981.385 3182.95 970.244 3171.23 956.643 3165.51C953.341 3164.13 948.95 3162.98 943.469 3162.05C936.485 3160.87 930.158 3159.13 923.036 3160.98C921.039 3161.49 918.747 3161.9 916.159 3162.2C900.112 3163.98 884.126 3174.85 874.085 3186.81C869.582 3192.18 865.018 3197.5 860.392 3202.76C854.203 3209.82 848.166 3217.79 841.946 3225.29C828.513 3241.46 808.874 3248.73 791.162 3259.43C774.244 3269.66 756.959 3278.21 739.353 3288.43C726.037 3296.17 711.997 3302.48 697.234 3307.37C693.108 3308.74 688.936 3308.97 684.718 3308.05C684.345 3307.97 683.994 3307.82 683.688 3307.6C683.382 3307.37 683.128 3307.09 682.943 3306.77C682.757 3306.44 682.646 3306.08 682.614 3305.71C682.583 3305.34 682.633 3304.97 682.762 3304.62C686.857 3293.5 695.951 3282.8 703.485 3273.69C706.368 3270.21 709.669 3265.83 713.388 3260.53C719.318 3252.06 727.586 3243.92 733.057 3236.83C743.847 3222.83 754.636 3208.84 764.769 3194.39C770.209 3186.63 774.473 3177.74 779.501 3169.67C781.488 3166.49 783.964 3161.2 785.522 3157.04C790.637 3143.28 794.096 3129.39 795.899 3115.38C797 3106.8 798.044 3099.47 799.032 3093.36C800.438 3084.65 800.041 3076.42 802.119 3067.56C804.427 3057.69 803.739 3048.21 806.628 3038.37C807.932 3033.93 808.737 3029.4 809.042 3024.8C809.547 3017.08 811.916 3010.48 812.894 3003.01C813.586 2997.74 814.279 2993.7 814.972 2990.86C819.71 2971.63 824.177 2954.67 828.375 2940C830.759 2931.65 835.267 2922.67 837.973 2915.25C840.83 2907.39 843.704 2899.6 847.295 2891.86C849.924 2886.19 852.552 2880.52 855.181 2874.85C856.984 2870.99 859.684 2865.95 863.281 2859.75C867.117 2853.14 870.601 2845.54 874.085 2839.58C884.508 2821.73 892.552 2809.36 898.217 2802.45C903.52 2796 908.013 2789.1 913.622 2783.08C918.726 2777.61 923.708 2772.04 928.568 2766.36C936.439 2757.16 945.7 2749 954.121 2740.04C958.42 2735.46 962.883 2731.21 967.508 2727.3C976.189 2719.96 984.778 2711.59 993.061 2704.92C1004.17 2695.97 1015.4 2687.17 1026.76 2678.53C1035.13 2672.17 1044.5 2666.61 1052.92 2660.21C1065.5 2650.63 1078.49 2644.12 1091.21 2635.98C1099.2 2630.86 1106.87 2627.02 1115.03 2622.69C1122.98 2618.48 1131.54 2615.15 1139.73 2611.16C1145.63 2608.27 1150.58 2606.05 1154.58 2604.48C1169.27 2598.74 1179.97 2595.17 1186.71 2593.77C1192.61 2592.53 1198.35 2590.63 1203 2589.77C1210.27 2588.4 1217.17 2586.62 1224.58 2585.93C1233.92 2585.08 1243.21 2583.84 1252.44 2582.2C1255.61 2581.64 1258.78 2581.6 1261.94 2582.1C1271.27 2583.55 1280.62 2584.76 1290 2585.71C1293.61 2586.08 1297.3 2586.74 1301.07 2587.7C1306.02 2588.96 1310.82 2589.78 1315.53 2591.55C1327.7 2596.12 1337.51 2600.37 1344.94 2604.3C1349.85 2606.92 1355.44 2612.23 1360.23 2615.35C1363.85 2617.73 1367.65 2619.93 1370.99 2622.56C1386.19 2634.54 1397.77 2644.95 1405.72 2653.8C1416.34 2665.62 1422.78 2673.36 1425.04 2677.02C1429.33 2683.95 1433.69 2690.84 1438.12 2697.69C1444.51 2707.56 1447.71 2717.25 1451.62 2728.12C1454.23 2735.36 1455.71 2743.15 1457.75 2750.86C1458.52 2753.77 1459.14 2757.06 1459.6 2760.73C1461.09 2772.68 1463.8 2785.45 1463.86 2799.23C1463.91 2812.04 1460.89 2826.59 1459.58 2840.37C1459.21 2844.12 1458.54 2848.23 1457.55 2852.68C1454.43 2866.77 1451.68 2880.26 1446.51 2895.47C1440.37 2913.56 1430.8 2932.36 1422.2 2950.49Z" fill="white"/>
<path d="M821.774 2749.12C808.83 2743.38 800.791 2744.54 788.641 2743.83C782.223 2743.44 771.662 2738.47 774.214 2730.57C778.173 2718.33 807.79 2719.55 818.29 2722.01C826.313 2723.88 833.924 2725.16 841.305 2729.72C852.278 2736.48 864.168 2752.3 865.223 2765.02C865.783 2771.7 866.099 2775.37 866.17 2776.03C866.965 2782.53 867.423 2792.4 864.474 2798.45C864.189 2799.03 863.878 2799.04 863.542 2798.48C859.767 2792 856.664 2784.8 852.691 2778.99C843.216 2765.15 835.88 2755.34 821.774 2749.12Z" fill="white"/>
<path d="M803.298 2867.23C782.483 2840.22 757.083 2821.11 721.153 2817.47C714.154 2816.75 707.613 2815.65 700.522 2816.13C682.162 2817.38 663.777 2818.11 645.367 2818.31C642.229 2818.34 639.946 2818.13 638.52 2817.69C634.271 2816.38 630.084 2812.52 632.346 2807.69C633.798 2804.58 641.103 2801.62 644.48 2799.7C651.663 2795.62 660.084 2793.12 667.756 2789.91C669.906 2789.01 672.723 2788.08 676.207 2787.13C680.119 2786.04 683.726 2784.41 687.608 2783.61C694.821 2782.12 701.286 2780.05 708.82 2779.37C714.699 2778.85 720.532 2777.97 726.319 2776.74C729.498 2776.07 737.017 2776.06 748.876 2776.71C753.461 2776.96 758.509 2778.42 764.021 2781.09C779.136 2788.42 792.141 2802.93 800.257 2817.15C809.548 2833.44 814.332 2849.3 816.242 2867.54C816.711 2872.1 816.67 2876.58 816.12 2880.99C816.114 2881.06 816.089 2881.12 816.047 2881.17C816.005 2881.22 815.948 2881.26 815.884 2881.28C815.82 2881.3 815.751 2881.3 815.687 2881.28C815.623 2881.26 815.566 2881.22 815.524 2881.17C811.321 2876.56 807.225 2872.33 803.298 2867.23Z" fill="white"/>
<path d="M727.036 2963.09C719.15 2958.88 711.055 2955.14 702.751 2951.87C692.359 2947.77 686.608 2945.54 685.497 2945.17C677.657 2942.6 669.007 2942.08 662.313 2941.14C641.407 2938.23 619.751 2937.53 598.799 2940.67C587.581 2942.35 577.158 2942.61 566.247 2942.33C563.791 2942.27 561.601 2941.85 559.675 2941.08C559.433 2940.98 559.218 2940.83 559.044 2940.64C558.871 2940.45 558.744 2940.22 558.673 2939.98C558.603 2939.73 558.59 2939.47 558.637 2939.22C558.683 2938.97 558.787 2938.73 558.941 2938.53C573.292 2919.53 604.514 2906.87 630.006 2899.48C630.118 2899.45 632.635 2898.58 637.556 2896.88C642.736 2895.09 649.262 2894.89 653.174 2894.22C661.937 2892.7 667.729 2891.84 670.551 2891.64C676.374 2891.23 682.563 2893.92 688.523 2894.8C703.011 2896.92 719.501 2907.36 731.636 2915.22C733.317 2916.3 735.298 2917.94 737.581 2920.15C746.292 2928.55 755.767 2936.76 762.232 2947.01C769.69 2958.85 776.083 2971.22 781.411 2984.1C783.704 2989.67 783.673 2994.32 783.413 3000.12C783.395 3000.46 783.284 3000.78 783.092 3001.06C782.9 3001.34 782.633 3001.56 782.322 3001.7C782.01 3001.84 781.664 3001.9 781.321 3001.87C780.978 3001.84 780.65 3001.72 780.372 3001.52C772.41 2995.78 765.64 2989.24 757.173 2983.29C747.224 2976.29 737.825 2968.86 727.036 2963.09Z" fill="white"/>
<path d="M1434.46 3038.51C1437.29 3037.03 1440.1 3035.5 1442.88 3033.93C1448.47 3030.77 1453.58 3025.71 1458.85 3022.59C1469.91 3016.02 1483.84 3008.99 1497.15 3004.92C1503.08 3003.11 1509.01 3000.76 1514.89 2999.85C1525.14 2998.27 1535.46 2997.9 1545.85 2998.75C1555.62 2999.55 1562.69 3002.93 1571.42 3006.67C1581.29 3010.9 1588.74 3016.9 1595.74 3024.53C1605.17 3034.78 1611.44 3042.81 1614.53 3048.6C1620.33 3059.47 1627.34 3069.78 1631.67 3081.16C1634.15 3087.7 1636.64 3094.23 1639.12 3100.76C1640.76 3105.06 1641.4 3110.24 1643.28 3114.94C1644.85 3118.88 1644.66 3122.63 1645.65 3126.13C1648.28 3135.35 1653.58 3169.43 1640.44 3170.89C1615.5 3173.65 1582.87 3105.89 1575.04 3093.54C1570.62 3086.56 1567.63 3081.72 1566.07 3079.02C1554.95 3059.6 1541.25 3037.86 1515.67 3036.24C1502.28 3035.4 1487.77 3035.38 1472.13 3036.18C1463.89 3036.59 1456.14 3038.44 1448.82 3039.21C1443.83 3039.75 1438.89 3041.19 1433.82 3040.59C1433.69 3040.58 1433.57 3040.53 1433.47 3040.45C1433.37 3040.38 1433.29 3040.28 1433.23 3040.17C1433.18 3040.06 1433.16 3039.93 1433.17 3039.81C1433.18 3039.68 1433.23 3039.57 1433.3 3039.46C1433.54 3039.1 1433.93 3038.78 1434.46 3038.51Z" fill="white"/>
<path d="M740.378 3037.37C746.429 3038.92 750.918 3040.74 753.842 3042.85C759.71 3047.09 766.725 3056.26 762.522 3063.38C756.042 3074.38 742.349 3081.98 731.009 3086.51C710.357 3094.78 690.841 3099.07 672.461 3099.37C661.611 3099.54 652.849 3098.66 646.175 3096.72C634.759 3093.41 626.017 3081.43 623.633 3069.21C621.983 3060.69 620.195 3051.85 619.599 3043.51C618.936 3034.15 619.14 3026.53 620.21 3020.63C621.646 3012.73 628.585 3012.74 635.615 3014.05C643.378 3015.48 651.004 3015.94 658.722 3017.66C665.859 3019.25 673.287 3020.05 680.057 3021.76C690.128 3024.32 699.221 3026.27 709.996 3029.6C717.219 3031.84 724.575 3033.58 732.064 3034.84C734.692 3035.29 737.688 3036.67 740.378 3037.37Z" fill="white"/>
<path d="M1355.46 3114.48C1363.76 3109.8 1373.73 3105.09 1383.53 3100.81C1388.51 3098.64 1394.69 3097.49 1400.4 3095.53C1407.19 3093.18 1414.69 3093.63 1421.77 3092.85C1425.11 3092.5 1428.62 3092.53 1432.3 3092.96C1439.22 3093.77 1445.85 3093.28 1452.43 3095.29C1461.74 3098.12 1467.64 3100.38 1470.14 3102.07C1476.63 3106.47 1483.17 3110.79 1489.76 3115.03C1502.42 3123.15 1511.43 3133.89 1521.72 3144.44C1524.96 3147.76 1529.24 3153.65 1534.55 3162.09C1540.42 3171.39 1547.04 3180.91 1551.67 3190.18C1562.44 3211.8 1569.7 3234.52 1573.45 3258.35C1575.11 3268.88 1576.61 3282.66 1564.66 3288.18C1564.19 3288.39 1563.72 3288.4 1563.24 3288.21C1555.95 3285.25 1551.14 3281.18 1545.63 3275.75C1538.47 3268.71 1534.48 3259.98 1528.75 3251.94C1519.28 3238.65 1510.19 3225.12 1501.48 3211.36C1499.31 3207.93 1496.37 3203.8 1492.66 3198.96C1486.73 3191.21 1481.45 3181.9 1476.36 3175C1472.24 3169.43 1469.34 3165.87 1467.66 3164.35C1462.54 3159.71 1457.68 3154.06 1452.58 3150.27C1442.45 3142.75 1429.91 3138.26 1418.27 3136.34C1411.3 3135.2 1404.41 3133.3 1397.65 3132.91C1386.53 3132.3 1375.19 3131.14 1363.98 3131.25C1363.48 3131.26 1359.42 3131.63 1351.82 3132.38C1346.87 3132.86 1341.9 3132.61 1336.9 3131.62C1335.57 3131.35 1334.72 3130.99 1334.37 3130.55C1333.76 3129.79 1333.86 3129.15 1334.69 3128.62C1341.79 3124.01 1349.1 3118.08 1355.46 3114.48Z" fill="white"/>
<path d="M775.265 3143.97C771.384 3158.22 759.02 3169.53 746.488 3176.19C734.14 3182.78 717.772 3189.56 703.865 3184.07C695.5 3180.78 689.947 3174.36 687.207 3164.81C684.838 3156.59 686.718 3151.67 690.431 3144.74C692.01 3141.82 694.257 3139.55 697.171 3137.92C707.746 3132.03 712.774 3130.96 722.494 3129.79C730.304 3128.85 737.915 3130.76 745.571 3131.97C749.565 3132.61 753.595 3133.65 757.66 3135.1C763.268 3137.07 770.482 3138.54 774.883 3142.63C775.281 3143.01 775.408 3143.45 775.265 3143.97Z" fill="white"/>
<path d="M1284.06 3224.06C1278.5 3221.98 1273.04 3222.02 1267.42 3220.22C1261.92 3218.47 1255.53 3218.08 1250.53 3217.01C1246.91 3216.24 1243.27 3215.61 1239.59 3215.12C1229.26 3213.77 1219.34 3211.51 1209.07 3210.37C1208.82 3210.34 1208.59 3210.24 1208.4 3210.07C1208.21 3209.91 1208.08 3209.69 1208.03 3209.45C1207.81 3208.45 1208.23 3207.76 1209.31 3207.35C1214.59 3205.37 1219.71 3203.44 1225.19 3202.04C1239.65 3198.39 1250.39 3196.35 1257.41 3195.93C1265.17 3195.47 1272.91 3194.75 1280.62 3193.78C1289.84 3192.64 1298.92 3192.72 1307.9 3193.71C1319.14 3194.92 1330.86 3195.73 1341.33 3198.05C1355.63 3201.23 1368.9 3205.18 1382.05 3212C1395.42 3218.93 1406.36 3225.83 1414.88 3232.71C1422.42 3238.79 1432.43 3248.77 1444.9 3262.64C1453.71 3272.45 1460.21 3285.5 1467.3 3296.62C1477.98 3313.36 1483.27 3332.1 1488.59 3348.81C1490.67 3355.36 1490.88 3361.71 1491.57 3368.44C1492.19 3374.34 1491.8 3380.78 1490.39 3387.78C1489.53 3392.13 1487.23 3395.21 1483.52 3397.01C1483.06 3397.23 1482.58 3397.28 1482.08 3397.16C1478.49 3396.31 1475.66 3394.69 1473.58 3392.3C1467.21 3384.97 1460.63 3376.48 1453.84 3366.84C1446.85 3356.92 1439.09 3348.48 1431.46 3339.29C1426.92 3333.81 1422.04 3328.34 1416.84 3322.9C1410.05 3315.8 1403.25 3308.1 1396.74 3301.48C1386.93 3291.51 1377.09 3281.57 1367.23 3271.65C1360.06 3264.44 1352.68 3254.79 1342.75 3247.93C1336.46 3243.59 1327.71 3238.76 1316.51 3233.45C1311.83 3231.24 1306.47 3230.21 1301.41 3228.58C1295.98 3226.82 1289.75 3226.18 1284.06 3224.06Z" fill="white"/>
<path d="M872.909 3249.06C876.592 3241.05 879.404 3233.04 885.41 3226.26C892.196 3218.6 898.507 3212.22 904.345 3207.13C911.406 3200.99 925.405 3196.56 933.169 3204.45C934.554 3205.86 935.807 3208.38 936.928 3212.02C938.181 3216.06 941.452 3221.71 940.535 3225.86C936.897 3242.16 937.539 3260.73 930.433 3275.89C924.121 3289.35 918.405 3298.44 903.841 3302.97C894.351 3305.93 879.786 3303.22 873.581 3294.36C865.848 3283.28 865.054 3271.82 869.119 3259.34C870.606 3254.78 871.87 3251.35 872.909 3249.06Z" fill="white"/>
<path d="M1016.16 3264.04C1014.87 3256.44 1013.3 3246.04 1016.38 3240.03C1018.4 3236.11 1024.48 3232.19 1028.99 3231.83C1037.03 3231.19 1049.3 3230.54 1058.38 3233.08C1064.52 3234.79 1069.77 3235.1 1074.67 3237.18C1079.04 3239.03 1083.5 3240.67 1088.04 3242.09C1094.22 3244.01 1106.5 3248.46 1124.89 3255.45C1134.89 3259.25 1144.01 3264.23 1152.05 3268.08C1157.37 3270.64 1164.26 3273.05 1168.26 3277.52C1171.43 3281.07 1172.24 3286.54 1173.84 3291.14C1175.05 3294.58 1172.42 3299.68 1170.91 3302.95C1167.74 3309.76 1157.96 3318.28 1151.16 3321.74C1143.89 3325.46 1136.68 3329.29 1129.55 3333.23C1125.63 3335.4 1120.19 3338.92 1113.23 3343.8C1103.08 3350.89 1091.77 3357.35 1079.29 3363.18C1076.33 3364.56 1073.79 3364.37 1071.65 3362.61C1064.49 3356.73 1060.23 3347.63 1055.52 3339.95C1053.3 3336.31 1050.09 3331.44 1045.88 3325.34C1034.3 3308.53 1027.63 3291.06 1019.62 3274.38C1017.85 3270.7 1016.7 3267.25 1016.16 3264.04Z" fill="white"/>
<path d="M320.928 3519.62C338.763 3511.27 355.681 3503.58 373.394 3493.13C382.854 3487.56 393.154 3482.48 401.972 3477.01C419.715 3465.99 438.009 3455.38 454.835 3443.09C461.177 3438.48 468.651 3433.99 474.275 3429.96C496.74 3413.93 517.351 3398.03 536.108 3382.25C541.885 3377.39 547.861 3373.2 552.782 3368.73C564.137 3358.43 575.568 3349.51 587.382 3338.58C591.345 3334.91 596.47 3330.31 602.756 3324.8C608.487 3319.78 616.205 3310.06 624.381 3303.1C627.417 3300.52 630.117 3297.93 632.481 3295.36C646.709 3279.89 660.708 3264.14 675.364 3249.07C678.197 3246.17 680.907 3243.16 683.495 3240.05C687.865 3234.83 692.099 3231.83 697.906 3237.36C703.423 3242.59 688.813 3256.74 685.558 3260.67C678.237 3269.54 668.365 3277.94 660.234 3287.24C653.036 3295.51 644.799 3302.15 637.219 3309.97C633.245 3314.07 629.195 3317.81 625.069 3321.19C614.585 3329.75 605.446 3339.68 594.947 3348.05C580.443 3359.63 567.04 3372.28 552.476 3383.8C544.651 3390 532.074 3400.83 521.299 3407.97C513.78 3412.94 507.194 3417.93 501.539 3422.93C500.011 3424.28 497.504 3425.99 494.02 3428.06C477.545 3437.84 463.332 3449.54 446.048 3459.51C440.688 3462.61 434.524 3466.44 427.555 3471C415.222 3479.09 400.276 3486.73 389.288 3493.1C371.514 3503.43 356.506 3510.27 334.56 3520.42C318.972 3527.62 302.635 3533.96 286.527 3540.49C280.032 3543.12 267.943 3547.1 258.682 3551.68C258.376 3551.84 258.036 3551.91 257.692 3551.91C257.348 3551.91 257.009 3551.83 256.705 3551.67C256.4 3551.52 256.139 3551.29 255.943 3551.02C255.747 3550.74 255.622 3550.42 255.58 3550.09L255.488 3549.47C255.435 3549.06 255.521 3548.64 255.734 3548.29C255.946 3547.93 256.273 3547.65 256.665 3547.49C260.867 3545.78 264.994 3543.42 268.784 3541.93C279.502 3537.75 290.174 3533.46 300.801 3529.07C307.449 3526.33 314.189 3522.79 320.928 3519.62Z" fill="white"/>
<path d="M673.804 3777.37C672.597 3755.48 673.88 3732.11 674.217 3709.31C674.298 3703.28 674.828 3696.55 675.806 3689.11C677.212 3678.55 677.747 3667.61 679.443 3657.48C681.43 3645.58 683.325 3633.68 685.128 3621.77C685.434 3619.76 686.382 3615.42 687.971 3608.73C689.377 3602.81 689.53 3596.97 691.012 3591.16C692.907 3583.85 693.503 3576.18 695.444 3569.3C702.199 3545.32 708.098 3521.14 714.303 3497.03C716.595 3488.15 719.244 3479.37 722.25 3470.69C722.26 3470.63 722.968 3468.23 724.374 3463.5C725.444 3459.9 727.416 3456.38 728.516 3453.21C732.337 3442.01 736.106 3430.81 739.825 3419.59C745.51 3402.45 749.494 3391.32 751.776 3386.22C762.123 3363.03 768.434 3343.55 777.925 3322.66C782.744 3312.03 787.558 3301.4 792.367 3290.77C794.002 3287.14 798.327 3283.65 802.392 3286.5C807.069 3289.77 807.176 3293.59 804.7 3298.56C796.488 3315.03 791.486 3325.67 789.693 3330.47C784.726 3343.74 777.222 3357.45 772.668 3369.11C769.998 3375.98 767.385 3382.86 764.828 3389.76C761.374 3399.07 757.716 3408.31 753.855 3417.48C746.412 3435.17 741.139 3450.67 735.5 3467.64C731.313 3480.26 726.224 3493.67 721.822 3506.8C720.579 3510.52 718.975 3516.21 717.008 3523.86C715.159 3531.04 712.209 3538.25 710.742 3545.46C709.061 3553.62 706.341 3561.32 704.415 3569.39C702.347 3578.05 700.742 3584.51 699.601 3588.78C694.069 3609.5 691.929 3625.07 688.46 3643.42C687.467 3648.67 687.635 3656.59 685.511 3663.86C684.757 3666.45 684.298 3669.04 684.135 3671.65C683.432 3682.66 681.247 3694.85 680.513 3704.39C678.954 3724.56 678.878 3742.98 678.435 3761.93C678.053 3778.01 679.474 3792.94 680.788 3808.5C681.705 3819.5 684.609 3828.62 683.096 3839.52C683.079 3839.64 683.038 3839.75 682.975 3839.85C682.912 3839.96 682.829 3840.05 682.73 3840.11C682.631 3840.18 682.519 3840.23 682.401 3840.26C682.282 3840.28 682.16 3840.29 682.041 3840.26C681.868 3840.22 681.725 3840.01 681.613 3839.64C677.777 3827.39 677.09 3814.01 675.256 3801.36C674.155 3793.71 674.262 3785.77 673.804 3777.37Z" fill="white"/>
<path d="M1137.76 4097.33L1205.95 3973.37L1168.7 3953.04L1131.45 3932.7L1099.06 3991.58L1066.67 4050.46L977.886 4001.99L889.106 3953.53L922.117 3894.99L955.128 3836.45L917.256 3815.77L880.006 3795.44L811.816 3919.39L743.626 4043.34L768.46 4056.9L793.293 4070.46L817.16 4027.08L841.166 3984.17L854.825 3991.63L868.483 3999.08L845.098 4042.33C822.595 4083.23 822.333 4085.91 832.267 4091.33C842.2 4096.75 844.325 4095.09 866.827 4054.19L890.834 4011.29L904.492 4018.74L918.151 4026.2L894.765 4069.44C872.263 4110.35 872.001 4113.02 881.934 4118.45C891.868 4123.87 893.992 4122.21 916.495 4081.3L940.501 4038.4L954.16 4045.86L967.819 4053.31L944.433 4096.55C921.93 4137.46 921.668 4140.14 931.602 4145.56C941.535 4150.98 943.66 4149.32 966.163 4108.42L990.169 4065.51L1003.83 4072.97L1017.49 4080.43L994.101 4123.67C971.598 4164.57 971.336 4167.25 981.269 4172.67C991.203 4178.1 993.327 4176.44 1015.83 4135.53L1039.84 4092.63L1053.5 4100.08L1067.15 4107.54L1043.77 4150.78L1019.9 4194.17L1044.74 4207.72L1069.57 4221.28L1137.76 4097.33Z" fill="white"/>
<path fill-rule="evenodd" clip-rule="evenodd" d="M1407.3 3520.78C1399.92 3543.74 1364.27 3654.03 1327.8 3765.08C1291.47 3876.61 1260.69 3967.79 1259.24 3968.21C1257.8 3968.63 1231.52 3955.5 1200.96 3938.41L1145.57 3907.77L1159.75 3881.26L1173.93 3854.75L1159.52 3833.99L1144.62 3813.37L1176.67 3755.11L1208.72 3696.85L1160.44 3670.89L1112.49 3644.32L1080.44 3702.57L1048.39 3760.83L1022.93 3759.42L997.609 3758.49L982.808 3784.66L968.147 3811.31L911.029 3780.13C879.366 3762.85 854.593 3747.71 855.275 3746.47C862.033 3735.66 1185.65 3355.05 1188.53 3354.2C1190.46 3353.64 1203.56 3359.18 1216.73 3366.78L1241.09 3380.48L1325.19 3369.57L1362.63 3446.43L1391.81 3462.36L1420.51 3478.43L1407.3 3520.78Z" fill="white"/>
<path d="M1105.32 3936.17L1148.97 3856.84L1133.73 3836.84L1118.98 3816.69L1135.13 3784.41C1144.67 3767.05 1157.21 3742.06 1163.41 3729.33L1174.58 3706.82L1147.12 3691.43L1119.67 3676.04L1089.52 3730.1L1059.38 3784.16L1034.4 3782.61L1009.28 3780.58L964.612 3861.77L920.288 3942.34L988.581 3979.62C1025.83 3999.95 1057.84 4016.62 1059.28 4016.2C1060.72 4015.78 1081.46 3979.55 1105.32 3936.17Z" fill="white"/>
<path d="M265.73 3441.12L343.323 3375.36L323.598 3352.08L303.873 3328.8L267.017 3360.04L230.16 3391.27L183.149 3335.79L136.138 3280.3L173.323 3249.46L210.508 3218.61L190.455 3194.95L170.73 3171.67L93.1369 3237.42L15.544 3303.17L28.694 3318.69L41.844 3334.21L69.0015 3311.2L96.1294 3288.54L103.362 3297.08L110.594 3305.62L83.7952 3328.66C58.1896 3350.36 57.3248 3352.09 62.5848 3358.3C67.8448 3364.51 69.6958 3363.94 95.3015 3342.24L122.429 3319.58L129.662 3328.12L136.894 3336.65L110.095 3359.7C84.4895 3381.4 83.6248 3383.13 88.8848 3389.34C94.1448 3395.55 95.9958 3394.98 121.601 3373.28L148.729 3350.62L155.962 3359.16L163.194 3367.69L136.395 3390.74C110.789 3412.44 109.925 3414.17 115.185 3420.38C120.445 3426.58 122.296 3426.02 147.901 3404.32L175.029 3381.66L182.262 3390.2L189.494 3398.73L162.695 3421.78C137.089 3443.48 136.225 3445.21 141.485 3451.42C146.745 3457.62 148.596 3457.06 174.201 3435.36L201.329 3412.7L208.562 3421.24L215.794 3429.77L188.995 3452.82L161.838 3475.83L174.988 3491.35L188.138 3506.87L265.73 3441.12Z" fill="white"/>
<path fill-rule="evenodd" clip-rule="evenodd" d="M594.731 3122.98C583.871 3136.52 531.6 3201.48 478.582 3266.74C425.535 3332.36 381.438 3385.72 380.363 3385.63C379.288 3385.55 365.063 3369.94 348.984 3350.57L319.755 3315.68L336.079 3301.51L352.403 3287.34L348.09 3269.67L343.42 3251.96L379.888 3221.06L416.357 3190.15L390.685 3160.25L365.401 3130.01L328.932 3160.92L292.463 3191.82L275.766 3184.31L259.038 3177.15L242.385 3190.93L225.703 3205.07L195.458 3169.38C178.692 3149.59 165.989 3133.02 166.765 3132.37C174.077 3126.84 488.872 2954.39 491.022 2954.57C492.456 2954.69 499.807 2961.79 506.681 2970.3L519.473 2985.79L578.63 3000.14L583.937 3061.47L599.388 3079.71L614.481 3097.91L594.731 3122.98Z" fill="white"/>
<path d="M285.48 3324.39L335.14 3282.31L330.081 3264.93L325.38 3247.59L344.509 3230.04C355.372 3220.84 370.203 3207.27 377.634 3200.3L390.913 3188.05L376.478 3170.62L362.043 3153.19L327.931 3181.76L293.82 3210.34L277.481 3202.85L261.171 3195.01L210.348 3238.08L159.912 3280.82L196.075 3323.5C215.8 3346.78 232.954 3366.24 234.029 3366.33C235.104 3366.42 258.323 3347.41 285.48 3324.39Z" fill="white"/>
</svg>
