<svg width="512" height="512" viewBox="0 0 3104 3104" fill="none" xmlns="http://www.w3.org/2000/svg">
<path d="M2704.87 180.694C2707.61 182.066 2710.19 182.332 2712.58 181.494C2740.12 171.908 2768.39 165.194 2797.4 161.354C2836.16 156.21 2886.42 161.331 2915.8 189.838C2924.97 198.754 2940.2 218.735 2943.12 231.194C2949.02 256.501 2933.76 286.541 2917.14 304.486C2915.2 306.574 2914.39 308.685 2914.72 310.819C2914.78 311.21 2914.93 311.581 2915.16 311.903C2915.4 312.224 2915.7 312.488 2916.06 312.671C2919.7 314.545 2923.18 317.014 2926.9 318.5C2941.31 324.33 2956.52 328.994 2970.31 335.692C2979.2 340.013 2988.77 344.059 2996.69 349.637C3006.96 356.884 3015.73 364.565 3025.37 372.475C3031.1 377.185 3035.92 381.863 3039.82 386.512C3048.87 397.302 3052.33 406.058 3059.08 417.191C3070.2 435.64 3068.29 455.369 3068.95 476.059C3069.58 496.428 3064.25 511.402 3053.6 526.81C3043.15 541.929 3029.98 553.535 3014.11 561.627C3004.45 566.535 2992.23 570.033 2977.44 572.121C2950.45 575.893 2930.07 575.275 2898.71 572.578C2877.01 570.703 2853.72 571.435 2832.52 567.137C2819.05 564.416 2805.08 565.354 2792.39 560.873C2781.46 557.032 2770.06 557.581 2758.77 554.632C2749.21 552.117 2739.43 551.774 2730.21 549.237C2719.07 546.173 2705.3 544.047 2696.53 542.127C2677.11 537.875 2657.72 533.524 2638.35 529.073C2631.95 527.61 2625.16 525.141 2618.3 523.381C2617.54 523.192 2616.88 522.723 2616.47 522.07C2616.06 521.418 2615.92 520.634 2616.09 519.883C2618.51 509.138 2623.3 498.942 2625.79 488.426C2627.75 480.288 2630.28 473.269 2631.34 464.605C2632.03 459.012 2633.28 451.91 2635.08 443.299C2638.63 426.267 2638.42 403.406 2633.58 384.523C2631.86 377.893 2631.3 370.761 2629.53 364.68C2625.57 351.039 2622.28 342.375 2619.68 338.687C2609.69 324.536 2601.72 310.019 2588.94 297.194C2579.65 287.867 2567.33 279.797 2556.9 270.561C2554.37 268.336 2548.31 264.937 2538.7 260.365C2508.14 245.871 2478.1 238.601 2444.41 234.463C2444 234.412 2443.61 234.269 2443.27 234.044C2442.92 233.819 2442.64 233.519 2442.44 233.168C2442.23 232.817 2442.12 232.425 2442.1 232.023C2442.08 231.62 2442.15 231.219 2442.32 230.851C2442.73 229.967 2443.36 229.243 2444.2 228.679C2444.82 228.252 2445.26 227.617 2445.43 226.896C2447.07 219.832 2447.26 213.454 2450.27 206.618C2453.32 199.646 2454.99 191.896 2457.77 185.495C2465.9 166.657 2473.99 145.397 2486.4 128.662C2494.16 118.192 2501.8 107.653 2509.34 97.0455C2511.74 93.6849 2516.7 89.6842 2520.62 85.935C2531.23 75.8457 2543.1 69.3836 2556.21 66.5489C2570.18 63.5464 2579.2 62.4491 2583.27 63.2569C2599.75 66.5489 2614.02 67.1432 2628.85 77.8193C2643.68 88.4955 2659.55 98.0742 2669.54 113.665C2682.82 134.423 2692.88 156.896 2703.32 179.094C2703.65 179.795 2704.17 180.328 2704.87 180.694Z" fill="white"/>
<path d="M2433.41 336.675C2416.77 326.159 2397.96 320.856 2379.68 313.837C2375.48 312.222 2370.81 311.041 2365.67 310.294C2356 308.876 2347.02 305.767 2337.69 305.219C2329.89 304.761 2322.16 304.54 2314.51 304.556C2312.46 304.556 2312.17 303.87 2313.64 302.498C2319.85 296.623 2330.76 295.228 2336.35 293.148C2345 289.947 2351.5 288.02 2355.84 287.364C2365.88 285.832 2380.12 281.123 2393.47 280.506C2411.97 279.622 2430.46 279.553 2448.95 280.3C2461.6 280.803 2472.46 284.872 2484.73 287.89C2504.1 292.645 2521.73 300.197 2537.62 310.545C2549.14 318.067 2560.16 334.206 2567.36 345.866C2579.79 366.029 2585.97 390.445 2589.57 413.58C2590.58 420.004 2590.53 427.297 2590.98 434.155C2592.31 453.907 2590.18 472.424 2584.59 489.707C2580.31 502.944 2570.83 514.42 2562.73 525.645C2556.33 534.469 2548.1 538.173 2539.85 544.734C2539.57 544.957 2539.23 545.099 2538.87 545.144C2538.51 545.189 2538.15 545.134 2537.82 544.986C2537.49 544.838 2537.21 544.603 2537.01 544.307C2536.82 544.012 2536.71 543.669 2536.7 543.316C2536.37 530.621 2534.81 517.956 2532.02 505.321C2529.67 494.599 2530.71 484.038 2527.79 474.025C2522.79 456.81 2518.74 438.43 2511.27 422.953C2507.43 415.028 2503.2 407.308 2498.57 399.795C2490.53 386.741 2478.97 374.51 2468.49 362.303C2459.25 351.535 2445.4 344.265 2433.41 336.675Z" fill="white"/>
<path d="M2102.62 372.384C2115.97 362.92 2132.8 355.764 2148.11 349.82C2161.91 344.456 2180.71 339.48 2204.5 334.892C2222.18 331.509 2241.66 330.983 2260.45 328.971C2263.88 328.621 2267.52 328.644 2271.38 329.04C2284.4 330.411 2297.05 330.457 2310.05 331.303C2320.08 331.966 2329.84 334.961 2339.9 336.927C2344.66 337.872 2349.77 339.236 2355.23 341.019C2362 343.259 2369.17 344.722 2375.49 347.374C2392.11 354.324 2403.13 362.714 2416.89 371.378C2425.79 377.002 2437.23 387.206 2451.21 401.989C2459.76 411.042 2467.43 421.825 2474.22 434.338C2479.23 443.574 2482.17 454.57 2485.83 464.88C2493.94 487.558 2497.73 512.911 2496.76 538.15C2496.56 543.438 2495.26 552.926 2492.86 566.612C2491.48 574.552 2489.33 583.27 2486.4 592.765C2482.82 604.287 2479.51 616.929 2475.75 627.239C2465.04 656.516 2450.14 684.087 2431.04 709.95C2430.61 710.534 2430.03 710.999 2429.37 711.299C2427.43 712.183 2426.28 711.612 2425.94 709.584C2423.57 695.654 2421.65 681.671 2420.18 667.635C2418.51 651.655 2415.76 638.098 2412.42 623.307C2411.08 617.317 2407.98 611.716 2406.61 606.207C2400.56 582.096 2392.56 558.656 2382.61 535.886C2373.73 515.609 2359.46 496.52 2347.02 477.271C2343.69 472.081 2338.58 465.954 2334 461.611C2316.28 444.762 2301.47 428.394 2278.03 415.409C2254.71 402.515 2233.58 390.947 2207.41 385.484C2198.39 383.586 2190.21 380.637 2181.04 379.768C2154.55 377.231 2128.08 370.876 2101.77 376.156C2101.57 376.194 2101.36 376.176 2101.17 376.105C2100.98 376.033 2100.81 375.911 2100.69 375.752C2100.56 375.593 2100.49 375.403 2100.47 375.204C2100.45 375.005 2100.48 374.804 2100.58 374.625C2101.01 373.786 2101.7 373.04 2102.62 372.384Z" fill="white"/>
<path d="M2342.86 857.38C2335.72 871.599 2327.58 885.453 2318.46 898.941C2317.43 900.465 2316.33 900.503 2315.17 899.055C2314.67 898.43 2314.44 897.196 2314.47 895.352C2314.77 881.978 2311.79 868.513 2311.65 856.008C2311.48 841.674 2311.39 829.375 2308.24 814.767C2303.25 791.746 2299.52 768.587 2289.97 747.258C2276.46 717.081 2265.06 687.545 2245.24 659.106C2236.19 646.144 2227.26 630.918 2217.36 619.122C2209.7 609.977 2201.98 600.886 2194.2 591.849C2178.02 573.057 2160.66 555.362 2142.14 538.765C2136.64 533.85 2129.54 529.187 2123.45 524.089C2100.79 505.022 2073.73 494.118 2045.5 487.694C2023.47 482.687 2003.49 475.943 1979.21 476.355C1969.2 476.515 1957.68 474.046 1946.51 475.28C1931.91 476.881 1918.58 476.423 1904.57 478.024C1898.84 478.687 1893.93 481.636 1888.14 482.161C1878.69 483.03 1869.08 483.792 1859.3 484.448C1856.71 484.615 1856.28 483.708 1857.98 481.727C1862.87 476.058 1874.25 470.525 1880.93 466.776C1909.65 450.682 1930.64 440.044 1943.88 434.862C1957.34 429.589 1976.38 424.46 2001 419.477C2009.96 417.67 2019.15 417.533 2028.27 415.91C2054.78 411.178 2086.52 412.207 2111.98 412.618C2120.24 412.74 2129.17 413.632 2138.78 415.293C2150.67 417.35 2162.92 419.042 2174.15 422.105C2187.93 425.87 2201.48 430.259 2214.8 435.273C2224.11 438.794 2231.77 444.898 2240.3 449.767C2269.83 466.639 2294.27 488.7 2313.41 516.224C2322.62 529.469 2327.94 537.15 2329.37 539.268C2348.34 567.365 2357.41 604.514 2368.84 638.028C2371.19 644.863 2373.47 655.562 2376.64 664.09C2380.45 674.354 2380.29 686.722 2382.36 697.581C2383.14 701.696 2383.32 710.452 2382.9 723.848C2382.57 734.181 2379.86 746.526 2378.88 758.163C2378.47 763.192 2377.65 767.711 2376.41 771.719C2370.94 789.444 2367.11 800.791 2364.91 805.759C2357.41 822.745 2351.16 840.851 2342.86 857.38Z" fill="white"/>
<path d="M2178.55 1088.09C2174.3 1097.09 2170.45 1104.49 2167.01 1110.29C2154.24 1131.87 2141.88 1153.39 2127.91 1174.3C2125.92 1177.3 2122.53 1180.91 2120.35 1184.45C2112.42 1197.48 2103.62 1209.9 2093.97 1221.69C2086.95 1230.27 2080.08 1238.93 2073.36 1247.66C2066.62 1256.44 2059.45 1264.88 2051.85 1272.97C2042.89 1282.48 2031.77 1295.92 2020.21 1306.19C1999.06 1324.95 1984.53 1336.92 1976.6 1342.1C1957.54 1354.59 1938.8 1369.08 1919.88 1379.48C1891.56 1395.06 1862.37 1408.86 1832.31 1420.88C1805.35 1431.67 1768.02 1443.01 1742.8 1451.86C1727.99 1457.03 1713.7 1459.63 1698.98 1464.2C1692.19 1466.31 1685.44 1466.99 1678.55 1469.16C1674.56 1470.41 1670.48 1471.34 1666.31 1471.93C1650.13 1474.22 1634.22 1477.83 1618.19 1480.87C1612.38 1481.99 1599.57 1483.43 1590.45 1485.9C1585.76 1487.16 1581.59 1488.04 1577.92 1488.53C1564 1490.4 1550.79 1493.6 1536.67 1495.73C1524.82 1497.51 1468.03 1509.31 1490.24 1476.59C1492.35 1473.47 1493.66 1471.02 1494.14 1469.23C1500.51 1445.62 1483.38 1427.6 1462.45 1418.8C1457.38 1416.68 1450.62 1414.91 1442.19 1413.48C1431.45 1411.67 1421.72 1408.99 1410.76 1411.83C1407.69 1412.62 1404.16 1413.25 1400.18 1413.7C1375.5 1416.45 1350.91 1433.16 1335.47 1451.56C1328.54 1459.82 1321.52 1468 1314.41 1476.09C1304.89 1486.95 1295.6 1499.2 1286.03 1510.75C1265.37 1535.62 1235.16 1546.8 1207.92 1563.26C1181.9 1578.99 1155.31 1592.13 1128.23 1607.86C1107.75 1619.77 1086.15 1629.47 1063.45 1636.99C1057.1 1639.09 1050.68 1639.44 1044.19 1638.04C1043.62 1637.92 1043.08 1637.68 1042.61 1637.34C1042.14 1636.99 1041.75 1636.56 1041.46 1636.06C1041.18 1635.56 1041.01 1635.01 1040.96 1634.44C1040.91 1633.87 1040.99 1633.3 1041.18 1632.76C1047.48 1615.66 1061.47 1599.2 1073.06 1585.18C1077.49 1579.83 1082.57 1573.09 1088.29 1564.95C1097.41 1551.92 1110.13 1539.39 1118.55 1528.49C1135.14 1506.95 1151.74 1485.44 1167.32 1463.22C1175.69 1451.29 1182.25 1437.62 1189.98 1425.2C1193.04 1420.31 1196.85 1412.17 1199.25 1405.77C1207.11 1384.6 1212.43 1363.24 1215.21 1341.69C1216.9 1328.51 1218.51 1317.22 1220.03 1307.83C1222.19 1294.44 1221.58 1281.77 1224.77 1268.15C1228.32 1252.97 1227.27 1238.38 1231.71 1223.25C1233.71 1216.42 1234.95 1209.46 1235.42 1202.38C1236.2 1190.51 1239.84 1180.36 1241.35 1168.86C1242.41 1160.77 1243.48 1154.54 1244.54 1150.18C1251.83 1120.6 1258.7 1094.53 1265.16 1071.95C1268.83 1059.11 1275.76 1045.3 1279.92 1033.89C1284.32 1021.8 1288.74 1009.82 1294.26 997.907C1298.3 989.19 1302.35 980.472 1306.39 971.754C1309.16 965.81 1313.32 958.068 1318.85 948.528C1324.75 938.354 1330.11 926.672 1335.47 917.505C1351.5 890.057 1363.87 871.021 1372.59 860.398C1380.74 850.477 1387.65 839.869 1396.28 830.61C1404.13 822.198 1411.8 813.625 1419.27 804.892C1431.38 790.741 1445.62 778.19 1458.58 764.405C1465.19 757.364 1472.05 750.833 1479.17 744.813C1492.52 733.52 1505.73 720.649 1518.47 710.384C1535.55 696.622 1552.83 683.096 1570.3 669.806C1583.19 660.021 1597.6 651.471 1610.55 641.618C1629.89 626.896 1649.88 616.883 1669.43 604.355C1681.73 596.49 1693.53 590.57 1706.08 583.917C1718.3 577.447 1731.47 572.326 1744.07 566.177C1753.14 561.742 1760.76 558.32 1766.92 555.912C1789.5 547.088 1805.97 541.594 1816.33 539.429C1825.4 537.532 1834.24 534.606 1841.39 533.28C1852.58 531.177 1863.18 528.433 1874.58 527.382C1888.95 526.071 1903.23 524.158 1917.43 521.643C1922.31 520.775 1927.18 520.721 1932.05 521.483C1946.39 523.724 1960.78 525.576 1975.21 527.039C1980.76 527.603 1986.43 528.624 1992.23 530.102C1999.85 532.045 2007.23 533.303 2014.47 536.023C2033.2 543.049 2048.28 549.587 2059.72 555.638C2067.27 559.661 2075.87 567.823 2083.23 572.624C2088.8 576.281 2094.65 579.665 2099.78 583.711C2123.16 602.137 2140.97 618.155 2153.21 631.765C2169.54 649.947 2179.44 661.85 2182.92 667.474C2189.52 678.143 2196.23 688.742 2203.04 699.274C2212.87 714.453 2217.78 729.359 2223.8 746.07C2227.82 757.204 2230.1 769.183 2233.23 781.048C2234.42 785.528 2235.37 790.588 2236.07 796.227C2238.37 814.608 2242.54 834.245 2242.63 855.437C2242.7 875.144 2238.07 897.525 2236.05 918.717C2235.48 924.493 2234.44 930.803 2232.92 937.646C2228.13 959.318 2223.89 980.076 2215.95 1003.46C2206.5 1031.28 2191.78 1060.2 2178.55 1088.09Z" fill="white"/>
<path d="M1255.01 778.372C1235.09 769.548 1222.73 771.331 1204.04 770.234C1194.17 769.64 1177.93 762.004 1181.85 749.842C1187.94 731.027 1233.5 732.902 1249.65 736.674C1261.99 739.554 1273.69 741.521 1285.05 748.539C1301.92 758.941 1320.21 783.265 1321.84 802.834C1322.7 813.106 1323.18 818.753 1323.29 819.774C1324.52 829.764 1325.22 844.944 1320.68 854.248C1320.24 855.147 1319.77 855.163 1319.25 854.294C1313.44 844.327 1308.67 833.262 1302.56 824.323C1287.99 803.039 1276.7 787.951 1255.01 778.372Z" fill="white"/>
<path d="M1226.59 960.026C1194.57 918.488 1155.5 889.089 1100.23 883.488C1089.47 882.39 1079.41 880.699 1068.5 881.43C1040.26 883.351 1011.98 884.471 983.663 884.791C978.837 884.836 975.326 884.516 973.132 883.831C966.597 881.819 960.156 875.875 963.635 868.445C965.868 863.667 977.105 859.118 982.3 856.169C993.348 849.882 1006.3 846.041 1018.1 841.103C1021.41 839.716 1025.74 838.291 1031.1 836.828C1037.12 835.159 1042.67 832.645 1048.64 831.41C1059.73 829.124 1069.68 825.946 1081.26 824.895C1090.31 824.087 1099.28 822.738 1108.18 820.848C1113.07 819.812 1124.64 819.797 1142.88 820.803C1149.93 821.184 1157.69 823.432 1166.17 827.547C1189.42 838.817 1209.43 861.13 1221.91 883.008C1236.2 908.063 1243.56 932.456 1246.5 960.506C1247.22 967.517 1247.15 974.414 1246.31 981.196C1246.3 981.296 1246.26 981.391 1246.19 981.469C1246.13 981.547 1246.04 981.604 1245.94 981.634C1245.85 981.663 1245.74 981.663 1245.64 981.634C1245.54 981.605 1245.46 981.548 1245.39 981.47C1238.93 974.383 1232.63 967.868 1226.59 960.026Z" fill="white"/>
<path d="M1109.28 1107.48C1097.16 1101 1084.7 1095.25 1071.93 1090.22C1055.95 1083.91 1047.1 1080.47 1045.39 1079.91C1033.33 1075.95 1020.03 1075.15 1009.73 1073.71C977.575 1069.23 944.265 1068.16 912.037 1072.98C894.783 1075.57 878.751 1075.98 861.967 1075.54C858.19 1075.45 854.821 1074.81 851.859 1073.62C851.487 1073.47 851.156 1073.24 850.889 1072.94C850.622 1072.65 850.427 1072.3 850.319 1071.92C850.21 1071.54 850.191 1071.15 850.262 1070.76C850.334 1070.37 850.494 1070.01 850.731 1069.69C872.804 1040.47 920.829 1021 960.039 1009.63C960.211 1009.59 964.082 1008.26 971.651 1005.63C979.62 1002.89 989.658 1002.57 995.675 1001.54C1009.15 999.21 1018.06 997.892 1022.4 997.587C1031.36 996.947 1040.88 1001.08 1050.05 1002.43C1072.33 1005.7 1097.7 1021.75 1116.36 1033.84C1118.95 1035.51 1121.99 1038.04 1125.5 1041.43C1138.9 1054.35 1153.48 1066.97 1163.42 1082.74C1174.89 1100.96 1184.73 1119.97 1192.92 1139.78C1196.45 1148.36 1196.4 1155.51 1196 1164.43C1195.97 1164.94 1195.8 1165.44 1195.51 1165.87C1195.21 1166.3 1194.8 1166.64 1194.32 1166.86C1193.84 1167.08 1193.31 1167.17 1192.78 1167.12C1192.26 1167.07 1191.75 1166.88 1191.32 1166.58C1179.08 1157.75 1168.66 1147.69 1155.64 1138.55C1140.34 1127.78 1125.88 1116.35 1109.28 1107.48Z" fill="white"/>
<path d="M2197.4 1223.48C2201.76 1221.19 2206.08 1218.84 2210.35 1216.44C2218.96 1211.57 2226.81 1203.79 2234.92 1198.99C2251.94 1188.89 2273.35 1178.07 2293.83 1171.81C2302.95 1169.02 2312.07 1165.41 2321.12 1164.02C2336.89 1161.58 2352.76 1161.01 2368.75 1162.32C2383.77 1163.56 2394.65 1168.75 2408.07 1174.51C2423.26 1181 2434.71 1190.24 2445.47 1201.96C2459.98 1217.74 2469.62 1230.08 2474.39 1239C2483.3 1255.71 2494.08 1271.58 2500.74 1289.06C2504.56 1299.12 2508.39 1309.18 2512.21 1319.22C2514.72 1325.83 2515.71 1333.8 2518.6 1341.03C2521.02 1347.09 2520.72 1352.85 2522.25 1358.24C2526.29 1372.42 2534.45 1424.84 2514.23 1427.08C2475.87 1431.33 2425.68 1327.11 2413.64 1308.11C2406.84 1297.38 2402.24 1289.93 2399.84 1285.77C2382.73 1255.92 2361.67 1222.47 2322.32 1219.98C2301.73 1218.68 2279.4 1218.65 2255.35 1219.89C2242.68 1220.53 2230.76 1223.36 2219.5 1224.55C2211.81 1225.37 2204.22 1227.59 2196.42 1226.68C2196.22 1226.65 2196.04 1226.58 2195.88 1226.46C2195.72 1226.35 2195.6 1226.2 2195.52 1226.02C2195.44 1225.85 2195.41 1225.66 2195.42 1225.47C2195.44 1225.28 2195.51 1225.1 2195.62 1224.94C2195.99 1224.38 2196.59 1223.89 2197.4 1223.48Z" fill="white"/>
<path d="M1129.81 1221.72C1139.11 1224.09 1146.02 1226.91 1150.52 1230.15C1159.54 1236.67 1170.33 1250.77 1163.87 1261.72C1153.9 1278.64 1132.84 1290.32 1115.4 1297.29C1083.63 1310.02 1053.61 1316.61 1025.34 1317.07C1008.65 1317.34 995.173 1315.99 984.908 1313C967.349 1307.9 953.903 1289.48 950.236 1270.68C947.697 1257.59 944.946 1243.98 944.03 1231.16C943.011 1216.77 943.325 1205.04 944.97 1195.97C947.18 1183.81 957.852 1183.84 968.665 1185.85C980.607 1188.04 992.337 1188.75 1004.21 1191.4C1015.19 1193.85 1026.61 1195.08 1037.02 1197.71C1052.51 1201.64 1066.5 1204.64 1083.07 1209.76C1094.18 1213.2 1105.5 1215.89 1117.02 1217.83C1121.06 1218.52 1125.67 1220.64 1129.81 1221.72Z" fill="white"/>
<path d="M2075.89 1340.32C2088.66 1333.12 2104.01 1325.87 2119.08 1319.29C2126.74 1315.95 2136.24 1314.19 2145.03 1311.17C2155.47 1307.56 2167.01 1308.25 2177.89 1307.06C2183.03 1306.51 2188.43 1306.56 2194.09 1307.22C2204.74 1308.47 2214.94 1307.72 2225.05 1310.81C2239.37 1315.16 2248.45 1318.64 2252.29 1321.23C2262.27 1328 2272.34 1334.64 2282.47 1341.17C2301.94 1353.65 2315.81 1370.18 2331.63 1386.41C2336.61 1391.51 2343.19 1400.56 2351.37 1413.54C2360.4 1427.85 2370.58 1442.49 2377.7 1456.75C2394.27 1490.01 2405.43 1524.95 2411.2 1561.59C2413.76 1577.8 2416.07 1598.99 2397.68 1607.47C2396.96 1607.81 2396.23 1607.82 2395.5 1607.52C2384.28 1602.97 2376.88 1596.71 2368.42 1588.36C2357.39 1577.53 2351.26 1564.11 2342.44 1551.74C2327.88 1531.3 2313.9 1510.5 2300.5 1489.33C2297.17 1484.05 2292.65 1477.7 2286.94 1470.26C2277.82 1458.33 2269.69 1444.02 2261.86 1433.41C2255.53 1424.83 2251.07 1419.37 2248.48 1417.02C2240.61 1409.89 2233.13 1401.2 2225.28 1395.37C2209.7 1383.8 2190.42 1376.9 2172.51 1373.95C2161.79 1372.19 2151.19 1369.26 2140.8 1368.67C2123.68 1367.73 2106.24 1365.95 2089.01 1366.11C2088.23 1366.12 2081.99 1366.7 2070.3 1367.84C2062.68 1368.59 2055.04 1368.2 2047.36 1366.68C2045.3 1366.27 2044 1365.72 2043.45 1365.03C2042.51 1363.87 2042.68 1362.88 2043.95 1362.06C2054.88 1354.97 2066.12 1345.85 2075.89 1340.32Z" fill="white"/>
<path d="M1183.47 1385.68C1177.5 1407.6 1158.48 1425 1139.21 1435.24C1120.22 1445.37 1095.04 1455.79 1073.65 1447.36C1060.78 1442.3 1052.24 1432.42 1048.02 1417.73C1044.38 1405.09 1047.27 1397.52 1052.98 1386.87C1055.41 1382.37 1058.87 1378.87 1063.35 1376.37C1079.62 1367.32 1087.35 1365.67 1102.3 1363.87C1114.31 1362.43 1126.02 1365.35 1137.8 1367.23C1143.94 1368.2 1150.14 1369.8 1156.39 1372.03C1165.02 1375.07 1176.11 1377.33 1182.88 1383.62C1183.5 1384.2 1183.69 1384.88 1183.47 1385.68Z" fill="white"/>
<path d="M1966.07 1508.85C1957.51 1505.65 1949.12 1505.72 1940.47 1502.95C1932.01 1500.25 1922.18 1499.66 1914.49 1498.01C1908.93 1496.83 1903.32 1495.86 1897.66 1495.11C1881.77 1493.03 1866.52 1489.56 1850.72 1487.8C1850.34 1487.75 1849.98 1487.6 1849.69 1487.34C1849.4 1487.09 1849.2 1486.75 1849.12 1486.38C1848.78 1484.85 1849.44 1483.78 1851.1 1483.15C1859.21 1480.11 1867.08 1477.14 1875.52 1474.99C1897.76 1469.37 1914.28 1466.24 1925.07 1465.6C1937.01 1464.88 1948.92 1463.78 1960.78 1462.28C1974.96 1460.52 1988.92 1460.66 2002.74 1462.17C2020.02 1464.04 2038.05 1465.28 2054.15 1468.84C2076.15 1473.74 2096.56 1479.82 2116.8 1490.31C2137.36 1500.96 2154.19 1511.58 2167.29 1522.16C2178.89 1531.51 2194.28 1546.86 2213.46 1568.2C2227.02 1583.29 2237.01 1603.36 2247.92 1620.46C2264.35 1646.2 2272.48 1675.03 2280.66 1700.72C2283.86 1710.8 2284.19 1720.57 2285.25 1730.92C2286.2 1739.99 2285.6 1749.91 2283.44 1760.66C2282.11 1767.36 2278.58 1772.09 2272.86 1774.86C2272.15 1775.2 2271.42 1775.27 2270.65 1775.09C2265.13 1773.78 2260.78 1771.29 2257.58 1767.61C2247.79 1756.34 2237.66 1743.28 2227.21 1728.45C2216.47 1713.21 2204.52 1700.22 2192.79 1686.09C2185.81 1677.65 2178.31 1669.24 2170.3 1660.88C2159.86 1649.95 2149.4 1638.11 2139.39 1627.93C2124.3 1612.6 2109.16 1597.31 2093.99 1582.05C2082.97 1570.96 2071.62 1556.13 2056.34 1545.57C2046.67 1538.89 2033.21 1531.47 2015.97 1523.3C2008.78 1519.89 2000.53 1518.32 1992.75 1515.8C1984.4 1513.1 1974.81 1512.12 1966.07 1508.85Z" fill="white"/>
<path d="M1333.66 1547.3C1339.32 1534.98 1343.65 1522.66 1352.89 1512.24C1363.33 1500.45 1373.03 1490.65 1382.01 1482.81C1392.87 1473.37 1414.41 1466.56 1426.35 1478.7C1428.48 1480.86 1430.41 1484.74 1432.13 1490.33C1434.06 1496.55 1439.09 1505.24 1437.68 1511.62C1432.08 1536.7 1433.07 1565.25 1422.14 1588.57C1412.43 1609.28 1403.64 1623.25 1381.24 1630.22C1366.64 1634.77 1344.24 1630.61 1334.69 1616.98C1322.8 1599.93 1321.58 1582.3 1327.83 1563.12C1330.12 1556.1 1332.06 1550.82 1333.66 1547.3Z" fill="white"/>
<path d="M1553.99 1570.35C1552.02 1558.66 1549.59 1542.66 1554.34 1533.43C1557.45 1527.39 1566.8 1521.36 1573.74 1520.81C1586.1 1519.82 1604.98 1518.82 1618.94 1522.73C1628.39 1525.36 1636.45 1525.84 1644 1529.04C1650.72 1531.89 1657.58 1534.4 1664.57 1536.58C1674.06 1539.54 1692.96 1546.39 1721.24 1557.13C1736.62 1562.99 1750.65 1570.64 1763.02 1576.56C1771.2 1580.5 1781.8 1584.2 1787.96 1591.08C1792.82 1596.55 1794.07 1604.96 1796.54 1612.02C1798.39 1617.33 1794.35 1625.17 1792.02 1630.2C1787.16 1640.67 1772.11 1653.77 1761.65 1659.09C1750.46 1664.81 1739.38 1670.7 1728.41 1676.76C1722.38 1680.1 1714.01 1685.52 1703.31 1693.02C1687.7 1703.93 1670.3 1713.87 1651.1 1722.83C1646.55 1724.95 1642.64 1724.66 1639.34 1721.96C1628.34 1712.91 1621.78 1698.92 1614.54 1687.1C1611.13 1681.5 1606.18 1674.01 1599.71 1664.63C1581.89 1638.77 1571.64 1611.91 1559.33 1586.26C1556.6 1580.59 1554.82 1575.28 1553.99 1570.35Z" fill="white"/>
<path d="M484.632 1963.44C512.064 1950.59 538.087 1938.77 565.331 1922.7C579.882 1914.13 595.726 1906.31 609.29 1897.9C636.581 1880.96 664.719 1864.64 690.6 1845.73C700.356 1838.64 711.851 1831.74 720.501 1825.54C755.057 1800.88 786.76 1776.42 815.611 1752.16C824.497 1744.68 833.688 1738.24 841.257 1731.36C858.723 1715.51 876.306 1701.8 894.477 1684.99C900.573 1679.34 908.456 1672.28 918.125 1663.8C926.94 1656.08 938.811 1641.12 951.388 1630.43C956.058 1626.45 960.211 1622.48 963.846 1618.51C985.731 1594.72 1007.26 1570.51 1029.81 1547.33C1034.16 1542.86 1038.33 1538.23 1042.31 1533.45C1049.04 1525.42 1055.55 1520.81 1064.48 1529.31C1072.97 1537.36 1050.49 1559.12 1045.49 1565.16C1034.23 1578.81 1019.04 1591.72 1006.54 1606.03C995.463 1618.74 982.793 1628.96 971.134 1640.99C965.022 1647.3 958.792 1653.05 952.445 1658.25C936.32 1671.42 922.262 1686.69 906.113 1699.56C883.805 1717.37 863.189 1736.82 840.787 1754.54C828.751 1764.07 809.405 1780.74 792.833 1791.71C781.267 1799.36 771.136 1807.03 762.438 1814.73C760.087 1816.8 756.232 1819.43 750.872 1822.62C725.532 1837.66 703.67 1855.65 677.084 1870.99C668.841 1875.76 659.36 1881.65 648.64 1888.66C629.67 1901.1 606.68 1912.85 589.779 1922.66C562.44 1938.55 539.356 1949.06 505.6 1964.68C481.623 1975.74 456.494 1985.5 431.717 1995.54C421.727 1999.59 403.133 2005.71 388.887 2012.75C388.417 2012.99 387.895 2013.11 387.365 2013.11C386.836 2013.11 386.315 2012.98 385.846 2012.74C385.378 2012.5 384.976 2012.15 384.675 2011.73C384.373 2011.31 384.182 2010.82 384.116 2010.31L383.975 2009.35C383.893 2008.72 384.026 2008.08 384.353 2007.53C384.68 2006.98 385.183 2006.55 385.785 2006.31C392.249 2003.68 398.596 2000.04 404.426 1997.76C420.912 1991.32 437.328 1984.73 453.673 1977.98C463.898 1973.75 474.265 1968.31 484.632 1963.44Z" fill="white"/>
<path d="M1027.41 2359.88C1025.55 2326.2 1027.53 2290.27 1028.04 2255.2C1028.17 2245.92 1028.98 2235.56 1030.49 2224.13C1032.65 2207.87 1033.47 2191.05 1036.08 2175.48C1039.14 2157.18 1042.05 2138.86 1044.83 2120.55C1045.3 2117.47 1046.76 2110.78 1049.2 2100.5C1051.36 2091.4 1051.6 2082.41 1053.88 2073.47C1056.79 2062.23 1057.71 2050.43 1060.7 2039.85C1071.09 2002.97 1080.16 1965.78 1089.7 1928.7C1093.23 1915.04 1097.3 1901.54 1101.93 1888.19C1101.94 1888.09 1103.03 1884.41 1105.19 1877.12C1106.84 1871.59 1109.87 1866.17 1111.56 1861.3C1117.44 1844.08 1123.24 1826.84 1128.96 1809.59C1137.7 1783.22 1143.83 1766.12 1147.34 1758.27C1163.26 1722.6 1172.96 1692.63 1187.56 1660.51C1194.98 1644.16 1202.38 1627.81 1209.78 1611.45C1212.29 1605.87 1218.94 1600.5 1225.2 1604.89C1232.39 1609.92 1232.56 1615.8 1228.75 1623.43C1216.12 1648.78 1208.42 1665.14 1205.66 1672.51C1198.02 1692.93 1186.48 1714.01 1179.48 1731.95C1175.37 1742.52 1171.35 1753.1 1167.42 1763.71C1162.1 1778.03 1156.48 1792.25 1150.54 1806.34C1139.09 1833.55 1130.98 1857.39 1122.31 1883.5C1115.87 1902.91 1108.04 1923.53 1101.27 1943.72C1099.36 1949.45 1096.89 1958.19 1093.86 1969.96C1091.02 1981 1086.48 1992.09 1084.23 2003.18C1081.64 2015.73 1077.46 2027.57 1074.49 2039.98C1071.31 2053.3 1068.84 2063.25 1067.09 2069.82C1058.58 2101.68 1055.29 2125.62 1049.95 2153.85C1048.42 2161.92 1048.68 2174.11 1045.42 2185.29C1044.26 2189.27 1043.55 2193.26 1043.3 2197.27C1042.22 2214.21 1038.86 2232.95 1037.73 2247.63C1035.33 2278.65 1035.21 2306.98 1034.53 2336.12C1033.94 2360.86 1036.13 2383.81 1038.15 2407.75C1039.56 2424.67 1044.03 2438.7 1041.7 2455.46C1041.68 2455.64 1041.61 2455.82 1041.52 2455.97C1041.42 2456.13 1041.29 2456.27 1041.14 2456.38C1040.99 2456.48 1040.81 2456.56 1040.63 2456.6C1040.45 2456.64 1040.26 2456.64 1040.08 2456.6C1039.81 2456.54 1039.59 2456.22 1039.42 2455.64C1033.52 2436.8 1032.46 2416.23 1029.64 2396.78C1027.95 2385 1028.11 2372.79 1027.41 2359.88Z" fill="white"/>
<path d="M1845.92 2661.33L1731.33 2598.78L1631.69 2779.89L1358.57 2630.8L1460.12 2450.73L1344.57 2387.66L1134.8 2768.95L1211.2 2810.65L1247.91 2743.93L1284.83 2677.94L1326.85 2700.87L1290.88 2767.38C1256.27 2830.3 1255.87 2834.41 1271.14 2842.76C1286.42 2851.1 1289.69 2848.54 1324.3 2785.63L1361.23 2719.64L1403.25 2742.58L1367.28 2809.09C1332.66 2872 1332.26 2876.12 1347.54 2884.46C1362.82 2892.8 1366.09 2890.24 1400.7 2827.33L1437.63 2761.34L1479.64 2784.28L1443.67 2850.79C1409.06 2913.7 1408.66 2917.82 1423.94 2926.16C1439.22 2934.5 1442.48 2931.95 1477.1 2869.03L1514.02 2803.05L1556.04 2825.98L1520.07 2892.49C1485.46 2955.41 1485.05 2959.52 1500.33 2967.86C1515.61 2976.2 1518.88 2973.65 1553.49 2910.74L1590.42 2844.75L1632.44 2867.68L1596.47 2934.19L1559.76 3000.92L1636.15 3042.62L1845.92 2661.33Z" fill="white"/>
<path fill-rule="evenodd" clip-rule="evenodd" d="M2155.64 1965.22C2144.27 2000.55 2089.44 2170.17 2033.35 2340.97C1977.47 2512.51 1930.12 2652.75 1927.9 2653.4C1925.68 2654.05 1885.26 2633.84 1838.25 2607.56L1753.05 2560.43L1796.67 2478.89L1774.5 2446.95L1751.59 2415.24L1850.19 2236.03L1775.92 2196.11L1702.17 2155.23L1603.58 2334.44L1564.41 2332.27L1525.46 2330.84L1502.7 2371.09L1480.15 2412.08L1392.29 2364.12C1343.59 2337.54 1305.48 2314.26 1306.53 2312.35C1316.93 2295.72 1814.7 1710.32 1819.14 1709.03C1822.09 1708.16 1842.24 1716.68 1862.51 1728.37L1899.97 1749.43L2029.33 1732.67L2086.93 1850.87L2131.81 1875.37L2175.95 1900.08L2155.64 1965.22Z" fill="white"/>
<path d="M1691.14 2604.11L1758.27 2482.1L1734.84 2451.33L1712.15 2420.36L1736.98 2370.7C1751.67 2344.01 1770.95 2305.57 1780.48 2285.99L1797.67 2251.37L1713.2 2204.02L1620.47 2370.31L1582.05 2367.93L1543.41 2364.81L1406.53 2613.6L1511.57 2670.94C1568.87 2702.22 1618.1 2727.85 1620.32 2727.2C1622.54 2726.56 1654.43 2670.84 1691.14 2604.11Z" fill="white"/>
<path d="M519.083 1741.56L458.403 1669.95L345.021 1766.02L200.4 1595.35L314.794 1500.47L253.608 1428.26L14.9092 1630.53L55.3625 1678.27L97.1348 1642.87L138.862 1608.03L161.111 1634.28L119.89 1669.73C80.5044 1703.1 79.1743 1705.77 87.265 1715.31C95.3556 1724.86 98.2027 1723.99 137.588 1690.61L179.315 1655.77L201.564 1682.02L160.343 1717.47C120.958 1750.84 119.628 1753.51 127.718 1763.05C135.809 1772.6 138.656 1771.73 178.041 1738.35L219.768 1703.51L242.017 1729.76L200.796 1765.21C161.411 1798.58 160.081 1801.25 168.172 1810.79C176.262 1820.34 179.109 1819.47 218.495 1786.09L260.221 1751.25L282.471 1777.5L241.25 1812.95C201.864 1846.32 200.534 1848.99 208.625 1858.53C216.715 1868.08 219.563 1867.21 258.948 1833.83L300.675 1798.99L322.924 1825.24L281.703 1860.69L239.931 1896.08L280.384 1943.82L519.083 1741.56Z" fill="white"/>
<path fill-rule="evenodd" clip-rule="evenodd" d="M905.779 1353.39C889.075 1374.21 808.674 1474.12 727.125 1574.49C645.531 1675.42 577.703 1757.5 576.049 1757.36C574.396 1757.22 552.516 1733.22 527.784 1703.43L482.825 1649.76L533.043 1606.19L526.409 1579L519.225 1551.77L631.413 1456.7L591.926 1410.71L553.035 1364.21L440.847 1459.27L415.163 1447.72L389.434 1436.71L363.819 1457.9L338.159 1479.65L291.638 1424.75C265.849 1394.31 246.31 1368.83 247.503 1367.82C258.75 1359.32 742.953 1094.09 746.26 1094.36C748.465 1094.54 759.772 1105.47 770.345 1118.55L790.021 1142.38L881.014 1164.46L889.177 1258.79L912.943 1286.83L936.158 1314.83L905.779 1353.39Z" fill="white"/>
<path d="M430.105 1663.17L506.489 1598.44L498.708 1571.72L491.477 1545.04L520.9 1518.05C537.609 1503.9 560.422 1483.03 571.852 1472.32L592.278 1453.47L547.87 1399.85L442.934 1487.75L417.801 1476.24L392.714 1464.18L236.963 1596.15L292.586 1661.8C322.926 1697.6 349.312 1727.53 350.966 1727.67C352.619 1727.8 388.333 1698.57 430.105 1663.17Z" fill="white"/>
</svg>
