<?xml version="1.0" encoding="UTF-8" standalone="no"?>
<svg
   id="Calque_1"
   data-name="Calque 1"
   viewBox="0 0 512 512"
   version="1.1"
   xmlns="http://www.w3.org/2000/svg"
   xmlns:svg="http://www.w3.org/2000/svg"
   xmlns:rdf="http://www.w3.org/1999/02/22-rdf-syntax-ns#"
   xmlns:cc="http://creativecommons.org/ns#"
   xmlns:dc="http://purl.org/dc/elements/1.1/">
  <defs
     id="defs4">
    <style
       id="style2">.cls-1{fill:#e41513;}</style>
  </defs>
  <title
     id="title6">logo_kaisen-linux-picto-red_no-background</title>
  <path
     class="cls-1"
     d="m 481.73307,328.27593 c 23.95832,34.07895 -0.10934,88.11355 -4.92013,95.61229 1.89972,-10.92712 -3.84044,-36.31901 -34.44094,-42.95724 -30.60049,-6.63822 -50.4997,49.07642 -24.27265,88.86479 H 206.62928 c 41.20612,-22.71474 103.10413,-35.22629 107.77826,-78.7572 2.7334,-25.95191 -32.99223,-47.80614 -61.33767,-29.7081 10.09994,-29.25736 20.30922,-56.3293 132.43359,-30.18617 -101.39574,-73.06144 -113.98309,-105.80182 19.06552,-147.10633 -45.63424,-16.1175 -122.34732,-29.33931 -148.26002,-4.58939 0.83369,-14.46477 6.98386,-44.74655 28.70078,-64.19682 -21.32058,-4.65769 -53.30144,-10.28515 -78.94081,10.49003 -1.21636,-76.681051 83.20493,-73.566822 140.60648,-83.674406 -57.85257,38.244914 -46.46792,74.400016 1.84505,79.399176 84.80397,8.75535 152.04579,15.5848 160.39635,107.97359 -71.90228,-50.46963 -118.90322,-8.76902 -98.11566,29.74908 16.18177,29.95396 46.95994,34.93946 70.93192,69.0867 z"
     id="path8"
     style="stroke-width:1" />
  <path
     class="cls-1"
     d="m 326.87187,192.91625 c -38.82805,-5.46356 -51.60673,6.93872 -70.01623,15.98091 -28.14043,13.83647 -40.7551,-37.69855 -12.30033,-74.0722 -39.15606,7.89484 -53.12377,34.42042 -60.29897,48.73495 C 176.91714,146.68088 169.65995,127.8316 203.29453,66.202656 160.22969,97.044448 147.61502,123.6793 131.1189,178.54709 119.55659,163.22181 112.99641,128.71943 131.73392,96.593704 64.492098,142.74712 112.05339,197.56028 67.184504,279.93709 54.97984,302.365 17.860168,315.45023 7.0495414,280.11466 -6.398823,330.1472 14.648414,376.81966 54.97984,394.52159 c -0.615016,-15.50285 1.804049,-30.04958 13.120356,-43.10748 1.84505,10.44905 3.553429,19.84637 12.054326,27.04461 -0.396344,-12.96229 7.01119,-26.82607 14.7604,-37.22049 1.093363,10.09392 3.908773,18.45317 11.985988,21.41715 24.72367,-73.03413 65.50611,-64.86611 68.51286,-60.09915 3.00675,4.76695 3.28009,35.81363 -12.30033,51.71259 -22.46861,22.94694 -55.51551,27.75488 -66.06646,30.88276 2.159392,9.83441 10.52362,13.11255 19.68053,16.54093 -12.90168,10.5993 -27.06073,9.56123 -41.780129,8.3729 12.108995,27.3178 61.720339,51.04331 86.580679,42.19234 -4.10011,-7.78557 -8.99291,-15.32528 -12.21833,-23.52062 -7.05219,-17.85218 0.64235,-30.5413 18.3685,-33.91505 14.7604,-2.80007 35.39762,4.91721 44.2812,7.14361 C 196.379,364.17152 236.21842,285.45529 316.48493,300.2069 239.90852,238.27745 304.22559,203.07847 326.87187,192.91625 Z M 126.1851,253.79396 c 0,-16.80044 8.20023,-42.61576 11.83566,-46.86368 3.63543,-4.24791 14.24105,-2.73178 31.62552,5.85967 -22.81028,12.63448 -30.75083,22.60548 -43.46118,41.00401 z"
     id="path10"
     style="stroke-width:1" />
  <metadata
     id="metadata35">
    <rdf:RDF>
      <cc:Work
         rdf:about="">
        <dc:title>logo_kaisen-linux-picto-red_no-background</dc:title>
      </cc:Work>
    </rdf:RDF>
  </metadata>
</svg>
