<svg width="512" height="512" viewBox="0 0 4096 4096" fill="none" xmlns="http://www.w3.org/2000/svg">
<path d="M802.434 3351.82L609.922 3559.18L612.482 3540.23L613.506 3589.9V3637H522.37V3467.53V3221.77H613.506V3378.95L609.41 3483.91L598.658 3471.11L696.962 3351.82H802.434ZM635.522 3517.7L695.938 3453.7L809.09 3637H706.178L635.522 3517.7ZM913.326 3641.1C894.553 3641.1 878.169 3637.26 864.174 3629.58C850.35 3621.73 839.598 3610.97 831.918 3597.32C824.409 3583.5 820.654 3567.71 820.654 3549.96C820.654 3533.23 825.177 3518.73 834.222 3506.44C843.438 3493.98 855.982 3484.42 871.854 3477.77C883.289 3472.82 895.747 3469.15 909.23 3466.76C922.713 3464.2 936.195 3462.49 949.678 3461.64C963.331 3460.79 976.131 3460.36 988.078 3460.36L1001.39 3476.74L988.078 3504.9C982.105 3505.07 975.875 3505.59 969.39 3506.44C963.075 3507.12 957.102 3508.15 951.47 3509.51C945.838 3510.71 941.315 3512.07 937.902 3513.61C932.611 3515.83 927.577 3519.15 922.798 3523.59C918.19 3527.86 915.886 3535.11 915.886 3545.35C915.886 3558.83 919.555 3568.65 926.894 3574.79C934.403 3580.77 942.851 3583.75 952.238 3583.75C957.187 3583.75 962.051 3583.15 966.83 3581.96C971.779 3580.77 976.131 3579.31 979.886 3577.61C983.641 3575.73 986.371 3573.85 988.078 3571.98L1002.93 3590.92L992.686 3612.94C984.835 3619.76 974.425 3626.16 961.454 3632.14C948.654 3638.11 932.611 3641.1 913.326 3641.1ZM1080.24 3637H992.686V3594.5H988.078V3443.46C988.078 3430.83 984.579 3422.56 977.582 3418.63C970.755 3414.71 960.942 3412.74 948.142 3412.74C937.219 3412.74 925.785 3413.6 913.838 3415.3C902.062 3417.01 890.627 3419.4 879.534 3422.47C868.441 3425.37 858.713 3428.79 850.35 3432.71L831.406 3378.44C838.403 3374.17 848.473 3369.65 861.614 3364.87C874.926 3359.92 889.859 3355.74 906.414 3352.33C922.969 3348.91 939.779 3347.21 956.846 3347.21C986.713 3347.21 1010.69 3350.71 1028.78 3357.7C1046.87 3364.7 1059.93 3376.05 1067.95 3391.75C1076.14 3407.45 1080.24 3428.45 1080.24 3454.73V3637ZM1202.19 3642.63C1186.83 3642.63 1174.37 3637.6 1164.81 3627.53C1155.26 3617.29 1150.48 3604.74 1150.48 3589.9C1150.48 3579.83 1152.87 3570.53 1157.65 3561.99C1162.6 3553.29 1169.25 3546.29 1177.61 3541C1186.15 3535.71 1195.7 3533.06 1206.29 3533.06C1221.99 3533.06 1234.45 3538.1 1243.66 3548.17C1252.88 3558.07 1257.49 3570.44 1257.49 3585.29C1257.49 3595.36 1255.01 3604.74 1250.06 3613.45C1245.28 3622.15 1238.71 3629.23 1230.35 3634.7C1221.99 3639.99 1212.6 3642.63 1202.19 3642.63ZM1202.19 3458.82C1186.83 3458.82 1174.37 3453.79 1164.81 3443.72C1155.26 3433.48 1150.48 3420.94 1150.48 3406.09C1150.48 3396.02 1152.87 3386.72 1157.65 3378.18C1162.6 3369.48 1169.25 3362.48 1177.61 3357.19C1186.15 3351.9 1195.7 3349.26 1206.29 3349.26C1221.99 3349.26 1234.45 3354.29 1243.66 3364.36C1252.88 3374.26 1257.49 3386.63 1257.49 3401.48C1257.49 3411.55 1255.01 3420.94 1250.06 3429.64C1245.28 3438.34 1238.71 3445.43 1230.35 3450.89C1221.99 3456.18 1212.6 3458.82 1202.19 3458.82ZM1314.91 3618.06L1324.12 3554.06C1326.85 3556.45 1332.48 3559.69 1341.02 3563.78C1349.72 3567.71 1359.96 3571.29 1371.74 3574.54C1383.51 3577.61 1395.63 3579.14 1408.09 3579.14C1422.94 3579.31 1433.52 3577.78 1439.83 3574.54C1446.32 3571.12 1449.56 3565.83 1449.56 3558.66C1449.56 3553.71 1447.26 3549.45 1442.65 3545.86C1438.04 3542.11 1431.81 3538.61 1423.96 3535.37C1416.11 3532.13 1407.41 3528.8 1397.85 3525.38C1377.03 3517.87 1360.47 3509.6 1348.19 3500.55C1336.07 3491.51 1327.36 3481.35 1322.07 3470.09C1316.78 3458.65 1314.22 3445.68 1314.39 3431.18C1314.39 3412.74 1319.68 3397.38 1330.27 3385.1C1341.02 3372.81 1355.35 3363.59 1373.27 3357.45C1391.19 3351.3 1410.99 3348.23 1432.67 3348.23C1456.05 3348.23 1475.59 3350.28 1491.29 3354.38C1506.99 3358.3 1518 3362.06 1524.31 3365.64L1516.12 3430.66C1512.71 3427.59 1507.33 3424.35 1499.99 3420.94C1492.66 3417.52 1484.38 3414.62 1475.16 3412.23C1465.95 3409.84 1456.73 3408.65 1447.51 3408.65C1431.64 3408.65 1420.38 3410.27 1413.72 3413.51C1407.24 3416.75 1403.99 3421.62 1403.99 3428.1C1403.99 3435.78 1407.49 3441.42 1414.49 3445C1421.49 3448.58 1432.5 3453.19 1447.51 3458.82C1470.04 3467.02 1488.13 3475.29 1501.79 3483.66C1515.61 3492.02 1525.59 3501.49 1531.74 3512.07C1538.05 3522.65 1541.21 3535.45 1541.21 3550.47C1541.21 3580.17 1530.2 3602.7 1508.19 3618.06C1486.34 3633.42 1457.24 3641.1 1420.89 3641.1C1405.19 3641.1 1390.26 3639.82 1376.09 3637.26C1361.92 3634.87 1349.47 3631.88 1338.71 3628.3C1328.13 3624.71 1320.2 3621.3 1314.91 3618.06ZM1724.84 3641.1C1678.76 3641.1 1643.6 3628.04 1619.37 3601.93C1595.13 3575.65 1583.01 3539.38 1583.01 3493.13C1583.01 3465.48 1588.65 3440.73 1599.91 3418.89C1611.17 3397.04 1627.39 3379.81 1648.55 3367.18C1669.88 3354.55 1695.65 3348.23 1725.86 3348.23C1741.05 3348.23 1755.73 3350.02 1769.89 3353.61C1784.06 3357.02 1796.77 3363.08 1808.04 3371.78C1819.3 3380.32 1828.35 3392.09 1835.17 3407.11C1842 3422.13 1845.5 3441.07 1845.67 3463.94C1845.67 3474.18 1845.33 3483.91 1844.65 3493.13C1844.13 3502.34 1843.45 3510.02 1842.6 3516.17H1630.63L1635.75 3470.09H1759.65C1760.51 3456.26 1759.82 3444.74 1757.61 3435.53C1755.56 3426.14 1751.72 3419.14 1746.09 3414.54C1740.62 3409.93 1733.2 3407.62 1723.81 3407.62C1713.06 3407.62 1703.93 3410.61 1696.42 3416.58C1689.08 3422.39 1683.54 3432.46 1679.78 3446.79C1676.03 3461.13 1674.32 3481.01 1674.66 3506.44C1675 3522.99 1677.99 3536.39 1683.62 3546.63C1689.42 3556.7 1697.62 3564.04 1708.2 3568.65C1718.78 3573.26 1731.49 3575.56 1746.34 3575.56C1755.56 3575.56 1765.2 3574.88 1775.27 3573.51C1785.34 3572.15 1794.64 3570.35 1803.17 3568.14C1811.88 3565.92 1818.53 3563.61 1823.14 3561.22L1837.48 3610.38C1831.16 3615.5 1822.37 3620.45 1811.11 3625.22C1800.02 3629.83 1787.05 3633.67 1772.2 3636.74C1757.52 3639.65 1741.73 3641.1 1724.84 3641.1ZM1908.49 3637V3351.82H1992.97L1995.02 3385.1C2001 3379.12 2008.85 3373.32 2018.57 3367.69C2028.3 3362.06 2039.14 3357.36 2051.09 3353.61C2063.03 3349.85 2075.41 3347.89 2088.21 3347.72C2117.22 3347.21 2138.98 3355.14 2153.49 3371.53C2167.99 3387.74 2175.25 3416.33 2175.25 3457.29V3637H2082.57V3474.18C2082.57 3453.36 2079.93 3439.11 2074.64 3431.43C2069.35 3423.58 2059.88 3419.91 2046.22 3420.42C2041.78 3420.42 2036.84 3421.11 2031.37 3422.47C2025.91 3423.84 2020.45 3425.89 2014.99 3428.62C2009.7 3431.35 2004.92 3434.76 2000.65 3438.86V3637H1908.49ZM2456.13 3637V3220.74H2498.11V3637H2456.13ZM2602.29 3637V3352.33H2643.76V3637H2602.29ZM2620.72 3289.86C2613.38 3289.86 2606.98 3287.39 2601.52 3282.44C2596.23 3277.49 2593.58 3270.58 2593.58 3261.7C2593.58 3255.39 2595.12 3249.84 2598.19 3245.06C2601.26 3240.11 2605.1 3236.27 2609.71 3233.54C2614.49 3230.81 2619.35 3229.45 2624.3 3229.45C2633.52 3229.45 2640.34 3232.18 2644.78 3237.64C2649.22 3242.93 2651.44 3249.59 2651.44 3257.61C2651.44 3267.34 2648.28 3275.19 2641.97 3281.16C2635.82 3286.96 2628.74 3289.86 2620.72 3289.86ZM2748.38 3637V3352.33H2785.76V3388.68C2792.58 3383.56 2801.54 3377.93 2812.64 3371.78C2823.9 3365.47 2836.28 3360.01 2849.76 3355.4C2863.24 3350.62 2876.89 3348.06 2890.72 3347.72C2921.78 3347.21 2943.8 3355.49 2956.77 3372.55C2969.74 3389.45 2976.22 3418.89 2976.22 3460.87V3637H2934.24V3460.36C2934.24 3432.2 2930.23 3411.98 2922.21 3399.69C2914.18 3387.23 2897.89 3381.51 2873.31 3382.54C2864.44 3382.71 2854.96 3384.5 2844.89 3387.91C2834.82 3391.33 2825.01 3395.68 2815.45 3400.97C2805.9 3406.26 2797.53 3411.72 2790.37 3417.35V3637H2748.38ZM3151.23 3641.1C3132.97 3641.1 3118.29 3638.19 3107.2 3632.39C3096.1 3626.42 3087.74 3618.06 3082.11 3607.3C3076.48 3596.38 3072.64 3583.5 3070.59 3568.65C3068.71 3553.8 3067.77 3537.33 3067.77 3519.24V3351.82H3109.25V3520.78C3109.25 3544.67 3111.04 3562.76 3114.62 3575.05C3118.38 3587.34 3124.52 3595.61 3133.05 3599.88C3141.59 3604.15 3153.28 3606.28 3168.13 3606.28C3177.68 3606.28 3187.5 3604.91 3197.57 3602.18C3207.64 3599.45 3216.94 3596.04 3225.47 3591.94C3234.17 3587.85 3241.17 3583.75 3246.46 3579.66V3351.82H3288.45V3640.07H3272.06C3265.41 3640.07 3260.2 3639.05 3256.45 3637C3252.86 3635.12 3251.07 3630.51 3251.07 3623.18V3600.14L3251.58 3607.3C3242.71 3613.62 3232.64 3619.34 3221.37 3624.46C3210.11 3629.58 3198.42 3633.67 3186.3 3636.74C3174.18 3639.65 3162.49 3641.1 3151.23 3641.1ZM3349.71 3637L3455.69 3486.47L3456.21 3499.78L3349.71 3351.82H3396.81L3464.91 3451.66L3482.32 3479.82H3467.98L3483.34 3450.12L3551.44 3351.82H3598.03L3491.02 3499.27V3484.94L3599.05 3637H3550.93L3481.81 3535.11L3462.86 3504.9L3479.76 3505.42L3462.86 3537.16L3397.33 3637H3349.71ZM801.604 3958V3830.2H875.736V3845.68H821.9V3886.1H862.148V3901.58H821.9V3958H801.604ZM980.448 3959.38C968.58 3959.61 958.318 3956.91 949.66 3951.29C941.003 3945.62 934.381 3937.76 929.794 3927.73C925.208 3917.64 923.058 3906.11 923.344 3893.16C923.631 3878.88 926.44 3866.98 931.772 3857.47C937.162 3847.95 944.3 3840.81 953.186 3836.05C962.13 3831.29 972.078 3828.89 983.028 3828.83C994.38 3828.77 1004.27 3831.44 1012.7 3836.83C1021.13 3842.16 1027.6 3849.73 1032.13 3859.53C1036.72 3869.33 1038.87 3880.83 1038.58 3894.02C1038.3 3908.29 1035.6 3920.25 1030.5 3929.88C1025.4 3939.45 1018.52 3946.71 1009.86 3951.64C1001.2 3956.57 991.399 3959.15 980.448 3959.38ZM980.964 3943.9C992.316 3943.9 1001.35 3939.62 1008.05 3931.08C1014.76 3922.48 1018.12 3909.84 1018.12 3893.16C1018.12 3884.33 1016.77 3876.21 1014.07 3868.82C1011.44 3861.36 1007.45 3855.4 1002.12 3850.93C996.846 3846.4 990.252 3844.14 982.34 3844.14C975.403 3844.14 969.01 3845.91 963.162 3849.47C957.314 3853.02 952.613 3858.5 949.058 3865.89C945.561 3873.29 943.812 3882.78 943.812 3894.36C943.812 3903.13 945.188 3911.3 947.94 3918.87C950.75 3926.38 954.906 3932.43 960.41 3937.02C965.914 3941.6 972.766 3943.9 980.964 3943.9ZM1123.32 3958H1103.03V3830.2C1104.06 3830.2 1105.06 3830.2 1106.04 3830.2C1107.01 3830.2 1107.99 3830.2 1108.96 3830.2C1109.94 3830.2 1110.94 3830.2 1111.97 3830.2C1116.04 3830.2 1120.86 3829.97 1126.42 3829.52C1131.98 3829.06 1138.12 3828.83 1144.82 3828.83C1151.25 3828.83 1157.12 3829.52 1162.45 3830.89C1167.79 3832.21 1172.4 3834.33 1176.3 3837.26C1180.26 3840.12 1183.29 3843.88 1185.42 3848.52C1187.59 3853.11 1188.68 3858.7 1188.68 3865.29C1188.68 3872.97 1187.39 3879.45 1184.81 3884.73C1182.23 3890 1178.54 3894.16 1173.72 3897.2C1168.96 3900.24 1163.29 3902.27 1156.69 3903.3C1154.34 3903.65 1151.9 3903.93 1149.38 3904.16C1146.92 3904.34 1143.68 3904.48 1139.66 3904.59C1135.65 3904.65 1130.2 3904.68 1123.32 3904.68V3958ZM1123.32 3890.23C1124.53 3890.4 1126.36 3890.55 1128.83 3890.66C1131.35 3890.72 1133.9 3890.75 1136.48 3890.75C1139.06 3890.75 1141.1 3890.75 1142.59 3890.75C1150.84 3890.75 1157.21 3888.74 1161.68 3884.73C1166.15 3880.66 1168.39 3874.47 1168.39 3866.15C1168.39 3861.22 1167.56 3857.09 1165.89 3853.77C1164.23 3850.39 1161.45 3847.86 1157.55 3846.2C1153.71 3844.48 1148.49 3843.62 1141.9 3843.62C1138.57 3843.62 1135.28 3843.76 1132.01 3844.05C1128.8 3844.28 1125.9 3844.65 1123.32 3845.17V3890.23ZM1174.92 3958C1174.18 3956.85 1173.55 3955.68 1173.03 3954.47C1172.52 3953.27 1171.6 3951.29 1170.28 3948.54C1168.5 3944.7 1166.75 3940.37 1165.03 3935.55C1163.31 3930.68 1161.42 3925.95 1159.36 3921.36C1157.35 3916.78 1155.03 3912.91 1152.39 3909.75C1149.75 3906.54 1146.66 3904.68 1143.1 3904.16L1150.84 3898.14L1162.88 3899.18C1166.27 3900.61 1169.28 3903.19 1171.91 3906.92C1174.61 3910.64 1177.07 3914.97 1179.31 3919.9C1181.6 3924.78 1183.78 3929.73 1185.85 3934.78C1187.97 3939.83 1190.17 3944.41 1192.47 3948.54C1193.33 3950.15 1194.19 3951.75 1195.05 3953.36C1195.91 3954.9 1196.77 3956.45 1197.63 3958H1174.92ZM1331.22 3958V3830.2H1339.99C1345.26 3830.2 1350.48 3829.97 1355.64 3829.52C1360.8 3829.06 1366.25 3828.83 1371.98 3828.83C1381.27 3828.83 1389.27 3830.29 1395.97 3833.21C1402.68 3836.08 1407.84 3840.61 1411.45 3846.8C1415.07 3852.94 1416.87 3860.93 1416.87 3870.8C1416.87 3884.73 1412.66 3895.59 1404.23 3903.39C1395.86 3911.13 1383.68 3915 1367.68 3915C1363.67 3915 1360.34 3914.97 1357.7 3914.91C1355.12 3914.86 1353.06 3914.83 1351.51 3914.83V3958H1331.22ZM1351.51 3899.35C1354.09 3899.69 1356.64 3899.92 1359.17 3900.04C1361.75 3900.15 1364.18 3900.21 1366.48 3900.21C1371.81 3900.21 1376.8 3899.46 1381.44 3897.97C1386.08 3896.42 1389.81 3893.56 1392.62 3889.37C1395.49 3885.13 1396.92 3878.94 1396.92 3870.8C1396.92 3860.99 1394.28 3853.88 1389.01 3849.47C1383.79 3845 1376.22 3842.93 1366.3 3843.28C1363.84 3843.33 1361.32 3843.48 1358.74 3843.71C1356.16 3843.94 1353.75 3844.31 1351.51 3844.82V3899.35ZM1499.79 3958H1479.49V3830.2C1480.52 3830.2 1481.53 3830.2 1482.5 3830.2C1483.48 3830.2 1484.45 3830.2 1485.43 3830.2C1486.4 3830.2 1487.4 3830.2 1488.44 3830.2C1492.51 3830.2 1497.32 3829.97 1502.88 3829.52C1508.45 3829.06 1514.58 3828.83 1521.29 3828.83C1527.71 3828.83 1533.59 3829.52 1538.92 3830.89C1544.25 3832.21 1548.87 3834.33 1552.76 3837.26C1556.72 3840.12 1559.76 3843.88 1561.88 3848.52C1564.06 3853.11 1565.15 3858.7 1565.15 3865.29C1565.15 3872.97 1563.86 3879.45 1561.28 3884.73C1558.7 3890 1555 3894.16 1550.18 3897.2C1545.43 3900.24 1539.75 3902.27 1533.16 3903.3C1530.81 3903.65 1528.37 3903.93 1525.85 3904.16C1523.38 3904.34 1520.14 3904.48 1516.13 3904.59C1512.12 3904.65 1506.67 3904.68 1499.79 3904.68V3958ZM1499.79 3890.23C1500.99 3890.4 1502.83 3890.55 1505.29 3890.66C1507.82 3890.72 1510.37 3890.75 1512.95 3890.75C1515.53 3890.75 1517.56 3890.75 1519.05 3890.75C1527.31 3890.75 1533.67 3888.74 1538.14 3884.73C1542.62 3880.66 1544.85 3874.47 1544.85 3866.15C1544.85 3861.22 1544.02 3857.09 1542.36 3853.77C1540.7 3850.39 1537.92 3847.86 1534.02 3846.2C1530.18 3844.48 1524.96 3843.62 1518.36 3843.62C1515.04 3843.62 1511.74 3843.76 1508.47 3844.05C1505.26 3844.28 1502.37 3844.65 1499.79 3845.17V3890.23ZM1551.39 3958C1550.64 3956.85 1550.01 3955.68 1549.5 3954.47C1548.98 3953.27 1548.06 3951.29 1546.74 3948.54C1544.97 3944.7 1543.22 3940.37 1541.5 3935.55C1539.78 3930.68 1537.89 3925.95 1535.82 3921.36C1533.82 3916.78 1531.49 3912.91 1528.86 3909.75C1526.22 3906.54 1523.12 3904.68 1519.57 3904.16L1527.31 3898.14L1539.35 3899.18C1542.73 3900.61 1545.74 3903.19 1548.38 3906.92C1551.07 3910.64 1553.54 3914.97 1555.77 3919.9C1558.07 3924.78 1560.25 3929.73 1562.31 3934.78C1564.43 3939.83 1566.64 3944.41 1568.93 3948.54C1569.79 3950.15 1570.65 3951.75 1571.51 3953.36C1572.37 3954.9 1573.23 3956.45 1574.09 3958H1551.39ZM1683.03 3959.38C1671.16 3959.61 1660.9 3956.91 1652.24 3951.29C1643.58 3945.62 1636.96 3937.76 1632.37 3927.73C1627.79 3917.64 1625.64 3906.11 1625.92 3893.16C1626.21 3878.88 1629.02 3866.98 1634.35 3857.47C1639.74 3847.95 1646.88 3840.81 1655.77 3836.05C1664.71 3831.29 1674.66 3828.89 1685.61 3828.83C1696.96 3828.77 1706.85 3831.44 1715.28 3836.83C1723.71 3842.16 1730.18 3849.73 1734.71 3859.53C1739.3 3869.33 1741.45 3880.83 1741.16 3894.02C1740.88 3908.29 1738.18 3920.25 1733.08 3929.88C1727.98 3939.45 1721.1 3946.71 1712.44 3951.64C1703.78 3956.57 1693.98 3959.15 1683.03 3959.38ZM1683.54 3943.9C1694.9 3943.9 1703.93 3939.62 1710.63 3931.08C1717.34 3922.48 1720.7 3909.84 1720.7 3893.16C1720.7 3884.33 1719.35 3876.21 1716.65 3868.82C1714.02 3861.36 1710.03 3855.4 1704.7 3850.93C1699.43 3846.4 1692.83 3844.14 1684.92 3844.14C1677.98 3844.14 1671.59 3845.91 1665.74 3849.47C1659.89 3853.02 1655.19 3858.5 1651.64 3865.89C1648.14 3873.29 1646.39 3882.78 1646.39 3894.36C1646.39 3903.13 1647.77 3911.3 1650.52 3918.87C1653.33 3926.38 1657.49 3932.43 1662.99 3937.02C1668.49 3941.6 1675.35 3943.9 1683.54 3943.9ZM1805.61 3958V3830.2H1879.74V3845.68H1825.9V3886.1H1866.15V3901.58H1825.9V3958H1805.61ZM1937.76 3958V3830.2H2012.06V3845.68H1958.05V3884.56H1998.13V3899.86H1958.05V3942.18H2018.08V3958H1937.76ZM2112.91 3959.38C2107.35 3959.38 2102.07 3958.95 2097.09 3958.09C2092.16 3957.28 2087.91 3956.31 2084.36 3955.16C2080.8 3954.02 2078.25 3952.95 2076.7 3951.98L2080.92 3935.55C2083.1 3936.82 2085.82 3938.05 2089.09 3939.25C2092.36 3940.46 2095.94 3941.46 2099.84 3942.26C2103.74 3943.01 2107.69 3943.38 2111.71 3943.38C2119.56 3943.38 2125.55 3942.06 2129.68 3939.42C2133.81 3936.79 2135.87 3932.49 2135.87 3926.52C2135.87 3922.51 2134.84 3919.16 2132.78 3916.46C2130.71 3913.71 2127.62 3911.13 2123.49 3908.72C2119.42 3906.31 2114.31 3903.65 2108.18 3900.72C2102.96 3898.14 2097.89 3895.05 2092.96 3891.44C2088.08 3887.82 2084.07 3883.58 2080.92 3878.71C2077.76 3873.83 2076.19 3868.24 2076.19 3861.94C2076.19 3855.75 2077.39 3850.56 2079.8 3846.37C2082.27 3842.13 2085.56 3838.72 2089.69 3836.14C2093.82 3833.56 2098.4 3831.69 2103.45 3830.55C2108.55 3829.4 2113.77 3828.83 2119.1 3828.83C2126.9 3828.83 2133.35 3829.6 2138.45 3831.15C2143.55 3832.64 2147.22 3834.13 2149.46 3835.62L2145.5 3851.53C2142.58 3849.7 2139.14 3848.06 2135.18 3846.63C2131.29 3845.14 2125.92 3844.39 2119.1 3844.39C2114.92 3844.39 2111.05 3844.94 2107.49 3846.03C2103.94 3847.12 2101.07 3848.78 2098.89 3851.02C2096.71 3853.25 2095.62 3856.12 2095.62 3859.62C2095.62 3863.57 2096.43 3866.9 2098.03 3869.59C2099.69 3872.23 2102.36 3874.72 2106.03 3877.07C2109.7 3879.37 2114.52 3882.06 2120.48 3885.16C2124.78 3887.39 2129.02 3889.77 2133.21 3892.3C2137.39 3894.76 2141.18 3897.51 2144.56 3900.55C2148 3903.59 2150.72 3907.09 2152.73 3911.04C2154.79 3914.94 2155.82 3919.41 2155.82 3924.46C2155.82 3932.26 2153.99 3938.76 2150.32 3943.98C2146.71 3949.14 2141.66 3953.01 2135.18 3955.59C2128.76 3958.11 2121.34 3959.38 2112.91 3959.38ZM2251.44 3959.38C2245.88 3959.38 2240.61 3958.95 2235.62 3958.09C2230.69 3957.28 2226.45 3956.31 2222.89 3955.16C2219.34 3954.02 2216.79 3952.95 2215.24 3951.98L2219.45 3935.55C2221.63 3936.82 2224.35 3938.05 2227.62 3939.25C2230.89 3940.46 2234.47 3941.46 2238.37 3942.26C2242.27 3943.01 2246.23 3943.38 2250.24 3943.38C2258.09 3943.38 2264.09 3942.06 2268.21 3939.42C2272.34 3936.79 2274.41 3932.49 2274.41 3926.52C2274.41 3922.51 2273.37 3919.16 2271.31 3916.46C2269.25 3913.71 2266.15 3911.13 2262.02 3908.72C2257.95 3906.31 2252.85 3903.65 2246.71 3900.72C2241.5 3898.14 2236.42 3895.05 2231.49 3891.44C2226.62 3887.82 2222.6 3883.58 2219.45 3878.71C2216.3 3873.83 2214.72 3868.24 2214.72 3861.94C2214.72 3855.75 2215.93 3850.56 2218.33 3846.37C2220.8 3842.13 2224.1 3838.72 2228.22 3836.14C2232.35 3833.56 2236.94 3831.69 2241.98 3830.55C2247.09 3829.4 2252.3 3828.83 2257.64 3828.83C2265.43 3828.83 2271.88 3829.6 2276.99 3831.15C2282.09 3832.64 2285.76 3834.13 2287.99 3835.62L2284.04 3851.53C2281.11 3849.7 2277.67 3848.06 2273.72 3846.63C2269.82 3845.14 2264.46 3844.39 2257.64 3844.39C2253.45 3844.39 2249.58 3844.94 2246.03 3846.03C2242.47 3847.12 2239.6 3848.78 2237.43 3851.02C2235.25 3853.25 2234.16 3856.12 2234.16 3859.62C2234.16 3863.57 2234.96 3866.9 2236.57 3869.59C2238.23 3872.23 2240.89 3874.72 2244.56 3877.07C2248.23 3879.37 2253.05 3882.06 2259.01 3885.16C2263.31 3887.39 2267.55 3889.77 2271.74 3892.3C2275.92 3894.76 2279.71 3897.51 2283.09 3900.55C2286.53 3903.59 2289.25 3907.09 2291.26 3911.04C2293.33 3914.94 2294.36 3919.41 2294.36 3924.46C2294.36 3932.26 2292.52 3938.76 2288.85 3943.98C2285.24 3949.14 2280.2 3953.01 2273.72 3955.59C2267.3 3958.11 2259.87 3959.38 2251.44 3959.38ZM2359.88 3958V3830.2H2380.17V3958H2359.88ZM2504.15 3959.38C2492.29 3959.61 2482.02 3956.91 2473.37 3951.29C2464.71 3945.62 2458.09 3937.76 2453.5 3927.73C2448.91 3917.64 2446.76 3906.11 2447.05 3893.16C2447.34 3878.88 2450.15 3866.98 2455.48 3857.47C2460.87 3847.95 2468 3840.81 2476.89 3836.05C2485.84 3831.29 2495.78 3828.89 2506.73 3828.83C2518.09 3828.77 2527.98 3831.44 2536.4 3836.83C2544.83 3842.16 2551.31 3849.73 2555.84 3859.53C2560.43 3869.33 2562.58 3880.83 2562.29 3894.02C2562 3908.29 2559.31 3920.25 2554.21 3929.88C2549.1 3939.45 2542.22 3946.71 2533.57 3951.64C2524.91 3956.57 2515.1 3959.15 2504.15 3959.38ZM2504.67 3943.9C2516.02 3943.9 2525.05 3939.62 2531.76 3931.08C2538.47 3922.48 2541.82 3909.84 2541.82 3893.16C2541.82 3884.33 2540.47 3876.21 2537.78 3868.82C2535.14 3861.36 2531.16 3855.4 2525.83 3850.93C2520.55 3846.4 2513.96 3844.14 2506.05 3844.14C2499.11 3844.14 2492.72 3845.91 2486.87 3849.47C2481.02 3853.02 2476.32 3858.5 2472.76 3865.89C2469.27 3873.29 2467.52 3882.78 2467.52 3894.36C2467.52 3903.13 2468.89 3911.3 2471.65 3918.87C2474.45 3926.38 2478.61 3932.43 2484.12 3937.02C2489.62 3941.6 2496.47 3943.9 2504.67 3943.9ZM2626.73 3958V3830.2H2645.14L2698.63 3912.94L2715.66 3944.76H2709.64L2707.4 3908.98V3830.2H2726.15V3958H2706.88L2655.46 3878.36L2635.68 3842.42H2643.07L2645.14 3881.12V3958H2626.73ZM2805.08 3958H2783.75L2832.26 3828.83H2851.95L2899.77 3958H2877.84L2845.93 3861.94L2842.32 3849.64L2838.53 3861.94L2805.08 3958ZM2807.83 3926.61L2811.27 3911.73H2869.92L2873.54 3926.61H2807.83ZM2957.38 3958V3830.2H2977.51V3942H3027.73V3958H2957.38ZM3160.01 3958V3830.2H3180.3V3958H3160.01ZM3283.3 3958V3845.68H3243.91V3830.2H3342.9V3845.68H3303.59V3958H3283.3Z" fill="white"/>
<path d="M3209.87 209.694C3212.62 211.066 3215.19 211.332 3217.58 210.494C3245.12 200.908 3273.39 194.194 3302.4 190.354C3341.16 185.21 3391.42 190.331 3420.8 218.838C3429.97 227.754 3445.2 247.735 3448.12 260.194C3454.02 285.501 3438.76 315.541 3422.14 333.486C3420.2 335.574 3419.39 337.685 3419.72 339.819C3419.78 340.21 3419.93 340.581 3420.16 340.903C3420.4 341.224 3420.7 341.488 3421.06 341.671C3424.7 343.545 3428.18 346.014 3431.9 347.5C3446.31 353.33 3461.52 357.994 3475.31 364.692C3484.2 369.013 3493.77 373.059 3501.69 378.637C3511.96 385.884 3520.73 393.565 3530.37 401.475C3536.1 406.185 3540.92 410.863 3544.82 415.512C3553.88 426.302 3557.33 435.058 3564.08 446.191C3575.2 464.64 3573.29 484.369 3573.95 505.059C3574.58 525.428 3569.25 540.402 3558.6 555.81C3548.15 570.929 3534.98 582.535 3519.11 590.627C3509.45 595.535 3497.23 599.033 3482.44 601.121C3455.45 604.893 3435.07 604.275 3403.71 601.578C3382.01 599.703 3358.72 600.435 3337.52 596.137C3324.05 593.416 3310.08 594.354 3297.39 589.873C3286.46 586.032 3275.06 586.581 3263.77 583.632C3254.21 581.117 3244.43 580.774 3235.21 578.237C3224.07 575.173 3210.3 573.047 3201.53 571.127C3182.11 566.875 3162.72 562.524 3143.35 558.073C3136.95 556.61 3130.16 554.141 3123.3 552.381C3122.54 552.192 3121.88 551.723 3121.47 551.07C3121.06 550.418 3120.92 549.634 3121.09 548.883C3123.51 538.138 3128.3 527.942 3130.8 517.426C3132.75 509.288 3135.28 502.269 3136.34 493.605C3137.03 488.012 3138.28 480.91 3140.08 472.299C3143.63 455.267 3143.42 432.406 3138.58 413.523C3136.86 406.893 3136.3 399.761 3134.53 393.68C3130.57 380.039 3127.28 371.375 3124.68 367.687C3114.69 353.536 3106.72 339.019 3093.94 326.194C3084.65 316.867 3072.33 308.797 3061.9 299.561C3059.37 297.336 3053.31 293.937 3043.7 289.365C3013.14 274.871 2983.1 267.601 2949.42 263.463C2949 263.412 2948.61 263.269 2948.27 263.044C2947.92 262.819 2947.64 262.519 2947.44 262.168C2947.23 261.817 2947.12 261.425 2947.1 261.023C2947.08 260.62 2947.15 260.219 2947.32 259.851C2947.73 258.967 2948.36 258.243 2949.2 257.679C2949.82 257.252 2950.26 256.617 2950.43 255.896C2952.07 248.832 2952.26 242.454 2955.27 235.618C2958.32 228.646 2959.99 220.896 2962.77 214.495C2970.9 195.657 2978.99 174.397 2991.4 157.662C2999.16 147.192 3006.8 136.653 3014.34 126.045C3016.74 122.685 3021.7 118.684 3025.62 114.935C3036.23 104.846 3048.1 98.3836 3061.21 95.5489C3075.18 92.5464 3084.2 91.4491 3088.27 92.2569C3104.75 95.5489 3119.02 96.1432 3133.85 106.819C3148.68 117.495 3164.55 127.074 3174.54 142.665C3187.82 163.423 3197.88 185.896 3208.32 208.094C3208.65 208.795 3209.17 209.328 3209.87 209.694Z" fill="white"/>
<path d="M2938.41 365.677C2921.77 355.161 2902.96 349.858 2884.68 342.839C2880.48 341.224 2875.81 340.043 2870.67 339.296C2861 337.878 2852.02 334.769 2842.69 334.221C2834.89 333.763 2827.16 333.542 2819.51 333.558C2817.46 333.558 2817.17 332.872 2818.64 331.5C2824.85 325.625 2835.76 324.23 2841.35 322.15C2850 318.949 2856.5 317.021 2860.84 316.366C2870.88 314.834 2885.12 310.125 2898.47 309.508C2916.97 308.624 2935.46 308.555 2953.95 309.302C2966.6 309.805 2977.46 313.874 2989.73 316.892C3009.1 321.647 3026.73 329.199 3042.62 339.547C3054.14 347.068 3065.16 363.208 3072.36 374.867C3084.79 395.031 3090.97 419.446 3094.57 442.582C3095.58 449.006 3095.53 456.298 3095.98 463.157C3097.31 482.909 3095.18 501.426 3089.59 518.709C3085.31 531.946 3075.84 543.422 3067.73 554.647C3061.33 563.471 3053.1 567.174 3044.85 573.736C3044.57 573.959 3044.23 574.101 3043.87 574.146C3043.51 574.19 3043.15 574.136 3042.82 573.988C3042.49 573.84 3042.21 573.605 3042.02 573.309C3041.82 573.014 3041.71 572.671 3041.7 572.318C3041.37 559.623 3039.81 546.958 3037.03 534.323C3034.67 523.601 3035.71 513.04 3032.79 503.026C3027.79 485.812 3023.74 467.432 3016.27 451.955C3012.43 444.03 3008.2 436.31 3003.57 428.797C2995.54 415.743 2983.97 403.512 2973.49 391.305C2964.25 380.537 2950.4 373.267 2938.41 365.677Z" fill="white"/>
<path d="M2607.62 401.386C2620.97 391.922 2637.8 384.766 2653.11 378.823C2666.91 373.458 2685.71 368.482 2709.5 363.894C2727.18 360.511 2746.66 359.985 2765.45 357.973C2768.88 357.623 2772.52 357.646 2776.38 358.042C2789.4 359.414 2802.05 359.459 2815.05 360.305C2825.08 360.968 2834.84 363.963 2844.9 365.929C2849.66 366.874 2854.77 368.238 2860.23 370.021C2867 372.262 2874.17 373.725 2880.49 376.377C2897.11 383.326 2908.13 391.716 2921.89 400.381C2930.79 406.004 2942.23 416.208 2956.21 430.992C2964.76 440.044 2972.43 450.827 2979.22 463.34C2984.23 472.576 2987.17 483.572 2990.83 493.882C2998.94 516.56 3002.73 541.913 3001.76 567.152C3001.56 572.44 3000.26 581.928 2997.86 595.614C2996.48 603.554 2994.33 612.272 2991.4 621.767C2987.82 633.289 2984.51 645.931 2980.75 656.241C2970.04 685.519 2955.14 713.089 2936.04 738.952C2935.61 739.537 2935.03 740.001 2934.37 740.301C2932.43 741.185 2931.28 740.614 2930.94 738.587C2928.57 724.657 2926.65 710.673 2925.18 696.637C2923.51 680.657 2920.76 667.1 2917.42 652.309C2916.08 646.32 2912.98 640.719 2911.61 635.209C2905.56 611.098 2897.56 587.658 2887.61 564.889C2878.73 544.611 2864.46 525.522 2852.02 506.273C2848.69 501.083 2843.58 494.957 2839 490.613C2821.28 473.764 2806.47 457.396 2783.03 444.411C2759.71 431.517 2738.58 419.95 2712.42 414.486C2703.39 412.588 2695.21 409.639 2686.04 408.771C2659.55 406.233 2633.08 399.878 2606.77 405.159C2606.57 405.196 2606.36 405.179 2606.17 405.107C2605.98 405.036 2605.81 404.913 2605.69 404.754C2605.56 404.595 2605.49 404.405 2605.47 404.206C2605.45 404.007 2605.48 403.806 2605.58 403.627C2606.01 402.789 2606.7 402.042 2607.62 401.386Z" fill="white"/>
<path d="M2847.86 886.383C2840.72 900.603 2832.58 914.456 2823.46 927.944C2822.43 929.468 2821.33 929.506 2820.17 928.059C2819.67 927.434 2819.44 926.199 2819.47 924.355C2819.77 910.981 2816.79 897.516 2816.65 885.011C2816.48 870.677 2816.39 858.378 2813.24 843.77C2808.25 820.749 2804.52 797.591 2794.97 776.261C2781.46 746.085 2770.06 716.548 2750.24 688.109C2741.19 675.147 2732.26 659.922 2722.36 648.125C2714.7 638.981 2706.98 629.89 2699.21 620.852C2683.02 602.06 2665.66 584.366 2647.14 567.769C2641.64 562.854 2634.54 558.19 2628.45 553.092C2605.79 534.026 2578.73 523.121 2550.5 516.697C2528.47 511.691 2508.49 504.947 2484.21 505.358C2474.2 505.518 2462.68 503.049 2451.51 504.284C2436.91 505.884 2423.59 505.427 2409.58 507.027C2403.84 507.69 2398.93 510.639 2393.14 511.165C2383.69 512.034 2374.08 512.796 2364.3 513.451C2361.71 513.619 2361.28 512.712 2362.98 510.73C2367.87 505.061 2379.25 499.529 2385.93 495.779C2414.65 479.685 2435.64 469.047 2448.88 463.865C2462.34 458.592 2481.38 453.464 2506 448.48C2514.96 446.674 2524.15 446.537 2533.27 444.914C2559.79 440.181 2591.52 441.21 2616.98 441.622C2625.24 441.743 2634.17 442.635 2643.78 444.296C2655.67 446.354 2667.92 448.046 2679.15 451.109C2692.93 454.873 2706.48 459.263 2719.8 464.277C2729.11 467.797 2736.77 473.901 2745.3 478.771C2774.83 495.642 2799.27 517.703 2818.41 545.228C2827.62 558.472 2832.94 566.153 2834.37 568.272C2853.34 596.368 2862.41 633.517 2873.84 667.031C2876.19 673.867 2878.47 684.566 2881.64 693.093C2885.45 703.358 2885.29 715.725 2887.36 726.584C2888.14 730.699 2888.32 739.455 2887.9 752.852C2887.57 763.185 2884.86 775.53 2883.88 787.166C2883.47 792.195 2882.65 796.714 2881.41 800.723C2875.94 818.448 2872.11 829.794 2869.91 834.763C2862.41 851.748 2856.16 869.854 2847.86 886.383Z" fill="white"/>
<path d="M2683.55 1117.1C2679.3 1126.09 2675.46 1133.49 2672.01 1139.3C2659.24 1160.88 2646.88 1182.39 2632.92 1203.31C2630.92 1206.3 2627.53 1209.91 2625.35 1213.46C2617.42 1226.49 2608.62 1238.9 2598.97 1250.7C2591.95 1259.28 2585.08 1267.94 2578.36 1276.67C2571.62 1285.45 2564.45 1293.88 2556.85 1301.98C2547.89 1311.49 2536.77 1324.93 2525.21 1335.19C2504.07 1353.95 2489.53 1365.93 2481.6 1371.11C2462.54 1383.59 2443.8 1398.08 2424.88 1408.48C2396.56 1424.06 2367.37 1437.86 2337.31 1449.89C2310.35 1460.68 2273.02 1472.02 2247.8 1480.86C2232.99 1486.03 2218.7 1488.64 2203.98 1493.21C2197.19 1495.31 2190.44 1496 2183.55 1498.17C2179.56 1499.42 2175.48 1500.34 2171.31 1500.93C2155.13 1503.22 2139.22 1506.83 2123.19 1509.87C2117.38 1510.99 2104.57 1512.43 2095.45 1514.9C2090.76 1516.17 2086.59 1517.04 2082.92 1517.53C2069 1519.41 2055.79 1522.61 2041.67 1524.73C2029.82 1526.52 1973.03 1538.31 1995.24 1505.6C1997.36 1502.47 1998.66 1500.02 1999.14 1498.24C2005.51 1474.62 1988.38 1456.61 1967.45 1447.81C1962.38 1445.69 1955.62 1443.91 1947.19 1442.48C1936.45 1440.67 1926.72 1438 1915.76 1440.83C1912.69 1441.63 1909.16 1442.25 1905.18 1442.71C1880.5 1445.45 1855.91 1462.16 1840.47 1480.57C1833.54 1488.83 1826.52 1497 1819.41 1505.1C1809.89 1515.95 1800.6 1528.21 1791.03 1539.75C1770.37 1564.63 1740.16 1575.8 1712.92 1592.26C1686.9 1607.99 1660.31 1621.14 1633.23 1636.87C1612.75 1648.77 1591.15 1658.48 1568.45 1665.99C1562.1 1668.09 1555.68 1668.45 1549.19 1667.04C1548.62 1666.92 1548.08 1666.68 1547.61 1666.34C1547.14 1666 1546.75 1665.56 1546.46 1665.06C1546.18 1664.56 1546.01 1664.01 1545.96 1663.44C1545.91 1662.87 1545.99 1662.3 1546.18 1661.76C1552.48 1644.66 1566.47 1628.2 1578.06 1614.19C1582.5 1608.84 1587.57 1602.09 1593.29 1593.96C1602.41 1580.93 1615.13 1568.4 1623.55 1557.49C1640.14 1535.96 1656.74 1514.45 1672.32 1492.22C1680.69 1480.29 1687.25 1466.62 1694.98 1454.21C1698.04 1449.31 1701.85 1441.18 1704.25 1434.77C1712.11 1413.61 1717.43 1392.25 1720.21 1370.7C1721.9 1357.51 1723.51 1346.23 1725.03 1336.84C1727.19 1323.44 1726.58 1310.78 1729.77 1297.15C1733.32 1281.97 1732.27 1267.39 1736.71 1252.25C1738.72 1245.42 1739.95 1238.47 1740.42 1231.38C1741.2 1219.52 1744.84 1209.37 1746.35 1197.87C1747.41 1189.77 1748.48 1183.55 1749.54 1179.19C1756.83 1149.61 1763.7 1123.53 1770.16 1100.96C1773.83 1088.11 1780.76 1074.3 1784.92 1062.89C1789.32 1050.8 1793.74 1038.82 1799.26 1026.91C1803.3 1018.19 1807.35 1009.48 1811.39 1000.76C1814.16 994.814 1818.32 987.072 1823.85 977.531C1829.75 967.358 1835.11 955.676 1840.47 946.509C1856.5 919.06 1868.87 900.025 1877.59 889.402C1885.74 879.48 1892.65 868.873 1901.28 859.614C1909.13 851.201 1916.8 842.628 1924.27 833.896C1936.38 819.745 1950.62 807.194 1963.58 793.409C1970.19 786.367 1977.05 779.837 1984.17 773.817C1997.52 762.523 2010.73 749.653 2023.47 739.388C2040.55 725.626 2057.83 712.1 2075.3 698.81C2088.19 689.025 2102.6 680.475 2115.55 670.622C2134.9 655.9 2154.88 645.886 2174.43 633.359C2186.73 625.494 2198.53 619.573 2211.08 612.921C2223.31 606.451 2236.47 601.33 2249.07 595.181C2258.14 590.746 2265.76 587.324 2271.92 584.916C2294.5 576.092 2310.97 570.597 2321.33 568.433C2330.4 566.536 2339.24 563.609 2346.39 562.284C2357.58 560.18 2368.18 557.437 2379.58 556.385C2393.95 555.075 2408.24 553.162 2422.43 550.647C2427.31 549.779 2432.18 549.725 2437.05 550.487C2451.39 552.728 2465.78 554.579 2480.21 556.043C2485.76 556.606 2491.43 557.628 2497.23 559.106C2504.85 561.049 2512.23 562.306 2519.47 565.027C2538.2 572.053 2553.28 578.591 2564.72 584.642C2572.27 588.665 2580.87 596.827 2588.23 601.627C2593.8 605.285 2599.65 608.669 2604.78 612.715C2628.16 631.141 2645.97 647.159 2658.21 660.769C2674.54 678.951 2684.44 690.854 2687.92 696.478C2694.52 707.146 2701.23 717.746 2708.04 728.278C2717.87 743.457 2722.78 758.363 2728.8 775.074C2732.82 786.207 2735.1 798.187 2738.23 810.051C2739.42 814.532 2740.37 819.592 2741.07 825.231C2743.38 843.611 2747.54 863.249 2747.63 884.441C2747.7 904.147 2743.07 926.528 2741.05 947.721C2740.48 953.497 2739.44 959.806 2737.92 966.65C2733.13 988.322 2728.89 1009.08 2720.95 1032.47C2711.5 1060.29 2696.78 1089.21 2683.55 1117.1Z" fill="white"/>
<path d="M1760.01 807.369C1740.09 798.545 1727.73 800.328 1709.04 799.23C1699.17 798.636 1682.93 791 1686.85 778.838C1692.94 760.024 1738.5 761.898 1754.65 765.67C1766.99 768.551 1778.69 770.517 1790.05 777.535C1806.93 787.937 1825.21 812.261 1826.84 831.83C1827.7 842.102 1828.18 847.749 1828.29 848.77C1829.52 858.76 1830.22 873.94 1825.68 883.245C1825.24 884.144 1824.77 884.159 1824.25 883.29C1818.44 873.323 1813.67 862.258 1807.56 853.32C1792.99 832.036 1781.7 816.948 1760.01 807.369Z" fill="white"/>
<path d="M1731.59 989.029C1699.57 947.491 1660.5 918.092 1605.24 912.491C1594.47 911.393 1584.41 909.702 1573.5 910.433C1545.26 912.353 1516.98 913.474 1488.66 913.794C1483.84 913.839 1480.33 913.519 1478.13 912.833C1471.6 910.822 1465.16 904.878 1468.64 897.448C1470.87 892.67 1482.11 888.121 1487.3 885.172C1498.35 878.885 1511.3 875.044 1523.1 870.106C1526.41 868.719 1530.74 867.294 1536.1 865.831C1542.12 864.162 1547.67 861.648 1553.64 860.413C1564.73 858.127 1574.68 854.949 1586.26 853.898C1595.31 853.09 1604.28 851.741 1613.18 849.851C1618.07 848.815 1629.64 848.8 1647.88 849.806C1654.93 850.187 1662.69 852.435 1671.17 856.55C1694.42 867.82 1714.43 890.133 1726.91 912.011C1741.2 937.066 1748.56 961.459 1751.5 989.509C1752.22 996.52 1752.15 1003.42 1751.31 1010.2C1751.3 1010.3 1751.26 1010.39 1751.2 1010.47C1751.13 1010.55 1751.04 1010.61 1750.94 1010.64C1750.85 1010.67 1750.74 1010.67 1750.64 1010.64C1750.54 1010.61 1750.46 1010.55 1750.39 1010.47C1743.93 1003.39 1737.63 996.871 1731.59 989.029Z" fill="white"/>
<path d="M1614.29 1136.48C1602.16 1130.01 1589.7 1124.25 1576.93 1119.22C1560.95 1112.91 1552.1 1109.48 1550.39 1108.91C1538.33 1104.96 1525.03 1104.16 1514.73 1102.72C1482.58 1098.24 1449.27 1097.16 1417.04 1101.99C1399.78 1104.57 1383.75 1104.98 1366.97 1104.55C1363.19 1104.45 1359.82 1103.81 1356.86 1102.63C1356.49 1102.47 1356.16 1102.24 1355.89 1101.95C1355.62 1101.65 1355.43 1101.3 1355.32 1100.92C1355.21 1100.55 1355.19 1100.15 1355.26 1099.76C1355.33 1099.38 1355.49 1099.01 1355.73 1098.69C1377.8 1069.48 1425.83 1050 1465.04 1038.64C1465.21 1038.59 1469.08 1037.26 1476.65 1034.64C1484.62 1031.89 1494.66 1031.57 1500.68 1030.55C1514.15 1028.21 1523.06 1026.9 1527.4 1026.59C1536.36 1025.95 1545.88 1030.09 1555.05 1031.44C1577.33 1034.71 1602.7 1050.75 1621.36 1062.85C1623.95 1064.51 1626.99 1067.04 1630.51 1070.44C1643.9 1083.35 1658.48 1095.97 1668.42 1111.75C1679.89 1129.96 1689.73 1148.97 1697.92 1168.79C1701.45 1177.36 1701.4 1184.51 1701 1193.43C1700.97 1193.95 1700.8 1194.44 1700.51 1194.87C1700.21 1195.3 1699.8 1195.64 1699.32 1195.86C1698.84 1196.08 1698.31 1196.17 1697.78 1196.12C1697.26 1196.07 1696.75 1195.89 1696.33 1195.58C1684.08 1186.75 1673.66 1176.7 1660.64 1167.55C1645.34 1156.78 1630.88 1145.35 1614.29 1136.48Z" fill="white"/>
<path d="M2702.4 1252.47C2706.76 1250.19 2711.08 1247.84 2715.35 1245.43C2723.96 1240.56 2731.81 1232.79 2739.92 1227.99C2756.94 1217.88 2778.35 1207.07 2798.83 1200.81C2807.95 1198.02 2817.07 1194.41 2826.12 1193.01C2841.89 1190.57 2857.76 1190.01 2873.75 1191.32C2888.77 1192.55 2899.65 1197.74 2913.07 1203.5C2928.26 1210 2939.71 1219.23 2950.47 1230.96C2964.98 1246.74 2974.62 1259.08 2979.39 1268C2988.3 1284.71 2999.08 1300.57 3005.74 1318.06C3009.56 1328.12 3013.38 1338.17 3017.21 1348.22C3019.72 1354.82 3020.71 1362.8 3023.6 1370.02C3026.02 1376.08 3025.72 1381.84 3027.25 1387.24C3031.29 1401.41 3039.45 1453.83 3019.23 1456.07C2980.87 1460.33 2930.68 1356.1 2918.64 1337.1C2911.84 1326.38 2907.24 1318.93 2904.84 1314.77C2887.73 1284.91 2866.67 1251.47 2827.32 1248.98C2806.73 1247.68 2784.4 1247.65 2760.35 1248.88C2747.68 1249.52 2735.76 1252.36 2724.5 1253.55C2716.81 1254.37 2709.22 1256.59 2701.41 1255.67C2701.22 1255.65 2701.04 1255.57 2700.88 1255.46C2700.72 1255.35 2700.6 1255.2 2700.52 1255.02C2700.44 1254.85 2700.41 1254.66 2700.42 1254.47C2700.44 1254.28 2700.51 1254.09 2700.62 1253.94C2700.99 1253.37 2701.59 1252.88 2702.4 1252.47Z" fill="white"/>
<path d="M1634.81 1250.71C1644.11 1253.09 1651.02 1255.9 1655.52 1259.15C1664.54 1265.66 1675.33 1279.77 1668.87 1290.72C1658.9 1307.64 1637.84 1319.32 1620.4 1326.29C1588.63 1339.02 1558.61 1345.61 1530.34 1346.07C1513.65 1346.34 1500.17 1344.98 1489.91 1342C1472.35 1336.9 1458.9 1318.47 1455.24 1299.68C1452.7 1286.58 1449.95 1272.98 1449.03 1260.15C1448.01 1245.77 1448.32 1234.04 1449.97 1224.97C1452.18 1212.81 1462.85 1212.83 1473.66 1214.84C1485.61 1217.04 1497.34 1217.75 1509.21 1220.4C1520.19 1222.84 1531.61 1224.08 1542.02 1226.71C1557.51 1230.64 1571.5 1233.64 1588.07 1238.76C1599.18 1242.2 1610.5 1244.89 1622.02 1246.83C1626.06 1247.51 1630.67 1249.64 1634.81 1250.71Z" fill="white"/>
<path d="M2580.89 1369.32C2593.66 1362.12 2609.01 1354.87 2624.08 1348.29C2631.74 1344.95 2641.24 1343.19 2650.03 1340.17C2660.47 1336.56 2672.01 1337.24 2682.89 1336.05C2688.03 1335.51 2693.43 1335.56 2699.09 1336.21C2709.74 1337.47 2719.94 1336.72 2730.05 1339.8C2744.37 1344.16 2753.45 1347.64 2757.29 1350.23C2767.27 1357 2777.34 1363.64 2787.47 1370.16C2806.94 1382.65 2820.81 1399.17 2836.63 1415.41C2841.61 1420.51 2848.19 1429.56 2856.37 1442.54C2865.4 1456.85 2875.58 1471.48 2882.7 1485.75C2899.27 1519 2910.43 1553.95 2916.2 1590.59C2918.76 1606.8 2921.07 1627.99 2902.68 1636.47C2901.96 1636.81 2901.23 1636.82 2900.5 1636.52C2889.28 1631.97 2881.88 1625.7 2873.42 1617.36C2862.39 1606.52 2856.26 1593.1 2847.44 1580.74C2832.88 1560.3 2818.9 1539.5 2805.5 1518.33C2802.17 1513.05 2797.64 1506.7 2791.94 1499.26C2782.82 1487.33 2774.69 1473.02 2766.86 1462.41C2760.53 1453.83 2756.07 1448.36 2753.48 1446.02C2745.61 1438.88 2738.13 1430.2 2730.28 1424.37C2714.7 1412.8 2695.42 1405.9 2677.51 1402.95C2666.79 1401.19 2656.19 1398.26 2645.8 1397.67C2628.68 1396.73 2611.24 1394.94 2594.01 1395.1C2593.23 1395.12 2586.99 1395.7 2575.3 1396.84C2567.68 1397.59 2560.04 1397.2 2552.36 1395.68C2550.3 1395.26 2549 1394.72 2548.45 1394.03C2547.51 1392.87 2547.68 1391.88 2548.95 1391.06C2559.88 1383.97 2571.12 1374.85 2580.89 1369.32Z" fill="white"/>
<path d="M1688.47 1414.68C1682.5 1436.6 1663.48 1454 1644.21 1464.24C1625.21 1474.37 1600.04 1484.79 1578.65 1476.36C1565.78 1471.3 1557.24 1461.42 1553.02 1446.73C1549.38 1434.09 1552.27 1426.52 1557.98 1415.87C1560.41 1411.37 1563.87 1407.87 1568.35 1405.37C1584.62 1396.32 1592.35 1394.68 1607.3 1392.87C1619.31 1391.43 1631.02 1394.36 1642.8 1396.23C1648.94 1397.21 1655.14 1398.81 1661.39 1401.03C1670.02 1404.07 1681.11 1406.33 1687.88 1412.62C1688.5 1413.2 1688.69 1413.89 1688.47 1414.68Z" fill="white"/>
<path d="M2471.07 1537.85C2462.51 1534.65 2454.12 1534.72 2445.47 1531.95C2437.01 1529.26 2427.18 1528.66 2419.5 1527.01C2413.93 1525.83 2408.32 1524.86 2402.66 1524.11C2386.77 1522.03 2371.52 1518.56 2355.72 1516.8C2355.34 1516.76 2354.98 1516.6 2354.69 1516.34C2354.4 1516.09 2354.2 1515.75 2354.12 1515.38C2353.78 1513.85 2354.44 1512.78 2356.1 1512.16C2364.21 1509.11 2372.08 1506.14 2380.52 1503.99C2402.76 1498.37 2419.28 1495.24 2430.07 1494.6C2442.01 1493.88 2453.92 1492.78 2465.78 1491.28C2479.96 1489.52 2493.92 1489.66 2507.74 1491.17C2525.02 1493.04 2543.05 1494.28 2559.15 1497.84C2581.15 1502.74 2601.56 1508.82 2621.8 1519.31C2642.36 1529.96 2659.19 1540.58 2672.29 1551.16C2683.89 1560.51 2699.28 1575.86 2718.46 1597.2C2732.02 1612.29 2742.01 1632.36 2752.92 1649.46C2769.35 1675.2 2777.48 1704.03 2785.66 1729.72C2788.86 1739.81 2789.19 1749.57 2790.25 1759.92C2791.2 1768.99 2790.6 1778.91 2788.44 1789.67C2787.11 1796.36 2783.58 1801.09 2777.86 1803.86C2777.15 1804.2 2776.42 1804.27 2775.65 1804.09C2770.13 1802.78 2765.78 1800.29 2762.58 1796.61C2752.79 1785.34 2742.66 1772.28 2732.21 1757.45C2721.47 1742.21 2709.53 1729.22 2697.8 1715.09C2690.81 1706.65 2683.31 1698.24 2675.3 1689.88C2664.86 1678.95 2654.4 1667.11 2644.39 1656.93C2629.3 1641.6 2614.16 1626.31 2598.99 1611.05C2587.97 1599.96 2576.62 1585.13 2561.34 1574.57C2551.67 1567.89 2538.21 1560.47 2520.98 1552.3C2513.78 1548.89 2505.53 1547.32 2497.75 1544.8C2489.41 1542.1 2479.81 1541.12 2471.07 1537.85Z" fill="white"/>
<path d="M1838.66 1576.3C1844.32 1563.98 1848.65 1551.66 1857.89 1541.23C1868.33 1529.45 1878.03 1519.65 1887.01 1511.81C1897.87 1502.37 1919.41 1495.56 1931.35 1507.7C1933.48 1509.86 1935.41 1513.74 1937.13 1519.33C1939.06 1525.55 1944.09 1534.24 1942.68 1540.62C1937.08 1565.7 1938.07 1594.25 1927.14 1617.57C1917.43 1638.28 1908.64 1652.25 1886.24 1659.22C1871.64 1663.77 1849.24 1659.61 1839.69 1645.98C1827.8 1628.93 1826.58 1611.3 1832.83 1592.12C1835.12 1585.1 1837.06 1579.82 1838.66 1576.3Z" fill="white"/>
<path d="M2058.99 1599.34C2057.02 1587.66 2054.59 1571.66 2059.34 1562.42C2062.45 1556.39 2071.8 1550.35 2078.74 1549.81C2091.1 1548.82 2109.98 1547.82 2123.94 1551.73C2133.39 1554.35 2141.45 1554.83 2149 1558.04C2155.72 1560.89 2162.58 1563.4 2169.57 1565.58C2179.06 1568.54 2197.96 1575.39 2226.24 1586.13C2241.62 1591.98 2255.65 1599.64 2268.01 1605.56C2276.2 1609.5 2286.8 1613.2 2292.96 1620.08C2297.82 1625.54 2299.07 1633.96 2301.54 1641.02C2303.39 1646.32 2299.35 1654.17 2297.02 1659.2C2292.16 1669.67 2277.11 1682.76 2266.65 1688.09C2255.46 1693.81 2244.38 1699.7 2233.41 1705.76C2227.38 1709.1 2219.01 1714.52 2208.31 1722.02C2192.7 1732.93 2175.3 1742.87 2156.1 1751.83C2151.55 1753.95 2147.64 1753.66 2144.34 1750.96C2133.34 1741.91 2126.78 1727.92 2119.54 1716.1C2116.13 1710.5 2111.18 1703.01 2104.71 1693.62C2086.89 1667.77 2076.64 1640.91 2064.33 1615.26C2061.6 1609.59 2059.82 1604.28 2058.99 1599.34Z" fill="white"/>
<path d="M989.632 1992.44C1017.06 1979.59 1043.09 1967.77 1070.33 1951.7C1084.88 1943.13 1100.73 1935.31 1114.29 1926.9C1141.58 1909.96 1169.72 1893.64 1195.6 1874.73C1205.36 1867.64 1216.85 1860.74 1225.5 1854.54C1260.06 1829.88 1291.76 1805.42 1320.61 1781.16C1329.5 1773.68 1338.69 1767.24 1346.26 1760.36C1363.72 1744.51 1381.31 1730.8 1399.48 1713.99C1405.57 1708.34 1413.46 1701.27 1423.13 1692.8C1431.94 1685.07 1443.81 1670.12 1456.39 1659.42C1461.06 1655.45 1465.21 1651.48 1468.85 1647.51C1490.73 1623.71 1512.26 1599.51 1534.81 1576.32C1539.16 1571.86 1543.33 1567.23 1547.31 1562.45C1554.04 1554.42 1560.55 1549.81 1569.48 1558.31C1577.97 1566.36 1555.49 1588.12 1550.49 1594.16C1539.23 1607.8 1524.04 1620.72 1511.54 1635.03C1500.46 1647.74 1487.79 1657.96 1476.13 1669.99C1470.02 1676.3 1463.79 1682.05 1457.45 1687.25C1441.32 1700.41 1427.26 1715.68 1411.11 1728.56C1388.8 1746.36 1368.19 1765.82 1345.79 1783.54C1333.75 1793.07 1314.41 1809.74 1297.83 1820.71C1286.27 1828.36 1276.14 1836.03 1267.44 1843.73C1265.09 1845.8 1261.23 1848.43 1255.87 1851.62C1230.53 1866.66 1208.67 1884.65 1182.08 1899.99C1173.84 1904.76 1164.36 1910.65 1153.64 1917.66C1134.67 1930.1 1111.68 1941.85 1094.78 1951.66C1067.44 1967.54 1044.36 1978.06 1010.6 1993.67C986.623 2004.74 961.494 2014.5 936.717 2024.54C926.727 2028.58 908.133 2034.71 893.887 2041.75C893.417 2041.99 892.894 2042.11 892.365 2042.11C891.836 2042.1 891.315 2041.98 890.846 2041.74C890.378 2041.5 889.976 2041.15 889.675 2040.73C889.373 2040.3 889.182 2039.82 889.116 2039.31L888.974 2038.35C888.893 2037.72 889.026 2037.08 889.353 2036.53C889.68 2035.98 890.183 2035.55 890.784 2035.3C897.249 2032.68 903.596 2029.04 909.426 2026.75C925.912 2020.32 942.328 2013.73 958.673 2006.98C968.898 2002.75 979.265 1997.31 989.632 1992.44Z" fill="white"/>
<path d="M1532.41 2388.88C1530.55 2355.2 1532.53 2319.27 1533.04 2284.2C1533.17 2274.92 1533.98 2264.56 1535.49 2253.13C1537.65 2236.88 1538.47 2220.05 1541.08 2204.48C1544.14 2186.18 1547.05 2167.87 1549.83 2149.55C1550.3 2146.47 1551.76 2139.79 1554.2 2129.5C1556.36 2120.4 1556.6 2111.41 1558.88 2102.48C1561.79 2091.23 1562.71 2079.43 1565.69 2068.85C1576.09 2031.97 1585.16 1994.78 1594.7 1957.7C1598.23 1944.04 1602.3 1930.54 1606.93 1917.19C1606.94 1917.1 1608.03 1913.41 1610.19 1906.12C1611.84 1900.59 1614.87 1895.17 1616.56 1890.3C1622.44 1873.08 1628.24 1855.84 1633.96 1838.59C1642.7 1812.22 1648.83 1795.12 1652.34 1787.27C1668.26 1751.6 1677.96 1721.63 1692.56 1689.51C1699.97 1673.16 1707.38 1656.81 1714.78 1640.45C1717.29 1634.88 1723.94 1629.5 1730.2 1633.89C1737.39 1638.92 1737.55 1644.8 1733.75 1652.43C1721.12 1677.78 1713.42 1694.14 1710.66 1701.52C1703.02 1721.93 1691.48 1743.01 1684.48 1760.96C1680.37 1771.52 1676.35 1782.1 1672.42 1792.71C1667.1 1807.04 1661.48 1821.25 1655.54 1835.34C1644.09 1862.55 1635.98 1886.39 1627.31 1912.5C1620.87 1931.91 1613.04 1952.53 1606.27 1972.72C1604.36 1978.45 1601.89 1987.2 1598.86 1998.96C1596.02 2010 1591.48 2021.09 1589.23 2032.18C1586.64 2044.73 1582.46 2056.57 1579.49 2068.98C1576.31 2082.3 1573.84 2092.25 1572.09 2098.82C1563.58 2130.69 1560.29 2154.62 1554.95 2182.86C1553.42 2190.93 1553.68 2203.11 1550.42 2214.29C1549.26 2218.27 1548.55 2222.26 1548.3 2226.27C1547.22 2243.21 1543.86 2261.95 1542.73 2276.63C1540.33 2307.65 1540.21 2335.98 1539.53 2365.13C1538.94 2389.86 1541.13 2412.81 1543.15 2436.75C1544.56 2453.67 1549.03 2467.7 1546.7 2484.46C1546.68 2484.64 1546.61 2484.82 1546.52 2484.98C1546.42 2485.13 1546.29 2485.27 1546.14 2485.38C1545.99 2485.48 1545.81 2485.56 1545.63 2485.6C1545.45 2485.64 1545.26 2485.64 1545.08 2485.6C1544.81 2485.54 1544.59 2485.22 1544.42 2484.64C1538.52 2465.81 1537.46 2445.23 1534.64 2425.78C1532.95 2414 1533.11 2401.8 1532.41 2388.88Z" fill="white"/>
<path d="M2246.04 2880.98L2350.92 2690.33L2293.63 2659.06L2236.33 2627.78L2186.51 2718.34L2136.69 2808.89L2000.13 2734.35L1863.57 2659.8L1914.35 2569.77L1965.12 2479.73L1906.87 2447.94L1849.57 2416.66L1744.69 2607.3L1639.8 2797.95L1678 2818.8L1716.2 2839.65L1752.91 2772.93L1789.83 2706.94L1810.84 2718.41L1831.85 2729.87L1795.88 2796.38C1761.27 2859.3 1760.87 2863.42 1776.14 2871.76C1791.42 2880.1 1794.69 2877.54 1829.3 2814.63L1866.23 2748.64L1887.24 2760.11L1908.25 2771.58L1872.28 2838.09C1837.66 2901 1837.26 2905.12 1852.54 2913.46C1867.82 2921.8 1871.09 2919.24 1905.7 2856.33L1942.63 2790.34L1963.63 2801.81L1984.64 2813.28L1948.67 2879.79C1914.06 2942.7 1913.66 2946.82 1928.94 2955.16C1944.22 2963.5 1947.48 2960.95 1982.1 2898.03L2019.02 2832.05L2040.03 2843.51L2061.04 2854.98L2025.07 2921.49C1990.46 2984.41 1990.05 2988.52 2005.33 2996.86C2020.61 3005.2 2023.88 3002.65 2058.49 2939.74L2095.42 2873.75L2116.43 2885.22L2137.44 2896.68L2101.47 2963.19L2064.76 3029.92L2102.95 3050.77L2141.15 3071.62L2246.04 2880.98Z" fill="white"/>
<path fill-rule="evenodd" clip-rule="evenodd" d="M2660.63 1994.23C2649.27 2029.55 2594.44 2199.18 2538.35 2369.98C2482.47 2541.51 2435.12 2681.75 2432.9 2682.4C2430.68 2683.05 2390.26 2662.85 2343.25 2636.57L2258.05 2589.44L2279.86 2548.66L2301.67 2507.89L2279.5 2475.96L2256.59 2444.24L2305.89 2354.64L2355.19 2265.03L2280.92 2225.11L2207.17 2184.23L2157.87 2273.84L2108.58 2363.44L2069.41 2361.27L2030.46 2359.84L2007.7 2400.1L1985.15 2441.09L1897.29 2393.13C1848.59 2366.54 1810.48 2343.26 1811.53 2341.36C1821.93 2324.72 2319.7 1739.32 2324.14 1738.03C2327.09 1737.16 2347.24 1745.68 2367.51 1757.37L2404.97 1778.44L2534.33 1761.67L2591.92 1879.87L2636.81 1904.37L2680.95 1929.09L2660.63 1994.23Z" fill="white"/>
<path d="M2196.14 2633.11L2263.27 2511.1L2239.84 2480.34L2217.15 2449.36L2241.98 2399.7C2256.67 2373.01 2275.95 2334.58 2285.48 2314.99L2302.67 2280.37L2260.44 2256.69L2218.2 2233.02L2171.84 2316.17L2125.47 2399.31L2087.05 2396.93L2048.41 2393.81L1979.71 2518.68L1911.53 2642.6L2016.57 2699.95C2073.87 2731.22 2123.1 2756.85 2125.32 2756.21C2127.54 2755.56 2159.43 2699.84 2196.14 2633.11Z" fill="white"/>
<path d="M904.733 1871.69L1024.08 1770.56L993.742 1734.75L963.402 1698.95L906.711 1746.98L850.02 1795.02L777.71 1709.69L705.4 1624.35L762.597 1576.91L819.793 1529.47L788.948 1493.07L758.608 1457.26L639.258 1558.4L519.909 1659.53L540.135 1683.4L560.362 1707.27L602.134 1671.87L643.861 1637.03L654.986 1650.16L666.11 1663.28L624.889 1698.73C585.504 1732.1 584.174 1734.77 592.265 1744.31C600.355 1753.86 603.202 1752.99 642.588 1719.61L684.314 1684.77L695.439 1697.9L706.564 1711.02L665.343 1746.47C625.957 1779.84 624.627 1782.5 632.718 1792.05C640.808 1801.6 643.656 1800.73 683.041 1767.35L724.768 1732.51L735.892 1745.64L747.017 1758.76L705.796 1794.21C666.411 1827.58 665.08 1830.24 673.171 1839.79C681.262 1849.34 684.109 1848.47 723.494 1815.09L765.221 1780.25L776.346 1793.38L787.47 1806.5L746.249 1841.95C706.864 1875.32 705.534 1877.98 713.624 1887.53C721.715 1897.08 724.562 1896.21 763.947 1862.83L805.674 1827.99L816.799 1841.11L827.924 1854.24L786.702 1889.69L744.93 1925.08L765.157 1948.95L785.383 1972.82L904.733 1871.69Z" fill="white"/>
<path fill-rule="evenodd" clip-rule="evenodd" d="M1410.78 1382.39C1394.07 1403.21 1313.67 1503.12 1232.12 1603.49C1150.53 1704.41 1082.7 1786.5 1081.05 1786.36C1079.4 1786.22 1057.51 1762.22 1032.78 1732.42L987.824 1678.76L1012.93 1656.97L1038.04 1635.18L1031.41 1608L1024.22 1580.77L1080.32 1533.23L1136.41 1485.7L1096.93 1439.71L1058.03 1393.2L1001.94 1440.74L945.846 1488.27L920.162 1476.71L894.433 1465.71L868.818 1486.9L843.158 1508.64L796.637 1453.74C770.848 1423.31 751.309 1397.83 752.503 1396.82C763.75 1388.31 1247.95 1123.09 1251.26 1123.36C1253.46 1123.54 1264.77 1134.47 1275.34 1147.55L1295.02 1171.37L1386.01 1193.46L1394.18 1287.78L1417.94 1315.83L1441.16 1343.83L1410.78 1382.39Z" fill="white"/>
<path d="M935.105 1692.17L1011.49 1627.44L1003.71 1600.72L996.477 1574.03L1025.9 1547.05C1042.61 1532.89 1065.42 1512.02 1076.85 1501.31L1097.28 1482.47L1075.07 1455.66L1052.87 1428.85L1000.4 1472.8L947.933 1516.75L922.801 1505.24L897.714 1493.17L819.54 1559.42L741.963 1625.15L797.586 1690.79C827.926 1726.6 854.312 1756.53 855.965 1756.66C857.619 1756.8 893.333 1727.56 935.105 1692.17Z" fill="white"/>
</svg>
