<?xml version="1.0" encoding="UTF-8"?><svg id="Calque_1" xmlns="http://www.w3.org/2000/svg" viewBox="0 0 750 750"><defs><style>.cls-1{fill:#fff;stroke-width:0px;}</style></defs><polygon class="cls-1" points="618.09 197.98 644.5 193.67 703.36 208.03 739.5 190.15 689.72 161.73 692.8 132.45 669.05 111.72 639.99 114.49 618.95 75.62 587.9 88.15 585.13 114.07 559.81 121.99 610.01 141.82 618.09 197.98"/><polygon class="cls-1" points="312.74 461.31 319.68 419.81 305.8 416.56 284.69 438.94 291.91 461.31 312.74 461.31"/><polygon class="cls-1" points="226.65 398.03 242.81 404.07 252.15 389.2 257.89 381.04 253.95 372.52 229.88 383.21 226.65 398.03"/><polygon class="cls-1" points="339.68 416.92 391.3 408.59 511.99 286.23 509.52 211.81 464.37 178.52 417.7 186.53 280.12 279.95 264.77 346.46 269.75 383.52 242.01 428.25 204.87 461.65 158.24 481.71 160.22 482.79 206.45 468.4 234.1 449.61 236.22 449.43 223.78 484.58 227.06 534.81 229.47 535.59 230.82 485.6 249.18 448.16 311.7 394.24 339.68 416.92"/><polygon class="cls-1" points="474.7 163.43 529.41 202.49 532.15 270.67 563.57 239.22 563.57 178.43 501.8 147.79 478.74 151.4 434.67 169.21 474.7 163.43"/><polygon class="cls-1" points="575.91 165 581.94 220.85 599.35 203.42 595.03 154.22 541.67 129.24 525.27 130.6 504.3 137.63 522.78 137.63 575.91 165"/><path class="cls-1" d="M232.71,342.28c-12.59-.64-13.48-.59-24.21-.96h0c60.06-75.37,119.13-151.48,176.95-228.57,19.5-25.93,38.83-52,57.83-78.31-41.23,50.14-81.3,101.17-121.11,152.43-40.52,52.01-80.28,104.61-119.75,157.43,14.7-.55,15.59-1.28,30.29-2.02"/><polygon class="cls-1" points="291.43 258.22 333.26 232.53 307.12 232.53 286.94 258.51 291.43 258.22"/><path class="cls-1" d="M455.86,404.72c13.92-7.58,27.59-14.99,41.12-22.31l-3.61-45.52-38.77,41.67,1.26,26.15Z"/><path class="cls-1" d="M339.93,481.58h0c.98-14.85.34-16.03,1.34-32.47-2.44,18.07-2.3,19.24-4.57,37.33l2.34-1.22c76.91-40.1,153.59-80.65,229.85-121.98,76.29-41.28,82.67-45.99,158.08-88.88-77.36,39.26-84.24,43.05-160.74,83.93-75.78,40.45-151.16,81.64-226.29,123.29"/><polygon class="cls-1" points="403.58 580.6 387.79 576.34 348.51 617.31 383.85 651.17 423.11 610.2 418.19 594.6 443.55 568.13 428.95 554.13 403.58 580.6"/><polygon class="cls-1" points="520.41 540.99 502.62 412.77 451.66 439.87 426.97 499.1 342.04 560.12 370.75 587.63 384.54 573.23 386.38 571.31 388.95 572.01 402.18 575.57 425.71 551.03 428.82 547.78 432.06 550.89 446.66 564.89 449.9 567.99 446.8 571.23 423.27 595.78 427.39 608.85 428.2 611.39 426.35 613.31 412.56 627.7 443.4 657.26 520.41 543.28 519.53 542.01 520.41 540.99"/><polygon class="cls-1" points="286.94 636.53 299.45 648.52 320.18 626.89 327.11 633.53 306.38 655.16 312.08 660.62 332.81 638.99 339.73 645.63 319 667.26 324.7 672.72 345.43 651.09 352.36 657.73 331.63 679.36 337.32 684.82 358.06 663.19 364.99 669.83 344.25 691.46 349.95 696.92 370.68 675.29 377.61 681.93 356.88 703.56 369.39 715.55 430.62 651.66 410.53 632.4 409.24 631.17 387.09 654.27 383.98 657.52 380.74 654.42 345.41 620.55 342.17 617.45 345.28 614.2 367.42 591.1 348.13 572.69 286.94 636.53"/><polygon class="cls-1" points="10.5 371.62 19.39 380.09 34.04 364.73 38.96 369.43 24.31 384.79 28.35 388.65 43 373.28 47.92 377.97 33.27 393.33 37.32 397.2 51.97 381.83 56.89 386.52 42.24 401.89 46.29 405.74 60.93 390.38 65.85 395.08 51.21 410.43 55.25 414.3 69.9 398.94 74.82 403.63 60.17 418.99 69.06 427.46 112.32 382.09 98.84 369.23 81.47 387.45 78.37 390.7 75.12 387.6 50.03 363.67 46.78 360.58 49.88 357.33 67.25 339.11 53.77 326.25 10.5 371.62"/><polygon class="cls-1" points="230.24 228.55 138.88 252.24 138.88 252.24 138.88 252.24 138.98 252.68 50.78 316.39 70.75 335.44 77.63 328.23 79.46 326.3 82.03 326.99 90.66 329.29 106.76 312.42 109.85 309.17 113.1 312.27 123.47 322.16 126.72 325.26 123.62 328.5 107.53 345.38 110.24 353.89 111.05 356.42 109.22 358.35 102.33 365.57 122.3 384.63 157.44 330.76 237.65 257.52 256.14 255.99 277.09 228.55 230.24 228.55"/><polygon class="cls-1" points="92.08 334.32 80.87 331.33 53.13 360.42 78.22 384.35 105.97 355.26 102.45 344.21 120.37 325.41 110 315.52 92.08 334.32"/></svg>